<svg width="128" height="128" viewBox="0 0 128 128" fill="none" xmlns="http://www.w3.org/2000/svg">
<rect width="128" height="128" rx="8" fill="#F30000"/>
<rect x="8" y="8" width="24" height="8" fill="black"/>
<rect x="40" y="8" width="8" height="40" fill="black"/>
<rect x="8" y="16" width="8" height="24" fill="black"/>
<rect x="16" y="24" width="8" height="8" fill="black"/>
<rect x="8" y="40" width="24" height="8" fill="black"/>
<rect x="48" y="24" width="8" height="8" fill="black"/>
<rect x="56" y="8" width="8" height="40" fill="black"/>
<rect x="112" y="8" width="8" height="40" fill="black"/>
<rect x="24" y="56" width="8" height="64" fill="black"/>
<rect x="8" y="104" width="8" height="8" fill="black"/>
<rect x="16" y="88" width="8" height="16" fill="black"/>
<rect x="16" y="72" width="8" height="8" fill="black"/>
<rect x="32" y="72" width="8" height="8" fill="black"/>
<rect x="32" y="88" width="8" height="16" fill="black"/>
<rect x="40" y="104" width="8" height="8" fill="black"/>
<rect x="48" y="56" width="8" height="64" fill="black"/>
<rect x="40" y="56" width="8" height="8" fill="black"/>
<rect x="56" y="56" width="8" height="8" fill="black"/>
<rect x="40" y="72" width="8" height="24" fill="black"/>
<rect x="56" y="72" width="8" height="24" fill="black"/>
<rect x="64" y="96" width="8" height="8" fill="black"/>
<rect x="80" y="56" width="40" height="8" fill="black"/>
<rect x="112" y="64" width="8" height="8" fill="black"/>
<rect x="104" y="72" width="8" height="8" fill="black"/>
<rect x="96" y="80" width="8" height="40" fill="black"/>
<rect x="88" y="104" width="8" height="8" fill="black"/>
<rect x="80" y="88" width="16" height="8" fill="black"/>
<rect x="104" y="88" width="16" height="8" fill="black"/>
<rect x="88" y="40" width="8" height="8" fill="black"/>
<rect x="88" y="8" width="8" height="8" fill="black"/>
<rect x="96" y="16" width="8" height="24" fill="black"/>
<rect x="80" y="16" width="8" height="24" fill="black"/>
</svg>
