<svg width="128" height="128" viewBox="0 0 128 128" fill="none" xmlns="http://www.w3.org/2000/svg">
<g clip-path="url(#clip0_226_2)">
<rect width="128" height="128" rx="8" fill="#F30000"/>
<rect x="24" width="8" height="16" fill="black"/>
<rect x="96" width="8" height="16" fill="black"/>
<rect x="56" width="16" height="8" fill="black"/>
<rect x="32" y="16" width="24" height="8" fill="black"/>
<rect x="72" y="16" width="24" height="8" fill="black"/>
<rect y="16" width="16" height="8" fill="black"/>
<rect x="112" y="16" width="16" height="8" fill="black"/>
<rect x="24" y="24" width="8" height="8" fill="black"/>
<rect x="96" y="24" width="8" height="8" fill="black"/>
<rect x="56" y="48" width="16" height="8" fill="black"/>
<rect x="48" y="56" width="8" height="8" fill="black"/>
<rect x="72" y="56" width="8" height="8" fill="black"/>
<rect x="40" y="64" width="8" height="8" fill="black"/>
<rect x="48" y="72" width="8" height="8" fill="black"/>
<rect x="80" y="64" width="8" height="8" fill="black"/>
<rect x="72" y="72" width="8" height="8" fill="black"/>
<rect x="56" y="80" width="16" height="8" fill="black"/>
<rect x="112" y="56" width="8" height="8" fill="black"/>
<rect x="8" y="56" width="8" height="8" fill="black"/>
<rect y="96" width="8" height="8" fill="black"/>
<rect x="120" y="96" width="8" height="8" fill="black"/>
<rect x="8" y="112" width="8" height="16" fill="black"/>
<rect x="112" y="112" width="8" height="16" fill="black"/>
<rect x="96" y="104" width="8" height="16" fill="black"/>
<rect x="24" y="104" width="8" height="16" fill="black"/>
<rect x="32" y="104" width="8" height="8" fill="black"/>
<rect x="88" y="104" width="8" height="8" fill="black"/>
<rect x="48" y="112" width="8" height="8" fill="black"/>
<rect x="72" y="112" width="8" height="8" fill="black"/>
<rect x="56" y="120" width="16" height="8" fill="black"/>
<rect x="40" y="96" width="48" height="8" fill="black"/>
</g>
<defs>
<clipPath id="clip0_226_2">
<rect width="128" height="128" rx="8" fill="white"/>
</clipPath>
</defs>
</svg>
