<svg width="128" height="128" viewBox="0 0 128 128" fill="none" xmlns="http://www.w3.org/2000/svg">
<g clip-path="url(#clip0_226_108)">
<rect width="128" height="128" rx="8" fill="#F30000"/>
<rect x="16" width="8" height="8" fill="black"/>
<rect x="32" width="8" height="8" fill="black"/>
<rect x="48" width="56" height="8" fill="black"/>
<rect x="112" width="8" height="8" fill="black"/>
<rect x="120" y="8" width="8" height="8" fill="black"/>
<rect x="104" y="8" width="8" height="8" fill="black"/>
<rect x="112" y="16" width="8" height="8" fill="black"/>
<rect x="8" y="8" width="8" height="8" fill="black"/>
<rect x="24" y="8" width="8" height="8" fill="black"/>
<rect x="40" y="8" width="8" height="8" fill="black"/>
<rect y="16" width="8" height="8" fill="black"/>
<rect x="16" y="16" width="8" height="8" fill="black"/>
<rect x="32" y="16" width="8" height="8" fill="black"/>
<rect x="56" y="16" width="40" height="8" fill="black"/>
<rect x="8" y="24" width="8" height="32" fill="black"/>
<rect x="24" y="24" width="8" height="40" fill="black"/>
<rect x="48" y="24" width="8" height="8" fill="black"/>
<rect x="96" y="24" width="8" height="8" fill="black"/>
<rect x="120" y="24" width="8" height="56" fill="black"/>
<rect x="40" y="32" width="8" height="40" fill="black"/>
<rect x="104" y="32" width="8" height="40" fill="black"/>
<rect x="64" y="40" width="8" height="8" fill="black"/>
<rect x="80" y="40" width="8" height="8" fill="black"/>
<rect x="56" y="56" width="40" height="8" fill="black"/>
<rect x="64" y="64" width="24" height="8" fill="black"/>
<rect x="48" y="72" width="8" height="8" fill="black"/>
<rect x="96" y="72" width="8" height="8" fill="black"/>
<rect x="56" y="80" width="40" height="8" fill="black"/>
<rect x="32" y="72" width="8" height="8" fill="black"/>
<rect x="40" y="80" width="8" height="8" fill="black"/>
<rect x="48" y="88" width="8" height="8" fill="black"/>
<rect x="56" y="96" width="48" height="8" fill="black"/>
<rect x="104" y="88" width="8" height="8" fill="black"/>
<rect x="112" y="80" width="8" height="8" fill="black"/>
<rect x="120" y="96" width="8" height="8" fill="black"/>
<rect x="112" y="104" width="8" height="8" fill="black"/>
<rect x="48" y="112" width="64" height="8" fill="black"/>
<rect x="40" y="104" width="8" height="8" fill="black"/>
<rect x="32" y="96" width="8" height="8" fill="black"/>
<rect x="24" y="88" width="8" height="8" fill="black"/>
<rect x="16" y="64" width="8" height="24" fill="black"/>
<rect y="56" width="8" height="40" fill="black"/>
<rect x="8" y="96" width="8" height="8" fill="black"/>
<rect x="16" y="104" width="8" height="8" fill="black"/>
<rect x="24" y="112" width="8" height="8" fill="black"/>
<rect x="32" y="120" width="8" height="8" fill="black"/>
<rect x="112" y="120" width="8" height="8" fill="black"/>
<rect x="120" y="112" width="8" height="8" fill="black"/>
<rect y="104" width="8" height="8" fill="black"/>
<rect x="8" y="112" width="8" height="8" fill="black"/>
<rect x="16" y="120" width="8" height="8" fill="black"/>
</g>
<defs>
<clipPath id="clip0_226_108">
<rect width="128" height="128" rx="8" fill="white"/>
</clipPath>
</defs>
</svg>
