<svg width="128" height="128" viewBox="0 0 128 128" fill="none" xmlns="http://www.w3.org/2000/svg">
<rect width="128" height="128" rx="8" fill="#F30000"/>
<rect x="8" y="8" width="8" height="8" fill="black"/>
<rect x="16" y="16" width="8" height="8" fill="black"/>
<rect y="16" width="8" height="8" fill="black"/>
<rect x="104" y="8" width="8" height="8" fill="black"/>
<rect x="96" y="16" width="8" height="8" fill="black"/>
<rect x="112" y="16" width="8" height="8" fill="black"/>
<rect x="24" y="32" width="8" height="8" fill="black"/>
<rect x="96" y="32" width="8" height="8" fill="black"/>
<rect x="64" y="40" width="8" height="8" fill="black"/>
<rect x="56" y="48" width="8" height="8" fill="black"/>
<rect x="48" y="56" width="8" height="8" fill="black"/>
<rect x="72" y="48" width="8" height="8" fill="black"/>
<rect x="80" y="56" width="8" height="8" fill="black"/>
<rect y="56" width="8" height="8" fill="black"/>
<rect x="8" y="56" width="8" height="8" fill="black"/>
<rect x="120" y="56" width="8" height="8" fill="black"/>
<rect x="112" y="56" width="8" height="8" fill="black"/>
<rect y="72" width="8" height="8" fill="black"/>
<rect x="8" y="72" width="8" height="8" fill="black"/>
<rect x="112" y="72" width="8" height="8" fill="black"/>
<rect x="120" y="72" width="8" height="8" fill="black"/>
</svg>
