<svg width="128" height="128" viewBox="0 0 16 16" fill="none" xmlns="http://www.w3.org/2000/svg">
<rect width="16" height="16" rx="1" fill="#F30000"/><rect x="3" y="2" width="1" height="1" fill="black"/><rect x="9" y="2" width="1" height="1" fill="black"/><rect x="11" y="2" width="1" height="1" fill="black"/><rect x="14" y="2" width="1" height="1" fill="black"/><rect x="3" y="3" width="1" height="1" fill="black"/><rect x="9" y="3" width="1" height="1" fill="black"/><rect x="10" y="3" width="1" height="1" fill="black"/><rect x="14" y="3" width="1" height="1" fill="black"/><rect x="3" y="4" width="1" height="1" fill="black"/><rect x="9" y="4" width="1" height="1" fill="black"/><rect x="14" y="4" width="1" height="1" fill="black"/><rect x="1" y="6" width="1" height="1" fill="black"/><rect x="3" y="6" width="1" height="1" fill="black"/><rect x="7" y="6" width="1" height="1" fill="black"/><rect x="9" y="6" width="1" height="1" fill="black"/><rect x="12" y="6" width="1" height="1" fill="black"/><rect x="14" y="6" width="1" height="1" fill="black"/><rect x="2" y="7" width="1" height="1" fill="black"/><rect x="3" y="7" width="1" height="1" fill="black"/><rect x="8" y="7" width="1" height="1" fill="black"/><rect x="9" y="7" width="1" height="1" fill="black"/><rect x="13" y="7" width="1" height="1" fill="black"/><rect x="14" y="7" width="1" height="1" fill="black"/><rect x="3" y="8" width="1" height="1" fill="black"/><rect x="9" y="8" width="1" height="1" fill="black"/><rect x="14" y="8" width="1" height="1" fill="black"/><rect x="3" y="10" width="1" height="1" fill="black"/><rect x="5" y="10" width="1" height="1" fill="black"/><rect x="9" y="10" width="1" height="1" fill="black"/><rect x="14" y="10" width="1" height="1" fill="black"/><rect x="3" y="11" width="1" height="1" fill="black"/><rect x="4" y="11" width="1" height="1" fill="black"/><rect x="9" y="11" width="1" height="1" fill="black"/><rect x="14" y="11" width="1" height="1" fill="black"/><rect x="3" y="12" width="1" height="1" fill="black"/><rect x="9" y="12" width="1" height="1" fill="black"/><rect x="11" y="13" width="1" height="1" fill="black"/><rect x="14" y="13" width="1" height="1" fill="black"/><rect x="3" y="14" width="1" height="1" fill="black"/><rect x="9" y="14" width="1" height="1" fill="black"/><rect x="10" y="14" width="1" height="1" fill="black"/><rect x="14" y="14" width="1" height="1" fill="black"/><rect x="3" y="15" width="1" height="1" fill="black"/><rect x="9" y="15" width="1" height="1" fill="black"/><rect x="14" y="15" width="1" height="1" fill="black"/></svg>