<svg width="128" height="128" viewBox="0 0 16 16" fill="none" xmlns="http://www.w3.org/2000/svg">
<rect width="16" height="16" rx="1" fill="#F30000"/><rect x="2" y="2" width="1" height="1" fill="black"/><rect x="7" y="2" width="1" height="1" fill="black"/><rect x="8" y="2" width="1" height="1" fill="black"/><rect x="9" y="2" width="1" height="1" fill="black"/><rect x="11" y="2" width="1" height="1" fill="black"/><rect x="12" y="2" width="1" height="1" fill="black"/><rect x="13" y="2" width="1" height="1" fill="black"/><rect x="2" y="3" width="1" height="1" fill="black"/><rect x="7" y="3" width="1" height="1" fill="black"/><rect x="11" y="3" width="1" height="1" fill="black"/><rect x="2" y="4" width="1" height="1" fill="black"/><rect x="7" y="4" width="1" height="1" fill="black"/><rect x="11" y="4" width="1" height="1" fill="black"/><rect x="2" y="5" width="1" height="1" fill="black"/><rect x="7" y="5" width="1" height="1" fill="black"/><rect x="8" y="5" width="1" height="1" fill="black"/><rect x="9" y="5" width="1" height="1" fill="black"/><rect x="11" y="5" width="1" height="1" fill="black"/><rect x="2" y="6" width="1" height="1" fill="black"/><rect x="7" y="6" width="1" height="1" fill="black"/><rect x="11" y="6" width="1" height="1" fill="black"/><rect x="2" y="7" width="1" height="1" fill="black"/><rect x="7" y="7" width="1" height="1" fill="black"/><rect x="11" y="7" width="1" height="1" fill="black"/><rect x="13" y="7" width="1" height="1" fill="black"/><rect x="14" y="7" width="1" height="1" fill="black"/><rect x="2" y="8" width="1" height="1" fill="black"/><rect x="7" y="8" width="1" height="1" fill="black"/><rect x="11" y="8" width="1" height="1" fill="black"/><rect x="14" y="8" width="1" height="1" fill="black"/><rect x="2" y="9" width="1" height="1" fill="black"/><rect x="7" y="9" width="1" height="1" fill="black"/><rect x="11" y="9" width="1" height="1" fill="black"/><rect x="14" y="9" width="1" height="1" fill="black"/><rect x="2" y="10" width="1" height="1" fill="black"/><rect x="7" y="10" width="1" height="1" fill="black"/><rect x="11" y="10" width="1" height="1" fill="black"/><rect x="14" y="10" width="1" height="1" fill="black"/><rect x="2" y="11" width="1" height="1" fill="black"/><rect x="3" y="11" width="1" height="1" fill="black"/><rect x="4" y="11" width="1" height="1" fill="black"/><rect x="5" y="11" width="1" height="1" fill="black"/><rect x="7" y="11" width="1" height="1" fill="black"/><rect x="11" y="11" width="1" height="1" fill="black"/><rect x="12" y="11" width="1" height="1" fill="black"/><rect x="13" y="11" width="1" height="1" fill="black"/><rect x="14" y="11" width="1" height="1" fill="black"/></svg>