<svg width="128" height="128" viewBox="0 0 16 16" fill="none" xmlns="http://www.w3.org/2000/svg">
<rect width="16" height="16" rx="1" fill="#F30000"/><rect x="4" y="4" width="1" height="1" fill="black"/><rect x="7" y="4" width="1" height="1" fill="black"/><rect x="11" y="4" width="1" height="1" fill="black"/><rect x="7" y="5" width="1" height="1" fill="black"/><rect x="7" y="6" width="1" height="1" fill="black"/><rect x="8" y="6" width="1" height="1" fill="black"/><rect x="2" y="8" width="1" height="1" fill="black"/><rect x="3" y="8" width="1" height="1" fill="black"/><rect x="4" y="8" width="1" height="1" fill="black"/><rect x="5" y="8" width="1" height="1" fill="black"/><rect x="6" y="8" width="1" height="1" fill="black"/><rect x="7" y="8" width="1" height="1" fill="black"/><rect x="8" y="8" width="1" height="1" fill="black"/><rect x="9" y="8" width="1" height="1" fill="black"/><rect x="10" y="8" width="1" height="1" fill="black"/><rect x="11" y="8" width="1" height="1" fill="black"/><rect x="12" y="8" width="1" height="1" fill="black"/><rect x="13" y="8" width="1" height="1" fill="black"/></svg>