<svg width="128" height="128" viewBox="0 0 128 128" fill="none" xmlns="http://www.w3.org/2000/svg">
<rect width="128" height="128" rx="8" fill="#F30000"/>
<rect x="24" y="16" width="56" height="8" fill="black"/>
<rect x="16" y="24" width="8" height="16" fill="black"/>
<rect x="8" y="40" width="8" height="48" fill="black"/>
<rect x="16" y="88" width="8" height="8" fill="black"/>
<rect x="24" y="96" width="16" height="8" fill="black"/>
<rect x="40" y="104" width="24" height="8" fill="black"/>
<rect x="48" y="96" width="32" height="8" fill="black"/>
<rect x="56" y="88" width="40" height="8" fill="black"/>
<rect x="64" y="80" width="40" height="8" fill="black"/>
<rect x="72" y="40" width="32" height="40" fill="black"/>
<rect x="64" y="32" width="32" height="8" fill="black"/>
<rect x="56" y="24" width="32" height="8" fill="black"/>
<rect x="32" y="32" width="16" height="8" fill="black"/>
<rect x="24" y="40" width="8" height="16" fill="black"/>
<rect x="32" y="56" width="16" height="8" fill="black"/>
<rect x="32" y="80" width="16" height="8" fill="black"/>
<rect x="24" y="64" width="8" height="16" fill="black"/>
<rect x="48" y="40" width="8" height="16" fill="black"/>
<rect x="48" y="64" width="8" height="16" fill="black"/>
</svg>
