<svg width="26" height="30" viewBox="0 0 26 30" fill="none" xmlns="http://www.w3.org/2000/svg">
<g id="C">
<g clip-path="url(#clip0_58_193)">
<path id="path2" fill-rule="evenodd" clip-rule="evenodd" d="M12.0807 0.204595C12.5388 -0.0675474 13.1029 -0.0675474 13.5604 0.204595C15.8242 1.54959 22.6366 5.59816 24.9011 6.94316C25.3593 7.21459 25.6414 7.71745 25.6414 8.26173C25.6414 10.9517 25.6414 19.0482 25.6414 21.7381C25.6414 22.2824 25.3593 22.7853 24.9011 23.0574C22.6373 24.4024 15.8249 28.451 13.5604 29.796C13.1023 30.0681 12.5382 30.0681 12.0807 29.796C9.81684 28.451 3.00444 24.4024 0.739936 23.0574C0.282447 22.7853 0.000396729 22.2831 0.000396729 21.7389C0.000396729 19.0489 0.000396729 10.9524 0.000396729 8.26245C0.000396729 7.71816 0.282447 7.2153 0.740611 6.94316C3.00376 5.59816 9.81751 1.54959 12.0807 0.204595Z" fill="white"/>
<path id="path4" fill-rule="evenodd" clip-rule="evenodd" d="M0.205524 22.4316C0.0260377 22.1773 0.000396729 21.9359 0.000396729 21.6109C0.000396729 18.9366 0.000396729 10.8866 0.000396729 8.21162C0.000396729 7.6702 0.281773 7.1702 0.738587 6.9002C2.99432 5.56305 9.78378 1.53806 12.0395 0.200201C12.4963 -0.0705131 13.1151 -0.0647988 13.5719 0.205915C15.8276 1.54306 22.5941 5.53377 24.8499 6.87091C25.0321 6.97948 25.1711 7.1102 25.2952 7.28234L0.205524 22.4316Z" fill="white"/>
<path id="path6" fill-rule="evenodd" clip-rule="evenodd" d="M12.8209 5.00024C18.0348 5.00024 22.2675 9.48095 22.2675 15.0002C22.2675 20.5195 18.0348 25.0002 12.8209 25.0002C7.60699 25.0002 3.37421 20.5195 3.37421 15.0002C3.37421 9.48095 7.60699 5.00024 12.8209 5.00024ZM12.8209 10.0002C15.4275 10.0002 17.5442 12.2402 17.5442 15.0002C17.5442 17.7595 15.4275 20.0002 12.8209 20.0002C10.2143 20.0002 8.09754 17.7595 8.09754 15.0002C8.09754 12.2402 10.2136 10.0002 12.8209 10.0002Z" fill="#0A2536"/>
<path id="path8" fill-rule="evenodd" clip-rule="evenodd" d="M25.2939 7.28943C25.6421 7.63443 25.6353 8.15443 25.6353 8.56371C25.6353 11.2744 25.6137 18.9844 25.6414 21.6951C25.6441 21.978 25.5557 22.2758 25.4234 22.5001L12.5463 15.0001L25.2939 7.28943Z" fill="white"/>
</g>
</g>
<defs>
<clipPath id="clip0_58_193">
<rect x="0.000396729" width="25.641" height="30" rx="10" fill="white"/>
</clipPath>
</defs>
</svg>
