<svg width="19" height="30" viewBox="0 0 19 30" fill="none" xmlns="http://www.w3.org/2000/svg">
<path id="Vector" d="M13.852 10.002C15.0763 10.002 16.2505 9.47507 17.1162 8.5372C17.9819 7.59934 18.4683 6.32732 18.4683 5.00098C18.4683 3.67464 17.9819 2.40262 17.1162 1.46475C16.2505 0.526887 15.0763 0 13.852 0L4.61942 0C3.39582 0 2.22234 0.526578 1.35712 1.46389C0.49191 2.40121 0.00583716 3.67248 0.00583716 4.99805C0.00583716 6.32361 0.49191 7.59488 1.35712 8.5322C2.22234 9.46952 3.39582 9.99609 4.61942 9.99609C3.3951 9.99609 2.22093 10.523 1.35521 11.4608C0.48949 12.3987 0.00313287 13.6707 0.00313287 14.9971C0.00313287 16.3234 0.48949 17.5954 1.35521 18.5333C2.22093 19.4712 3.3951 19.998 4.61942 19.998C3.7064 19.9975 2.81373 20.2902 2.05429 20.8392C1.29485 21.3883 0.702748 22.1689 0.352859 23.0825C0.00296892 23.9961 -0.0889926 25.0016 0.0886032 25.9718C0.266199 26.942 0.705376 27.8334 1.3506 28.5332C1.99582 29.233 2.8181 29.7098 3.71347 29.9033C4.60884 30.0969 5.53707 29.9984 6.38079 29.6204C7.22451 29.2425 7.94583 28.6019 8.45351 27.7799C8.9612 26.9578 9.23247 25.9911 9.233 25.002V10.002H13.852ZM13.852 10.002C12.9395 10.002 12.0475 10.2951 11.2888 10.8443C10.5301 11.3935 9.93879 12.1741 9.5896 13.0873C9.24041 14.0006 9.14904 15.0055 9.32706 15.9751C9.50507 16.9446 9.94448 17.8352 10.5897 18.5342C11.2349 19.2331 12.057 19.7092 12.9519 19.902C13.8469 20.0949 14.7745 19.9959 15.6175 19.6176C16.4606 19.2393 17.1811 18.5987 17.688 17.7768C18.195 16.9548 18.4656 15.9885 18.4656 15C18.4654 13.6745 17.9793 12.4033 17.1141 11.466C16.2489 10.5287 15.0755 10.0021 13.852 10.002Z" fill="white"/>
</svg>
