<svg width="30" height="30" viewBox="0 0 30 30" fill="none" xmlns="http://www.w3.org/2000/svg">
<path id="Vector" d="M29.4342 13.6641L16.3393 0.565634C15.9768 0.203447 15.4854 0 14.9729 0C14.4605 0 13.969 0.203447 13.6065 0.565634L10.8838 3.28644L14.3338 6.7365C16.1458 6.12443 17.8614 7.85951 17.2393 9.66155L20.5648 12.987C22.857 12.1969 24.6616 15.063 22.94 16.7833C21.1661 18.5572 18.2384 16.5911 19.19 14.2828L16.0862 11.183V19.3427C17.7804 20.1825 17.5768 22.1452 16.6943 23.0258C16.263 23.4568 15.6783 23.6989 15.0687 23.6989C14.4591 23.6989 13.8744 23.4568 13.4431 23.0258C12.2666 21.8472 12.7019 19.8845 14.1965 19.2758V11.039C12.8036 10.4691 12.5492 8.98051 12.9483 8.02558L9.54718 4.62039L0.565961 13.6031C0.203617 13.9656 6.10352e-05 14.4571 6.10352e-05 14.9696C6.10352e-05 15.4821 0.203617 15.9736 0.565961 16.336L13.6648 29.4344C14.0272 29.7966 14.5185 30 15.0309 30C15.5432 30 16.0345 29.7966 16.3969 29.4344L29.4342 16.3969C29.7965 16.0345 30.0001 15.543 30.0001 15.0305C30.0001 14.518 29.7965 14.0265 29.4342 13.6641Z" fill="white"/>
</svg>
