<svg width="30" height="30" viewBox="0 0 30 30" fill="none" xmlns="http://www.w3.org/2000/svg">
<path id="Vector" d="M26.7857 0H3.21426C1.4397 0 -3.05176e-05 1.43973 -3.05176e-05 3.21429V26.7857C-3.05176e-05 28.5603 1.4397 30 3.21426 30H26.7857C28.5602 30 30 28.5603 30 26.7857V3.21429C30 1.43973 28.5602 0 26.7857 0ZM18.5692 25.6942C18.0067 25.7946 17.7991 25.4464 17.7991 25.1585C17.7991 24.7969 17.8125 22.9487 17.8125 21.4554C17.8125 20.4107 17.4643 19.7478 17.0558 19.3996C19.5335 19.125 22.1451 18.7835 22.1451 14.5045C22.1451 13.2857 21.7098 12.6763 21 11.8929C21.1138 11.6049 21.4955 10.4196 20.8861 8.87946C19.9553 8.59152 17.8259 10.0781 17.8259 10.0781C16.9419 9.83036 15.9843 9.70312 15.0401 9.70312C14.096 9.70312 13.1384 9.83036 12.2544 10.0781C12.2544 10.0781 10.125 8.59152 9.19417 8.87946C8.58479 10.4129 8.95979 11.5982 9.08033 11.8929C8.37051 12.6763 8.03568 13.2857 8.03568 14.5045C8.03568 18.7634 10.5335 19.125 13.0111 19.3996C12.6897 19.6875 12.4018 20.183 12.3013 20.8929C11.6651 21.1808 10.0379 21.6763 9.06693 19.9621C8.45756 18.904 7.35934 18.817 7.35934 18.817C6.27452 18.8036 7.28568 19.5 7.28568 19.5C8.0089 19.8348 8.51783 21.1205 8.51783 21.1205C9.16738 23.1094 12.2745 22.4397 12.2745 22.4397C12.2745 23.3705 12.2879 24.8839 12.2879 25.1585C12.2879 25.4464 12.087 25.7946 11.5178 25.6942C7.09818 24.2143 4.00443 20.0089 4.00443 15.0937C4.00443 8.94643 8.70533 4.27902 14.8526 4.27902C21 4.27902 25.9821 8.94643 25.9821 15.0937C25.9888 20.0089 22.9888 24.221 18.5692 25.6942ZM12 21.6027C11.8727 21.6295 11.7522 21.5759 11.7388 21.4888C11.7254 21.3884 11.8125 21.3013 11.9397 21.2746C12.0669 21.2612 12.1875 21.3147 12.2009 21.4018C12.221 21.4888 12.1339 21.5759 12 21.6027ZM11.3638 21.5424C11.3638 21.6295 11.2634 21.7031 11.1294 21.7031C10.9821 21.7165 10.8817 21.6429 10.8817 21.5424C10.8817 21.4554 10.9821 21.3817 11.116 21.3817C11.2433 21.3683 11.3638 21.442 11.3638 21.5424ZM10.4464 21.4688C10.4196 21.5558 10.2857 21.596 10.1718 21.5558C10.0446 21.529 9.95756 21.4286 9.98434 21.3415C10.0111 21.2545 10.1451 21.2143 10.2589 21.2411C10.3928 21.2812 10.4799 21.3817 10.4464 21.4688ZM9.62274 21.1071C9.56247 21.1808 9.43524 21.1674 9.33479 21.067C9.23434 20.9799 9.20756 20.8527 9.27452 20.7924C9.33479 20.7188 9.46202 20.7321 9.56247 20.8326C9.64952 20.9196 9.683 21.0536 9.62274 21.1071ZM9.01336 20.4978C8.95309 20.5379 8.83925 20.4978 8.76559 20.3973C8.69193 20.2969 8.69193 20.183 8.76559 20.1362C8.83925 20.0759 8.95309 20.1228 9.01336 20.2232C9.08702 20.3237 9.08702 20.4442 9.01336 20.4978ZM8.57809 19.8482C8.51783 19.9085 8.41738 19.875 8.34372 19.808C8.27006 19.721 8.25667 19.6205 8.31693 19.5737C8.3772 19.5134 8.47765 19.5469 8.55131 19.6138C8.62497 19.7009 8.63836 19.8013 8.57809 19.8482ZM8.12943 19.3527C8.10265 19.4129 8.01559 19.4263 7.94193 19.3795C7.85488 19.3393 7.8147 19.2656 7.84149 19.2054C7.86827 19.1652 7.94193 19.1451 8.02899 19.1786C8.11604 19.2254 8.15622 19.2991 8.12943 19.3527Z" fill="white"/>
</svg>
