<svg width="40" height="31" viewBox="0 0 40 31" fill="none" xmlns="http://www.w3.org/2000/svg">
<g id="gmail 1">
<path id="Vector" d="M2.72727 30.0076H9.09091V14.553L0 7.73486V27.2803C0 28.7894 1.22273 30.0076 2.72727 30.0076Z" fill="#4285F4"/>
<path id="Vector_2" d="M30.9091 30.0076H37.2727C38.7818 30.0076 40 28.7849 40 27.2803V7.73486L30.9091 14.553" fill="#34A853"/>
<path id="Vector_3" d="M30.9091 2.73501V14.5532L40 7.73501V4.09865C40 0.725919 36.15 -1.19681 33.4545 0.825918" fill="#FBBC04"/>
<path id="Vector_4" d="M9.09091 14.553V2.73486L20 10.9167L30.9091 2.73486V14.553L20 22.7349" fill="#EA4335"/>
<path id="Vector_5" d="M0 4.09865V7.73501L9.09091 14.5532V2.73501L6.54545 0.825918C3.84546 -1.19681 0 0.725919 0 4.09865Z" fill="#C5221F"/>
</g>
</svg>
