<svg width="21" height="30" viewBox="0 0 21 30" fill="none" xmlns="http://www.w3.org/2000/svg">
<path id="Vector" d="M14.8619 18.3337C15.3919 17.9412 16.1275 17.6013 16.1275 17.6013C16.1275 17.6013 14.0344 18.0115 11.9521 18.199C9.40464 18.4275 6.6679 18.4744 5.29412 18.2751C2.04356 17.8064 7.07895 16.5115 7.07895 16.5115C7.07895 16.5115 5.12646 16.3709 2.71964 17.6248C-0.11987 19.113 9.75079 19.7927 14.8619 18.3337ZM10.243 16.4529C9.21534 13.951 5.74844 11.7538 10.243 7.91005C15.8495 3.11715 12.9743 0 12.9743 0C14.1372 4.95111 8.88542 6.45109 6.98701 9.52722C5.69436 11.6307 7.61981 13.8865 10.243 16.4529ZM16.4412 6.12883C16.4466 6.12883 6.96537 8.6952 11.4924 14.3436C12.8283 16.0076 11.1408 17.5076 11.1408 17.5076C11.1408 17.5076 14.532 15.6092 12.9743 13.2362C11.5194 11.0213 10.4052 9.91979 16.4412 6.12883ZM16.1113 21.9782C16.0817 22.0341 16.0453 22.0853 16.0031 22.1306C22.9423 20.156 20.3895 15.1639 17.074 16.4295C16.8949 16.5008 16.7402 16.6295 16.6305 16.7986C16.8241 16.7227 17.0231 16.6639 17.2255 16.6228C18.9021 16.242 21.3089 19.0544 16.1113 21.9782ZM18.662 25.6286C18.662 25.6286 19.4462 26.3258 17.802 26.8707C14.6704 27.8961 4.77814 28.2067 2.03058 26.9118C1.04081 26.4489 2.89596 25.7985 3.48008 25.6637C4.08584 25.5231 4.4374 25.5465 4.4374 25.5465C3.33946 24.7087 -2.66407 27.193 1.38696 27.902C12.4335 29.8473 21.5285 27.0289 18.662 25.6286ZM6.57055 23.2028C2.31399 24.4919 9.16126 27.152 14.5807 24.6383C14.0521 24.4159 13.5419 24.1454 13.0554 23.8298C10.6378 24.3278 9.51822 24.363 7.32234 24.0934C5.51047 23.8708 6.57055 23.2028 6.57055 23.2028ZM16.2952 28.8981C12.0386 29.7652 6.78689 29.6656 3.67696 29.109C3.67696 29.1031 4.31517 29.6773 7.59277 29.9059C12.5795 30.2516 20.238 29.7125 20.4165 27.1578C20.4165 27.1578 20.0704 28.1246 16.2952 28.8981ZM13.937 20.6833C10.7352 21.3513 8.88001 21.3337 6.53809 21.07C4.72622 20.865 5.9107 19.9158 5.9107 19.9158C1.21605 21.6032 8.51764 23.5134 15.0782 21.4333C14.6542 21.2711 14.2657 21.0158 13.937 20.6833Z" fill="white"/>
</svg>
