<svg width="30" height="30" viewBox="0 0 30 30" fill="none" xmlns="http://www.w3.org/2000/svg">
<path id="Vector" d="M26.7861 0H3.21468C1.44013 0 0.000396729 1.43973 0.000396729 3.21429V26.7857C0.000396729 28.5603 1.44013 30 3.21468 30H26.7861C28.5607 30 30.0004 28.5603 30.0004 26.7857V3.21429C30.0004 1.43973 28.5607 0 26.7861 0ZM16.3263 23.3973C16.3263 26.317 14.612 27.6496 12.1142 27.6496C9.85754 27.6496 8.55174 26.4844 7.88209 25.0714L10.179 23.6853C10.6209 24.4688 11.0227 25.1317 11.9937 25.1317C12.9178 25.1317 13.5071 24.7701 13.5071 23.3571V13.7746H16.3263V23.3973ZM22.9959 27.6496C20.3776 27.6496 18.6834 26.404 17.8598 24.7701L20.1566 23.4442C20.7593 24.4286 21.5495 25.1585 22.9357 25.1585C24.1008 25.1585 24.8508 24.5759 24.8508 23.7656C24.8508 22.8013 24.0875 22.4598 22.795 21.8906L22.0919 21.5893C20.0562 20.7254 18.7102 19.6339 18.7102 17.3371C18.7102 15.221 20.3241 13.6138 22.8352 13.6138C24.6299 13.6138 25.9156 14.2366 26.8397 15.8705L24.6433 17.2768C24.1611 16.4129 23.6388 16.0714 22.8285 16.0714C22.0049 16.0714 21.4825 16.5938 21.4825 17.2768C21.4825 18.1205 22.0049 18.4621 23.2169 18.9911L23.92 19.2924C26.3174 20.317 27.6633 21.3683 27.6633 23.7254C27.6633 26.2567 25.6678 27.6496 22.9959 27.6496Z" fill="white"/>
</svg>
