<svg width="30" height="31" viewBox="0 0 30 31" fill="none" xmlns="http://www.w3.org/2000/svg">
<path id="Vector" d="M27.8571 0.0078125H2.13616C0.957589 0.0078125 0 0.978795 0 2.17076V27.8449C0 29.0368 0.957589 30.0078 2.13616 30.0078H27.8571C29.0357 30.0078 30 29.0368 30 27.8449V2.17076C30 0.978795 29.0357 0.0078125 27.8571 0.0078125ZM9.06696 25.7221H4.62054V11.4051H9.07366V25.7221H9.06696ZM6.84375 9.44978C5.41741 9.44978 4.26562 8.29129 4.26562 6.87165C4.26562 5.45201 5.41741 4.29353 6.84375 4.29353C8.26339 4.29353 9.42187 5.45201 9.42187 6.87165C9.42187 8.29799 8.27009 9.44978 6.84375 9.44978ZM25.7344 25.7221H21.2879V18.7578C21.2879 17.0971 21.2545 14.9609 18.9777 14.9609C16.6607 14.9609 16.3058 16.769 16.3058 18.6373V25.7221H11.8594V11.4051H16.125V13.3605H16.1853C16.7812 12.2355 18.2344 11.0502 20.3973 11.0502C24.8973 11.0502 25.7344 14.0167 25.7344 17.8739V25.7221Z" fill="#0072B1"/>
</svg>
