<svg width="28" height="30" viewBox="0 0 28 30" fill="none" xmlns="http://www.w3.org/2000/svg">
<path id="Vector" d="M27.1846 11.2832C26.7087 9.21406 25.8062 7.65384 23.8839 7.65384H21.4053V10.8278C21.4053 13.292 19.4768 15.3679 17.2763 15.3679H10.6749C8.87 15.3679 7.37417 17.0419 7.37417 19.0039V25.8206C7.37417 27.7625 8.93181 28.9009 10.6749 29.4567C12.7641 30.1196 14.773 30.2401 17.2763 29.4567C18.939 28.9344 20.577 27.8831 20.577 25.8206V23.0953H13.9818V22.1846H23.8839C25.8062 22.1846 26.5171 20.7315 27.1846 18.5553C27.8769 16.312 27.846 14.1559 27.1846 11.2832ZM17.6904 24.91C18.3765 24.91 18.9328 25.5193 18.9328 26.2693C18.9328 27.0259 18.3765 27.6353 17.6904 27.6353C17.0105 27.6353 16.448 27.0193 16.448 26.2693C16.4542 25.5126 17.0105 24.91 17.6904 24.91ZM10.372 14.4706H16.9734C18.8092 14.4706 20.2741 12.83 20.2741 10.8345V4.01111C20.2741 2.06921 18.766 0.616137 16.9734 0.288023C14.7606 -0.107053 12.3561 -0.086964 10.372 0.294719C7.57815 0.830415 7.07129 1.94868 7.07129 4.01781V6.74316H13.6789V7.65384H4.59267C2.67035 7.65384 0.989085 8.90603 0.46369 11.2832C-0.142058 14.0085 -0.166782 15.7094 0.46369 18.5553C0.933455 20.6713 2.05224 22.1846 3.97456 22.1846H6.24303V18.9169C6.24303 16.5531 8.12826 14.4706 10.372 14.4706ZM9.95787 4.92179C9.27177 4.92179 8.71547 4.31244 8.71547 3.56246C8.72165 2.80579 9.27177 2.19644 9.95787 2.19644C10.6378 2.19644 11.2003 2.81249 11.2003 3.56246C11.2003 4.31244 10.644 4.92179 9.95787 4.92179Z" fill="white"/>
</svg>
