<svg width="36" height="30" viewBox="0 0 36 30" fill="none" xmlns="http://www.w3.org/2000/svg">
<path id="Vector" d="M35.9134 13.0312C35.9134 5.83259 27.8715 0 17.9567 0C8.04187 0 -3.05176e-05 5.83259 -3.05176e-05 13.0312C-3.05176e-05 19.4464 6.38527 24.7768 14.798 25.8549V30H20.9237V25.8817C22.4258 25.7009 23.866 25.3862 25.2136 24.9509L27.6923 30H34.6154L30.4491 22.3862C33.818 20.0156 35.9134 16.7009 35.9134 13.0312ZM7.05903 14.0022C7.05903 9.08036 13.1724 5.09598 20.7074 5.09598C28.2424 5.09598 33.8056 7.82143 33.8056 14.0022C33.8056 17.3571 32.1675 19.6942 29.4601 21.1272C29.3118 21.0201 29.1696 20.933 29.0645 20.8795C28.434 20.5312 27.3461 20.1763 27.3461 20.1763C27.3461 20.1763 32.6991 19.7478 32.6991 13.9688C32.6991 8.18973 27.0989 8.08259 27.0989 8.08259H14.798V22.0312C10.2177 20.5915 7.05903 17.5379 7.05903 14.0022ZM20.9732 16.567V12.8438C24.546 12.8438 26.4004 12.3884 26.4004 14.6719C26.4004 17.1161 24.0391 16.567 20.9732 16.567ZM20.9176 21.4219H22.5618C23.2294 21.4219 23.7301 22.2054 24.0453 22.7076C23.0501 22.8348 22.0055 22.8951 20.9176 22.9018V21.4219Z" fill="white"/>
</svg>
