<svg width="23" height="30" viewBox="0 0 23 30" fill="none" xmlns="http://www.w3.org/2000/svg">
<g id="svelte 1" clip-path="url(#clip0_58_284)">
<path id="Vector" d="M20.7315 3.96614C18.27 -0.025387 13.3695 -1.19488 9.84655 1.32207L3.63625 5.79665C1.94253 6.99156 0.768219 8.94919 0.429475 11.1611C0.135897 13.017 0.384309 14.9238 1.17471 16.5763C0.632722 17.4916 0.271395 18.5085 0.113314 19.5763C-0.248012 21.839 0.226229 24.178 1.40054 26.0339C3.88466 30.0255 8.76258 31.195 12.2855 28.678L18.4958 24.2289C20.1895 23.0339 21.3638 21.0763 21.7026 18.8644C21.9962 17.0085 21.7478 15.1017 20.9574 13.4492C21.4993 12.5339 21.8607 11.517 22.0188 10.4492C22.4027 8.16105 21.9284 5.82207 20.7315 3.96614Z" fill="white"/>
<path id="Vector_2" d="M9.23683 26.4151C7.22695 26.9999 5.12673 26.1101 3.95242 24.2033C3.22977 23.0846 2.95877 21.6863 3.16202 20.3134C3.20718 20.0846 3.25235 19.8812 3.29752 19.6524L3.41043 19.2457L3.72659 19.4999C4.47183 20.1101 5.28481 20.5677 6.16555 20.8728L6.39138 20.949L6.36879 21.2033C6.34621 21.5592 6.43654 21.9406 6.61721 22.2457C6.97853 22.8304 7.61086 23.1101 8.22059 22.9321C8.35609 22.8812 8.49159 22.8304 8.6045 22.7541L14.7922 18.305C15.1084 18.0762 15.3116 17.7457 15.3794 17.3389C15.4471 16.9321 15.3568 16.4999 15.1536 16.1694C14.7922 15.5846 14.1599 15.3304 13.5502 15.5084C13.4147 15.5592 13.2792 15.6101 13.1663 15.6863L10.795 17.3897C10.4111 17.6694 9.98206 17.8728 9.5304 17.9999C7.52052 18.5846 5.42031 17.6948 4.246 15.788C3.54593 14.6694 3.25235 13.2711 3.47818 11.8982C3.68143 10.5762 4.40408 9.38125 5.42031 8.66938L11.6306 4.22023C12.0145 3.94057 12.4436 3.73718 12.8953 3.58464C14.9051 2.99989 17.0053 3.88972 18.1797 5.7965C18.9023 6.91514 19.1733 8.31345 18.9701 9.68633C18.9249 9.91514 18.8797 10.1185 18.812 10.3473L18.6991 10.7541L18.3829 10.4999C17.6377 9.88972 16.8247 9.43209 15.944 9.12701L15.7181 9.05074L15.7407 8.7965C15.7633 8.44057 15.673 8.05921 15.4923 7.75413C15.131 7.16938 14.4986 6.91514 13.8889 7.09311C13.7534 7.14396 13.6179 7.19481 13.505 7.27108L7.31728 11.7202C7.00112 11.949 6.79787 12.2796 6.73012 12.6863C6.66237 13.0931 6.7527 13.5253 6.95595 13.8558C7.31728 14.4406 7.9496 14.6948 8.55934 14.5168C8.69484 14.466 8.83033 14.4151 8.94325 14.3389L11.3145 12.6355C11.6984 12.3558 12.1274 12.1524 12.5791 11.9999C14.589 11.4151 16.6892 12.305 17.8635 14.2118C18.5862 15.3304 18.8571 16.7287 18.6539 18.1016C18.4507 19.4236 17.728 20.6185 16.7118 21.3304L10.5015 25.7795C10.1176 26.0592 9.68848 26.2626 9.23683 26.4151Z" fill="#0A2536"/>
</g>
<defs>
<clipPath id="clip0_58_284">
<rect width="22.1538" height="30" fill="white" transform="translate(0.000396729)"/>
</clipPath>
</defs>
</svg>
