<svg width="32" height="31" viewBox="0 0 32 31" fill="none" xmlns="http://www.w3.org/2000/svg">
<g id="terps 1" clip-path="url(#clip0_97_18)">
<g id="Group">
<path id="Vector" d="M0.226388 0.0377073L0.22724 0.0381461L2.53398 6.21002L2.53223 24.5267L0.0194828 30.0639H9.63093V18.6509L13.5431 27.5037H17.3616L21.2708 18.6542V30.0639H31.0183L28.3684 24.5201V6.17777L30.636 0.0385849L21.6223 0.0385191L15.4475 14.3591L9.27855 0.0376415L0.226388 0.0377073ZM-0.245511 31.8305H-0.244657L0.586088 33.2192L-0.24765 34.632H31.2851L30.4528 33.217L31.2851 31.8305H-0.245511Z" fill="black"/>
<path id="Vector_2" d="M1.23468 0.73877L1.23426 0.739625H1.23511L1.23468 0.73877ZM1.23511 0.739625L3.23115 6.08245L3.22984 24.6803L1.10454 29.3641H8.93334V15.3456L13.9968 26.804H16.9085L21.9676 15.3478V29.3641H29.9087L27.6717 24.6803V6.05284L29.6335 0.739625H22.0791L15.4481 16.1247L8.82083 0.739625H1.23511ZM1.81072 32.3153V34.1471H3.26305V33.2235L1.86358 32.3153H1.81115H1.81072ZM3.56016 32.3153V33.1884L4.98519 34.1471H5.01337V32.3153H3.56016ZM6.51922 32.3153L6.7674 32.4776V32.3153H6.51922ZM8.8087 32.3153V33.8466L9.25502 34.1471H10.3716L10.3738 32.3153H8.8087ZM22.4394 32.3153V34.1471H23.8922V33.2235L22.4918 32.3153H22.4394ZM24.1893 32.3153V33.1884L25.6115 34.1471H25.6399V32.3153H24.1893ZM27.1451 32.3153L27.3941 32.4776V32.3153H27.1451ZM29.4346 32.3153V33.8466L29.8802 34.1471H30.4002L29.7666 33.2147L30.3958 32.3153H29.4346ZM7.05751 32.9032V34.1471H8.51007V33.8641L7.05751 32.9032ZM27.6838 32.9032V34.1471H29.1366V33.8641L27.6838 32.9032Z" fill="#FFD200"/>
<path id="Vector_3" d="M1.96642 1.24707V1.24836L3.7388 5.99053L3.73706 24.7902L1.89302 28.8532H8.4259V12.9394L14.3266 26.293H16.5778L22.4765 12.9421V28.8532H29.1024L27.1647 24.7946V5.95959L28.9036 1.24727L22.4131 1.24716L15.4479 17.4055L8.48729 1.24716L1.96642 1.24707ZM11.6133 32.3181C11.5698 32.4103 11.5353 32.5156 11.5112 32.6297C10.8928 32.667 10.4451 32.9192 10.4438 33.2242H15.508V32.3181H14.7375V32.5331H12.7759C12.7543 32.4564 12.7261 32.384 12.6953 32.3181H11.6133ZM15.508 33.2242V34.1478H16.2779V33.9196H18.2619C18.2844 34.003 18.3144 34.0776 18.3476 34.1478H19.4182C19.4641 34.0513 19.5008 33.9438 19.5266 33.8253C20.1462 33.7858 20.5936 33.5357 20.5936 33.2264V33.2242H15.508ZM20.5936 33.2242H20.679V32.3181H19.4241C19.4674 32.4103 19.5019 32.5156 19.5266 32.6297C20.1449 32.667 20.5916 32.9192 20.5936 33.2242ZM10.4438 33.2242H10.372L10.3709 34.1478H11.6192C11.5733 34.0513 11.5366 33.9438 11.5112 33.8253C10.8917 33.7858 10.4438 33.5357 10.4438 33.2264V33.2242ZM16.2779 32.3181V32.5331H18.2619C18.2831 32.4564 18.3111 32.384 18.3425 32.3181H16.2783H16.2779ZM12.7759 33.9196C12.7532 34.003 12.7233 34.0776 12.6903 34.1478H14.7375V33.9196H12.7759Z" fill="#E21833"/>
</g>
</g>
<defs>
<clipPath id="clip0_97_18">
<rect width="31.9708" height="35.0365" fill="white" transform="translate(-0.437958 -0.210938)"/>
</clipPath>
</defs>
</svg>
