<svg width="128" height="128" viewBox="0 0 128 128" fill="none" xmlns="http://www.w3.org/2000/svg">
<rect width="128" height="128" fill="white"/>
<path fill-rule="evenodd" clip-rule="evenodd" d="M73.0517 55.4152C73.0542 55.4152 77.704 55.353 80.5828 56.0124C83.1897 56.6097 85.6672 57.796 86.8596 58.0309C87.6821 58.1929 88.1806 57.9553 88.9828 57.804C89.7849 57.6528 89.9722 57.459 91.0103 57.2068L95.5 71.3904C95.3552 72.1369 94.7759 72.5101 93.7621 72.5101C93.3759 72.5101 92.531 72.5033 92.169 72.4355C91.4307 72.2971 91.4448 71.7636 91.3 70.9425C91.1552 70.1212 90.6554 67.5716 90.431 66.7621C89.8517 64.6718 88.1137 61.3871 82.9 59.8196C77.6863 58.2521 76.0448 58.3266 73.0517 58.3266C72.3971 58.3266 71.7444 58.3808 71.0932 58.4864L85.7241 101.624C86.1586 102.768 86.5448 103.788 86.8828 104.684C87.269 105.58 87.5828 106.351 87.8241 106.998C88.0172 107.496 88.4276 107.944 89.0552 108.342C89.731 108.691 90.4069 108.989 91.0828 109.238C91.8069 109.437 92.3621 109.537 92.7483 109.537C92.9414 109.537 93.0379 110.009 93.0379 110.955C93.0379 111.054 93.0138 111.179 92.9655 111.328C92.9655 111.428 92.7966 111.851 92.7483 112H76.5276C76.3345 111.801 76.2379 111.104 76.2379 110.507C76.2862 109.86 76.4069 109.537 76.6 109.537C77.1793 109.537 77.9034 109.412 78.7724 109.163C79.6414 108.914 80.1483 108.591 80.2931 108.193C80.3414 107.994 80.3655 107.795 80.3655 107.596C80.4138 107.397 80.4379 107.198 80.4379 106.998C80.4379 106.351 80.3655 105.605 80.2207 104.759C80.0759 103.863 79.9069 103.166 79.7138 102.669L79.6385 102.435C79.0925 102.905 78.1283 103.356 76.7448 103.788C75.2 104.286 73.3655 104.684 71.2414 104.983C69.1655 105.281 67.0897 105.431 65.0138 105.431C61.2 105.431 57.869 104.51 55.0207 102.669C52.1725 100.778 49.9758 98.2892 48.431 95.2037C46.8863 92.0685 46.1138 88.6842 46.1138 85.0513C46.1138 81.7668 46.8138 78.3576 48.2138 74.8243C49.6621 71.2411 51.569 68.0062 53.9345 65.1198C56.3 62.1836 59.1966 59.7947 62.6241 57.9533C63.4375 57.5225 64.2379 57.1548 65.0342 56.8435L64.9855 56.6919L65.041 56.8441C66.6907 56.2064 67.7532 55.9206 69.3343 55.6923L70.0466 55.5972C70.0484 55.597 70.052 55.5965 70.0556 55.596C70.0629 55.5952 70.0736 55.5941 70.0873 55.5925C70.115 55.5893 70.1553 55.5843 70.2055 55.5785C70.3062 55.5669 70.4471 55.551 70.6072 55.5325C70.6786 55.5242 70.7539 55.5152 70.8312 55.5062C71.5554 55.4443 72.2935 55.4152 73.0517 55.4152ZM65.7379 60.5661C63.3242 62.0093 61.1276 64.0001 59.1483 66.5381C57.169 69.0762 55.6 71.9876 54.4414 75.2722C53.2828 78.5567 52.7035 82.0156 52.7034 85.6485C52.7034 88.8335 53.2587 91.6703 54.369 94.1586C55.5276 96.6469 57.169 98.6128 59.2931 100.056C61.4655 101.499 64.0724 102.221 67.1138 102.221C70.6862 102.221 73.7276 101.4 76.2379 99.7574C76.9983 99.2674 77.6749 98.7339 78.2689 98.1582L66.1481 60.32C66.0113 60.3997 65.8745 60.4816 65.7379 60.5661Z" fill="black"/>
<path d="M56.7586 16.224L64.6704 39.5515H59.223L54.4414 26.2271L50.0502 39.9743C53.3182 39.9774 56.2097 40.0271 58.7245 40.1248C58.9659 40.1342 59.2039 40.1414 59.4379 40.1499L64.9154 40.2741C65.0239 40.2745 65.1312 40.2764 65.2367 40.2764C68.87 40.2764 71.9845 40.2257 74.5798 40.1248C77.222 40.024 79.298 39.9738 80.8079 39.9738C81.4214 39.9738 82.1295 39.8982 82.9317 39.7469C83.7338 39.5956 84.3709 39.3937 85.409 39.1415L88.6931 49.7319C88.3628 50.0849 86.1406 50.4883 85.3383 50.4883C84.9608 50.4883 84.725 50.362 84.6306 50.1098C84.2059 48.1936 83.7101 46.7564 83.1438 45.7982C82.6248 44.8402 81.8699 44.2101 80.8792 43.9075C79.8883 43.5545 78.496 43.3779 76.703 43.3779H53.8406C52.0476 43.3779 50.6558 43.5545 49.6649 43.9075C49.2889 44.0223 48.9467 44.1841 48.6387 44.3933L36.7724 81.5428C36.7676 81.5455 32.5 83.9304 32.5 81.8414C32.5 79.7514 52.193 21.7585 52.1966 21.7481C52.4862 21.0016 52.6552 20.479 52.7034 20.1804C52.8 19.8818 52.8724 19.633 52.9207 19.4339C53.0172 19.1851 53.1862 18.7869 53.4276 18.2395C53.7655 17.5428 54.1034 16.9953 54.4414 16.5972C54.7793 16.1991 55.3345 16 56.1069 16L56.7586 16.224Z" fill="black"/>
<path d="M69.9142 55.0122C67.914 55.2639 66.7549 55.5442 64.8531 56.2784L61.7552 46.6065L60.807 43.9652H66.1679L69.9142 55.0122Z" fill="black"/>
</svg>
