<svg width="463" height="625" viewBox="0 0 463 625" fill="none" xmlns="http://www.w3.org/2000/svg">
<path fill-rule="evenodd" clip-rule="evenodd" d="M280.063 267.788C280.076 267.788 305.023 267.463 320.468 270.898C334.454 274.009 347.746 280.188 354.143 281.411C358.556 282.255 361.231 281.017 365.534 280.229C369.838 279.441 370.843 278.432 376.413 277.119L400.5 350.991C399.723 354.879 396.615 356.823 391.176 356.823C389.104 356.823 384.571 356.788 382.629 356.435C378.668 355.714 378.744 352.935 377.967 348.659C377.19 344.381 374.508 331.102 373.305 326.886C370.196 315.999 360.872 298.891 332.9 290.727C304.928 282.563 296.121 282.951 280.063 282.951C276.551 282.951 273.049 283.234 269.555 283.783L348.052 508.456C350.383 514.418 352.455 519.732 354.268 524.397C356.34 529.063 358.023 533.081 359.318 536.45C360.354 539.042 362.556 541.375 365.923 543.449C369.549 545.263 373.175 546.818 376.801 548.114C380.686 549.151 383.665 549.67 385.737 549.67C386.773 549.67 387.291 552.132 387.291 557.057C387.291 557.575 387.161 558.223 386.902 559.001C386.902 559.519 385.996 561.722 385.737 562.5H298.712C297.675 561.463 297.157 557.834 297.157 554.724C297.416 551.354 298.064 549.67 299.1 549.67C302.208 549.67 306.093 549.022 310.755 547.726C315.417 546.43 318.137 544.745 318.914 542.671C319.173 541.634 319.302 540.597 319.302 539.561C319.561 538.524 319.691 537.487 319.691 536.45C319.691 533.081 319.302 529.193 318.525 524.786C317.748 520.121 316.842 516.492 315.806 513.9L315.402 512.682C312.472 515.128 307.3 517.481 299.877 519.732C291.589 522.324 281.747 524.397 270.351 525.953C259.213 527.508 248.076 528.285 236.939 528.285C216.478 528.285 198.607 523.49 183.325 513.9C168.044 504.05 156.259 491.09 147.971 475.019C139.683 458.69 135.539 441.064 135.539 422.142C135.539 405.035 139.295 387.279 146.806 368.876C154.576 350.214 164.807 333.365 177.498 318.332C190.189 303.039 205.729 290.597 224.118 281.007C228.482 278.763 232.777 276.848 237.048 275.227L236.787 274.437L237.085 275.23C245.936 271.909 251.636 270.42 260.119 269.231L263.94 268.735C263.95 268.734 263.969 268.732 263.989 268.729C264.028 268.725 264.085 268.719 264.159 268.711C264.308 268.694 264.524 268.668 264.793 268.638C265.333 268.578 266.089 268.495 266.948 268.398C267.331 268.355 267.735 268.308 268.15 268.262C272.035 267.939 275.995 267.788 280.063 267.788ZM240.824 294.615C227.874 302.132 216.089 312.5 205.47 325.719C194.851 338.938 186.433 354.102 180.217 371.209C174.001 388.316 170.893 406.331 170.893 425.253C170.893 441.841 173.872 456.616 179.829 469.576C186.045 482.536 194.851 492.775 206.247 500.292C217.902 507.808 231.889 511.567 248.206 511.567C267.372 511.567 283.689 507.29 297.157 498.736C301.237 496.185 304.867 493.406 308.054 490.408L243.025 293.333C242.291 293.748 241.557 294.175 240.824 294.615Z" fill="black"/>
<path d="M192.649 63.6664L235.097 185.164H205.871L180.217 115.766L156.658 187.366C174.191 187.382 189.704 187.641 203.197 188.15C204.492 188.199 205.768 188.236 207.024 188.281L236.411 188.928C236.994 188.93 237.569 188.94 238.135 188.94C257.628 188.94 274.338 188.675 288.261 188.15C302.437 187.625 313.575 187.363 321.676 187.363C324.967 187.363 328.766 186.97 333.07 186.182C337.374 185.394 340.792 184.342 346.361 183.029L363.98 238.187C362.208 240.026 350.286 242.126 345.982 242.127C343.956 242.127 342.691 241.469 342.185 240.155C339.906 230.175 337.246 222.689 334.208 217.699C331.424 212.709 327.374 209.427 322.058 207.851C316.742 206.013 309.272 205.093 299.652 205.093H176.994C167.374 205.093 159.907 206.013 154.591 207.851C152.574 208.449 150.738 209.292 149.085 210.382L85.4218 403.869C85.3961 403.883 62.5 416.304 62.5 405.424C62.5 394.538 168.154 92.4924 168.174 92.4378C169.728 88.5498 170.634 85.8281 170.893 84.2729C171.411 82.7177 171.8 81.4217 172.059 80.3849C172.577 79.0889 173.483 77.0153 174.778 74.1641C176.591 70.5353 178.404 67.684 180.217 65.6104C182.03 63.5368 185.009 62.5 189.153 62.5L192.649 63.6664Z" fill="black"/>
<path d="M263.23 265.689C252.499 267 246.28 268.459 236.077 272.283L219.456 221.909L214.369 208.152H243.131L263.23 265.689Z" fill="black"/>
</svg>
