<svg width="486" height="267" viewBox="0 0 486 267" fill="none" xmlns="http://www.w3.org/2000/svg">
<path fill-rule="evenodd" clip-rule="evenodd" d="M99.3117 33.8731C95.7794 33.8731 93.3671 30.3054 94.6859 27.0319L104.319 3.12142C105.079 1.23544 106.91 0 108.945 0H158.51C160.549 0 162.383 1.2409 163.14 3.13301L172.703 27.0434C174.012 30.3153 171.6 33.8731 168.073 33.8731H99.3117ZM93.2909 38.8545C91.2559 38.8545 89.425 40.0899 88.6652 41.9759L79.0319 65.8863C77.7131 69.1599 80.1254 72.7276 83.6576 72.7276H183.614C187.142 72.7276 189.553 69.1697 188.245 65.8979L178.681 41.9874C177.924 40.0954 176.09 38.8545 174.05 38.8545H93.2909ZM68.0036 111.582C64.4714 111.582 62.0591 108.014 63.3778 104.741L73.0112 80.8304C73.771 78.9444 75.6018 77.709 77.6369 77.709H189.592C191.631 77.709 193.465 78.9499 194.222 80.8419L203.786 104.753C205.094 108.024 202.682 111.582 199.156 111.582H146.652C144.508 111.582 142.603 110.213 141.931 108.18C140.557 104.017 139.184 99.7434 137.81 95.3572C136.333 90.6432 129.461 90.567 127.879 95.2465C127.824 95.4105 127.768 95.5745 127.712 95.7385C126.286 99.9417 124.798 104.145 123.248 108.349C122.53 110.296 120.669 111.582 118.591 111.582H68.0036ZM61.9829 116.563C59.9477 116.563 58.117 117.799 57.3571 119.685L47.7238 143.595C46.405 146.869 48.8173 150.437 52.3495 150.437H104.187C106.257 150.437 108.111 149.159 108.847 147.226L114.508 132.355C115.648 129.246 116.757 126.197 117.835 123.209C119.003 119.971 116.597 116.563 113.151 116.563H61.9829ZM36.6955 189.291C33.1633 189.291 30.751 185.723 32.0698 182.45L41.7031 158.539C42.4629 156.653 44.2937 155.418 46.3288 155.418H99.8994C102.714 155.418 104.656 158.232 103.656 160.861C102.656 163.488 104.599 166.303 107.413 166.303H157.646C160.461 166.303 162.402 163.488 161.4 160.861C160.398 158.233 162.34 155.418 165.155 155.418H220.674C222.713 155.418 224.547 156.659 225.304 158.551L234.868 182.462C236.176 185.733 233.764 189.291 230.238 189.291H36.6955ZM30.6747 194.272C28.6397 194.272 26.8089 195.508 26.049 197.394L16.4157 221.304C15.097 224.578 17.5093 228.146 21.0415 228.146H74.6015C76.6715 228.146 78.5263 226.868 79.2622 224.935L81.484 219.099C82.2198 217.167 84.0747 215.888 86.1446 215.888H178.954C181.023 215.888 182.877 217.165 183.614 219.096L185.842 224.938C186.579 226.869 188.433 228.146 190.501 228.146H245.778C249.305 228.146 251.718 224.588 250.408 221.316L240.844 197.406C240.089 195.514 238.255 194.272 236.214 194.272H30.6747ZM5.38747 267C1.85524 267 -0.557115 263.432 0.761735 260.159L10.3949 236.248C11.1549 234.362 12.9856 233.127 15.0207 233.127H68.9121C72.4034 233.127 74.8138 236.619 73.5727 239.879L64.4696 263.789C63.7337 265.723 61.879 267 59.8089 267H5.38747ZM261.319 267C264.846 267 267.258 263.442 265.95 260.171L256.386 236.26C255.629 234.368 253.795 233.127 251.756 233.127H196.202C192.709 233.127 190.299 236.622 191.542 239.882L200.663 263.792C201.399 265.724 203.253 267 205.322 267H261.319ZM219.326 143.607C220.635 146.879 218.223 150.437 214.696 150.437H160.861C158.791 150.437 156.937 149.16 156.2 147.229L150.237 131.593C149.332 128.93 148.365 126.171 147.332 123.318C146.147 120.044 148.557 116.563 152.042 116.563H205.132C207.172 116.563 209.006 117.805 209.763 119.697L219.326 143.607Z" fill="white"/>
<path fill-rule="evenodd" clip-rule="evenodd" d="M159.563 33.8731C156.81 33.8731 154.577 31.6429 154.577 28.8918V4.98134C154.577 2.23023 156.81 0 159.563 0H378.962H379.263H388.935V0.996269H382.255C383.466 1.90509 384.25 3.35185 384.25 4.98134V28.8918C384.25 31.6429 382.017 33.8731 379.263 33.8731H159.563ZM159.563 38.8545C156.81 38.8545 154.577 41.0847 154.577 43.8358V52.6143C154.577 55.3654 156.81 57.5957 159.563 57.5957H175.519V72.7276H239.345V72.7111C239.479 72.722 239.616 72.7276 239.753 72.7276H296.347C299.101 72.7276 301.334 70.4974 301.334 67.7463V62.577C301.334 59.8259 303.566 57.5957 306.32 57.5957H379.263C382.017 57.5957 384.25 55.3654 384.25 52.6143V43.8358C384.25 41.0847 382.017 38.8545 379.263 38.8545H159.563ZM239.753 111.582C237 111.582 234.767 109.351 234.767 106.601V82.6903C234.767 79.9392 237 77.709 239.753 77.709H296.347C299.101 77.709 301.334 79.9392 301.334 82.6903V106.601C301.334 109.351 299.101 111.582 296.347 111.582H239.753ZM239.753 116.563C237 116.563 234.767 118.794 234.767 121.545V145.455C234.767 148.206 237 150.437 239.753 150.437H296.347C299.101 150.437 301.334 148.206 301.334 145.455V121.545C301.334 118.794 299.101 116.563 296.347 116.563H239.753ZM234.867 185.306C234.802 184.984 234.767 184.65 234.767 184.31V160.399C234.767 157.649 237 155.418 239.753 155.418H296.347C299.101 155.418 301.334 157.649 301.334 160.399V184.31C301.334 187.06 299.101 189.291 296.347 189.291H241.339H239.753H227.377V185.306H234.867ZM236.762 195.269C235.551 196.177 234.767 197.624 234.767 199.254V223.164C234.767 225.915 237 228.146 239.753 228.146H296.347C299.101 228.146 301.334 225.915 301.334 223.164V199.254C301.334 196.503 299.101 194.272 296.347 194.272H242.336H239.753H233.361V195.269H236.762ZM239.753 267C237 267 234.767 264.769 234.767 262.019V238.108C234.767 235.357 237 233.127 239.753 233.127H296.347C299.101 233.127 301.334 235.357 301.334 238.108V262.019C301.334 264.769 299.101 267 296.347 267H239.753Z" fill="white"/>
<path fill-rule="evenodd" clip-rule="evenodd" d="M388.605 0C368.867 0 350.503 3.31906 333.514 9.95719C318.539 15.8956 324.337 33.8731 340.449 33.8731H453.73C462.609 33.8731 466.346 23.6633 458.687 19.1768C448.443 12.7845 437.324 7.99033 425.332 4.7942C413.339 1.59806 401.097 0 388.605 0ZM296.47 72.7276C281.601 72.7276 272.31 57.0917 282.104 45.9137C282.445 45.5249 282.788 45.138 283.133 44.7531C286.627 40.8608 291.705 38.8545 296.938 38.8545H481.928C482.732 38.8545 483.502 39.1912 484.037 39.7918C484.986 40.8583 484.96 42.4642 484.007 43.5274L463.769 66.0969C459.986 70.3164 454.583 72.7276 448.913 72.7276H437.872C433.804 72.7276 429.869 71.4237 426.364 69.3592C424.32 68.1546 422.227 67.039 420.086 66.0125C410.591 61.3412 399.973 59.0055 388.23 59.0055C378.236 59.0055 368.742 60.7266 359.747 64.1685C356.28 65.533 352.991 67.1486 349.878 69.0153C346.172 71.2371 342.02 72.7276 337.698 72.7276H296.47ZM264.567 77.709C262.774 77.709 261.142 78.7513 260.433 80.395C259.238 83.2697 258.149 86.1908 257.166 89.1582C253.34 100.7 262.796 111.582 274.966 111.582H309.427C314.838 111.582 319.461 107.89 321.521 102.891C325.268 93.7942 330.39 85.9268 336.886 79.2886C337.455 78.7075 337.05 77.709 336.236 77.709H264.567ZM250.315 133.5C250.315 123.839 258.55 116.563 268.22 116.563H300.052C309.087 116.563 315.899 124.843 315.899 133.869C315.899 142.562 309.31 150.437 300.608 150.437H268.16C258.508 150.437 250.315 143.142 250.315 133.5ZM274.656 155.418C262.559 155.418 253.124 166.167 256.683 177.715C257.689 180.978 258.814 184.187 260.059 187.342C260.552 188.529 261.718 189.291 263.004 189.291H336.563C337.003 189.291 337.211 188.745 336.886 188.449C330.141 181.811 324.893 173.944 321.146 164.847C319.12 159.436 314.203 155.418 308.419 155.418H274.656ZM295.091 228.146C289.663 228.146 284.407 225.985 280.914 221.834C280.657 221.529 280.403 221.224 280.15 220.918C270.802 209.6 280.174 194.272 294.862 194.272H337.941C342.007 194.272 345.938 195.584 349.467 197.603C353.262 199.773 357.313 201.638 361.621 203.2C371.365 206.642 382.109 208.364 393.851 208.364C401.596 208.364 408.967 207.38 415.963 205.413C423.208 203.2 429.955 200.127 436.201 196.193C438.129 194.979 440.344 194.272 442.624 194.272H450.28C456.068 194.272 461.456 197.222 464.571 202.096C471.775 213.37 463.669 228.146 450.28 228.146H295.091ZM338.386 233.127C322.059 233.127 316.121 251.316 331.265 257.412C348.005 263.804 366.243 267 385.981 267C398.973 267 411.716 265.525 424.207 262.575C436.949 259.379 448.443 255.076 458.687 249.667C468.232 244.747 464.02 233.127 453.279 233.127H338.386Z" fill="url(#paint0_linear_8_183)"/>
<defs>
<linearGradient id="paint0_linear_8_183" x1="367.525" y1="0" x2="367.525" y2="267" gradientUnits="userSpaceOnUse">
<stop stop-color="#FF8A00"/>
<stop offset="0.630208" stop-color="#FF00E5"/>
<stop offset="1" stop-color="#370B7E"/>
</linearGradient>
</defs>
</svg>
