<svg width="236" height="268" viewBox="0 0 236 268" fill="none" xmlns="http://www.w3.org/2000/svg">
<path fill-rule="evenodd" clip-rule="evenodd" d="M138.669 0C118.877 0 100.463 3.33149 83.4268 9.99448C68.4105 15.9551 74.2252 34 90.3811 34H203.972C212.876 34 216.623 23.7519 208.943 19.2486C198.671 12.8324 187.522 8.02026 175.497 4.81216C163.471 1.60405 151.195 0 138.669 0ZM46.2824 73C31.3723 73 22.0565 57.3055 31.8762 46.0857C32.2178 45.6954 32.5618 45.3071 32.9083 44.9207C36.4115 41.0138 41.5036 39 46.7511 39H232.248C233.054 39 233.826 39.338 234.362 39.9408C235.314 41.0113 235.288 42.6232 234.332 43.6904L214.039 66.3445C210.246 70.5798 204.828 73 199.142 73H188.071C183.992 73 180.046 71.6912 176.532 69.619C174.482 68.4099 172.383 67.2901 170.236 66.2597C160.715 61.5709 150.068 59.2265 138.293 59.2265C128.272 59.2265 118.752 60.954 109.732 64.4088C106.256 65.7784 102.958 67.4001 99.836 69.2738C96.1205 71.5039 91.9568 73 87.6235 73H46.2824ZM14.2908 78C12.4944 78 10.8571 79.0462 10.1465 80.6961C8.94811 83.5816 7.85588 86.5136 6.8698 89.4921C3.03441 101.077 12.5162 112 24.7194 112H59.2742C64.7001 112 69.3362 108.294 71.4013 103.276C75.1592 94.1455 80.2951 86.2486 86.8089 79.5856C87.3792 79.0023 86.9728 78 86.1571 78H14.2908ZM0 134C0 124.303 8.2581 117 17.9553 117H49.8735C58.9326 117 65.7643 125.311 65.7643 134.37C65.7643 143.096 59.1567 151 50.4313 151H17.8937C8.21608 151 0 143.678 0 134ZM24.4079 156C12.2785 156 2.81664 166.789 6.3864 178.381C7.39503 181.656 8.52313 184.877 9.7707 188.044C10.2653 189.235 11.4347 190 12.7243 190H86.485C86.9256 190 87.134 189.452 86.8089 189.155C80.0446 182.492 74.7834 174.595 71.0255 165.464C68.994 160.033 64.0632 156 58.2644 156H24.4079ZM44.8994 229C39.4556 229 34.1863 226.831 30.6828 222.665C30.4259 222.359 30.1706 222.053 29.9167 221.745C20.5438 210.385 29.9407 195 44.6685 195H87.8663C91.9443 195 95.8849 196.317 99.4241 198.343C103.229 200.521 107.291 202.393 111.611 203.961C121.382 207.416 132.155 209.144 143.93 209.144C151.696 209.144 159.087 208.157 166.102 206.182C173.367 203.961 180.132 200.877 186.395 196.928C188.329 195.709 190.55 195 192.836 195H200.513C206.317 195 211.72 197.961 214.843 202.853C222.067 214.169 213.939 229 200.513 229H44.8994ZM88.3127 234C71.9411 234 65.9868 252.257 81.172 258.376C97.9575 264.792 116.246 268 136.038 268C149.066 268 161.843 266.519 174.369 263.558C187.146 260.35 198.671 256.031 208.943 250.602C218.514 245.664 214.291 234 203.52 234H88.3127Z" fill="url(#paint0_linear_9_2)"/>
<defs>
<linearGradient id="paint0_linear_9_2" x1="117.531" y1="0" x2="117.531" y2="268" gradientUnits="userSpaceOnUse">
<stop stop-color="#FF8A00"/>
<stop offset="0.630208" stop-color="#FF00E5"/>
<stop offset="1" stop-color="#370B7E"/>
</linearGradient>
</defs>
</svg>
