<svg width="320" height="320" viewBox="0 0 320 320" fill="none" xmlns="http://www.w3.org/2000/svg">
<circle cx="160" cy="160" r="160" fill="#1E1E1E"/>
<path fill-rule="evenodd" clip-rule="evenodd" d="M160.768 37C142.675 37 125.841 40.0456 110.267 46.1367V46.1367C96.5395 51.5858 101.855 68.0821 116.625 68.0821H220.467C228.607 68.0821 232.033 58.7135 225.011 54.5967V54.5967C215.621 48.7311 205.429 44.332 194.436 41.3992C183.442 38.4664 172.22 37 160.768 37ZM77.4472 103.735C63.2957 103.735 54.464 88.848 63.8849 78.2882V78.2882C67.2005 74.5718 72.0445 72.653 77.0249 72.653H246.316C247.054 72.653 247.759 72.962 248.249 73.5131V73.5131C249.12 74.4916 249.096 75.9652 248.222 76.9408L230.182 97.0796C226.388 101.315 220.971 103.735 215.285 103.735H206.469C202.389 103.735 198.446 102.42 194.918 100.373C193.191 99.3708 191.427 98.4376 189.626 97.5732C180.923 93.2868 171.189 91.1437 160.425 91.1437C151.263 91.1437 142.56 92.7228 134.315 95.8812C131.32 97.0614 128.468 98.4464 125.761 100.036C122.024 102.23 117.864 103.735 113.531 103.735H77.4472ZM47.0644 108.306C45.4221 108.306 43.9253 109.262 43.2757 110.771V110.771C42.4334 112.799 41.6484 114.852 40.9207 116.931C36.8887 128.449 46.3818 139.388 58.585 139.388H88.1872C93.1475 139.388 97.3857 136 99.2736 131.413V131.413C102.709 123.066 107.404 115.847 113.359 109.756V109.756C113.88 109.222 113.509 108.306 112.763 108.306H47.0644ZM34 159.5V159.5C34 150.635 41.5494 143.959 50.4143 143.959H79.5933C87.875 143.959 94.1204 151.557 94.1204 159.838V159.838V159.838C94.1204 167.815 88.0798 175.041 80.1032 175.041H50.358C41.511 175.041 34 168.347 34 159.5V159.5ZM58.282 179.612C46.1525 179.612 36.6784 190.415 40.4327 201.949C41.1976 204.299 42.0308 206.618 42.9322 208.906V208.906C43.3843 209.995 44.4534 210.694 45.6323 210.694H113.063C113.466 210.694 113.656 210.193 113.359 209.921V209.921C107.175 203.83 102.365 196.611 98.93 188.264V188.264C97.0729 183.299 92.5652 179.612 87.2642 179.612H58.282ZM75.2774 246.347C70.153 246.347 65.2165 244.335 61.925 240.407V240.407C53.0201 229.781 61.8343 215.265 75.698 215.265H113.788C117.866 215.265 121.804 216.588 125.359 218.586C128.702 220.464 132.26 222.088 136.033 223.457C144.965 226.616 154.813 228.195 165.578 228.195C172.678 228.195 179.434 227.292 185.847 225.488C192.489 223.457 198.673 220.637 204.398 217.028V217.028C206.166 215.913 208.197 215.265 210.287 215.265H217.305C222.611 215.265 227.55 217.972 230.405 222.444V222.444C237.009 232.789 229.578 246.347 217.305 246.347H75.2774ZM114.734 250.918C99.767 250.918 94.3238 267.608 108.206 273.202V273.202C123.551 279.067 140.27 282 158.363 282C170.273 282 181.953 280.646 193.405 277.939C205.085 275.006 215.621 271.058 225.011 266.095V266.095C233.761 261.581 229.9 250.918 220.054 250.918H114.734Z" fill="url(#paint0_linear_27_3)"/>
<defs>
<linearGradient id="paint0_linear_27_3" x1="141.445" y1="37" x2="141.445" y2="282" gradientUnits="userSpaceOnUse">
<stop stop-color="#FF8A00"/>
<stop offset="0.630208" stop-color="#FF00E5"/>
<stop offset="1" stop-color="#370B7E"/>
</linearGradient>
</defs>
</svg>
