<svg width="320" height="320" viewBox="0 0 320 320" fill="none" xmlns="http://www.w3.org/2000/svg">
<circle cx="160" cy="160" r="160" fill="white"/>
<path fill-rule="evenodd" clip-rule="evenodd" d="M160.669 26C140.877 26 122.463 29.3315 105.427 35.9945C90.4105 41.9551 96.2252 60 112.381 60H225.972C234.876 60 238.623 49.7519 230.943 45.2486C220.671 38.8324 209.522 34.0203 197.497 30.8122C185.471 27.6041 173.195 26 160.669 26ZM68.2824 99C53.3723 99 44.0565 83.3055 53.8762 72.0857C54.2178 71.6954 54.5618 71.3071 54.9083 70.9207C58.4115 67.0138 63.5036 65 68.7511 65H254.248C255.054 65 255.826 65.338 256.362 65.9408C257.314 67.0113 257.288 68.6232 256.332 69.6904L236.039 92.3445C232.246 96.5798 226.828 99 221.142 99H210.071C205.992 99 202.046 97.6912 198.532 95.619C196.482 94.4099 194.383 93.2901 192.236 92.2597C182.715 87.5709 172.068 85.2265 160.293 85.2265C150.272 85.2265 140.752 86.954 131.732 90.4088C128.256 91.7784 124.958 93.4001 121.836 95.2738C118.12 97.5039 113.957 99 109.623 99H68.2824ZM36.2908 104C34.4944 104 32.8571 105.046 32.1465 106.696C30.9481 109.582 29.8559 112.514 28.8698 115.492C25.0344 127.077 34.5162 138 46.7194 138H81.2742C86.7001 138 91.3362 134.294 93.4013 129.276C97.1592 120.145 102.295 112.249 108.809 105.586C109.379 105.002 108.973 104 108.157 104H36.2908ZM22 160C22 150.303 30.2581 143 39.9553 143H71.8735C80.9326 143 87.7643 151.311 87.7643 160.37C87.7643 169.096 81.1567 177 72.4313 177H39.8937C30.2161 177 22 169.678 22 160ZM46.4079 182C34.2785 182 24.8166 192.789 28.3864 204.381C29.395 207.656 30.5231 210.877 31.7707 214.044C32.2653 215.235 33.4347 216 34.7243 216H108.485C108.926 216 109.134 215.452 108.809 215.155C102.045 208.492 96.7834 200.595 93.0255 191.464C90.994 186.033 86.0632 182 80.2644 182H46.4079ZM66.8994 255C61.4556 255 56.1863 252.831 52.6828 248.665C52.4259 248.359 52.1706 248.053 51.9167 247.745C42.5438 236.385 51.9407 221 66.6685 221H109.866C113.944 221 117.885 222.317 121.424 224.343C125.229 226.521 129.291 228.393 133.611 229.961C143.382 233.416 154.155 235.144 165.93 235.144C173.696 235.144 181.087 234.157 188.102 232.182C195.367 229.961 202.132 226.877 208.395 222.928C210.329 221.709 212.55 221 214.836 221H222.513C228.317 221 233.72 223.961 236.843 228.853C244.067 240.169 235.939 255 222.513 255H66.8994ZM110.313 260C93.9411 260 87.9868 278.257 103.172 284.376C119.958 290.792 138.246 294 158.038 294C171.066 294 183.843 292.519 196.369 289.558C209.146 286.35 220.671 282.031 230.943 276.602C240.514 271.664 236.291 260 225.52 260H110.313Z" fill="url(#paint0_linear_27_3)"/>
<defs>
<linearGradient id="paint0_linear_27_3" x1="139.531" y1="26" x2="139.531" y2="294" gradientUnits="userSpaceOnUse">
<stop stop-color="#FF8A00"/>
<stop offset="0.630208" stop-color="#FF00E5"/>
<stop offset="1" stop-color="#370B7E"/>
</linearGradient>
</defs>
</svg>
