<svg width="576" height="559" viewBox="0 0 576 559" fill="none" xmlns="http://www.w3.org/2000/svg">
<g clip-path="url(#clip0_215_2959)">
<rect width="96" height="139.625" fill="white"/>
<path fill-rule="evenodd" clip-rule="evenodd" d="M57.1954 61.2282C57.1979 61.2282 61.9215 61.1659 64.846 61.8254C67.4943 62.4225 70.0111 63.6088 71.2224 63.8437C72.058 64.0057 72.5645 63.7681 73.3793 63.6169C74.1942 63.4656 74.3845 63.2718 75.4391 63.0197L80 77.2025C79.8529 77.9489 79.2644 78.3222 78.2345 78.3222C77.8421 78.3222 76.9839 78.3154 76.6161 78.2475C75.8661 78.1091 75.8805 77.5757 75.7333 76.7546C75.5862 75.9334 75.0785 73.3839 74.8506 72.5744C74.262 70.4843 72.4965 67.1997 67.2 65.6323C61.9035 64.0649 60.236 64.1394 57.1954 64.1394C56.5304 64.1394 55.8673 64.1936 55.2057 64.2992L70.069 107.434C70.5103 108.579 70.9027 109.599 71.246 110.495C71.6383 111.39 71.9571 112.162 72.2023 112.809C72.3985 113.306 72.8153 113.754 73.4529 114.152C74.1395 114.501 74.8261 114.799 75.5126 115.048C76.2483 115.247 76.8123 115.347 77.2046 115.347C77.4008 115.347 77.4989 115.819 77.4989 116.765C77.4989 116.864 77.4743 116.989 77.4253 117.138C77.4253 117.238 77.2536 117.661 77.2046 117.81H60.7264C60.5303 117.611 60.4322 116.914 60.4322 116.317C60.4812 115.67 60.6038 115.347 60.8 115.347C61.3885 115.347 62.1241 115.222 63.0069 114.973C63.8897 114.725 64.4046 114.401 64.5517 114.003C64.6008 113.804 64.6253 113.605 64.6253 113.406C64.6743 113.207 64.6989 113.008 64.6989 112.809C64.6989 112.162 64.6253 111.415 64.4782 110.569C64.331 109.674 64.1594 108.977 63.9632 108.479L63.8868 108.245C63.332 108.715 62.3526 109.167 60.9471 109.599C59.3778 110.097 57.5142 110.495 55.3563 110.793C53.2475 111.092 51.1387 111.241 49.0299 111.241C45.1556 111.241 41.7716 110.32 38.8782 108.479C35.9847 106.588 33.7532 104.1 32.1839 101.015C30.6146 97.8795 29.8299 94.4954 29.8299 90.8627C29.8299 87.5784 30.541 84.1694 31.9632 80.6362C33.4345 77.0533 35.3717 73.8185 37.7747 70.9322C40.1778 67.9962 43.1204 65.6074 46.6023 63.7662C47.4286 63.3353 48.2417 62.9676 49.0506 62.6564L49.0011 62.5048L49.0575 62.657C50.7334 62.0193 51.8128 61.7335 53.419 61.5052L54.1425 61.4101C54.1444 61.4099 54.1481 61.4094 54.1517 61.409C54.1591 61.4081 54.17 61.4071 54.1839 61.4055C54.2121 61.4023 54.253 61.3973 54.304 61.3915C54.4063 61.3798 54.5495 61.3639 54.7121 61.3454C54.7846 61.3371 54.8611 61.3281 54.9397 61.3192C55.6753 61.2573 56.4252 61.2282 57.1954 61.2282ZM49.7655 66.3788C47.3135 67.8219 45.082 69.8126 43.0713 72.3505C41.0606 74.8884 39.4667 77.7997 38.2897 81.0841C37.1127 84.3684 36.5242 87.8272 36.5241 91.4599C36.5241 94.6447 37.0882 97.4814 38.2161 99.9696C39.3931 102.458 41.0606 104.423 43.2184 105.867C45.4253 107.31 48.0736 108.031 51.1632 108.031C54.7923 108.031 57.882 107.21 60.4322 105.568C61.2047 105.078 61.8919 104.545 62.4954 103.969L50.1822 66.1327C50.0433 66.2124 49.9043 66.2943 49.7655 66.3788Z" fill="black"/>
<path d="M40.6437 22.0389L48.681 45.3653H43.1471L38.2897 32.0415L33.8287 45.7881C37.1487 45.7911 40.086 45.8408 42.6408 45.9385C42.886 45.9479 43.1277 45.9551 43.3655 45.9636L48.9299 46.0878C49.0402 46.0882 49.1492 46.0902 49.2563 46.0902C52.9473 46.0902 56.1113 46.0394 58.7477 45.9385C61.4318 45.8377 63.5408 45.7875 65.0747 45.7875C65.6979 45.7875 66.4173 45.7119 67.2322 45.5607C68.0471 45.4094 68.6943 45.2075 69.7489 44.9553L73.0851 55.5452C72.7495 55.8981 70.4921 56.3015 69.677 56.3015C69.2935 56.3015 69.0539 56.1752 68.958 55.9231C68.5266 54.0069 68.0229 52.5698 67.4477 51.6117C66.9205 50.6537 66.1536 50.0236 65.1471 49.721C64.1405 49.368 62.7261 49.1915 60.9046 49.1915H37.6793C35.8579 49.1915 34.444 49.368 33.4374 49.721C33.0554 49.8358 32.7078 49.9976 32.3948 50.2068L20.3402 87.3544C20.3354 87.357 16 89.7419 16 87.6529C16 85.563 36.0056 27.5732 36.0092 27.5628C36.3034 26.8163 36.4751 26.2938 36.5241 25.9952C36.6222 25.6966 36.6958 25.4478 36.7448 25.2487C36.8429 24.9999 37.0146 24.6018 37.2598 24.0544C37.6031 23.3577 37.9464 22.8103 38.2897 22.4122C38.6329 22.0141 39.1969 21.815 39.9816 21.815L40.6437 22.0389Z" fill="black"/>
<path d="M54.008 60.8252C51.9761 61.0769 50.7987 61.3571 48.8667 62.0913L45.7195 52.4199L44.7563 49.7787H50.2023L54.008 60.8252Z" fill="black"/>
<rect width="96" height="139.625" transform="translate(192 139.625) rotate(-180)" fill="black"/>
<path fill-rule="evenodd" clip-rule="evenodd" d="M134.805 78.3968C134.802 78.3968 130.078 78.4591 127.154 77.7996C124.506 77.2025 121.989 76.0162 120.778 75.7813C119.942 75.6193 119.436 75.8569 118.621 76.0081C117.806 76.1594 117.615 76.3532 116.561 76.6053L112 62.4225C112.147 61.6761 112.736 61.3028 113.766 61.3028C114.158 61.3028 115.016 61.3096 115.384 61.3775C116.134 61.5159 116.12 62.0493 116.267 62.8704C116.414 63.6916 116.921 66.2411 117.149 67.0506C117.738 69.1407 119.504 72.4253 124.8 73.9927C130.096 75.5601 131.764 75.4856 134.805 75.4856C135.47 75.4856 136.133 75.4314 136.794 75.3258L121.931 32.1908C121.49 31.0462 121.097 30.0261 120.754 29.1303C120.362 28.2346 120.043 27.4632 119.798 26.8163C119.602 26.3187 119.185 25.8708 118.547 25.4727C117.861 25.1243 117.174 24.8257 116.487 24.5769C115.752 24.3779 115.188 24.2783 114.795 24.2783C114.599 24.2783 114.501 23.8056 114.501 22.86C114.501 22.7605 114.526 22.6361 114.575 22.4868C114.575 22.3873 114.746 21.9643 114.795 21.815L131.274 21.815C131.47 22.0141 131.568 22.7108 131.568 23.3079C131.519 23.9549 131.396 24.2783 131.2 24.2783C130.611 24.2783 129.876 24.4027 128.993 24.6516C128.11 24.9004 127.595 25.2238 127.448 25.622C127.399 25.821 127.375 26.0201 127.375 26.2191C127.326 26.4182 127.301 26.6172 127.301 26.8163C127.301 27.4632 127.375 28.2097 127.522 29.0557C127.669 29.9514 127.841 30.6481 128.037 31.1458L128.113 31.3796C128.668 30.9099 129.647 30.4583 131.053 30.0261C132.622 29.5284 134.486 29.1303 136.644 28.8317C138.752 28.5332 140.861 28.3839 142.97 28.3839C146.844 28.3839 150.228 29.3045 153.122 31.1458C156.015 33.0368 158.247 35.5251 159.816 38.6104C161.385 41.7455 162.17 45.1296 162.17 48.7623C162.17 52.0466 161.459 55.4556 160.037 58.9888C158.566 62.5717 156.628 65.8065 154.225 68.6928C151.822 71.6288 148.88 74.0176 145.398 75.8588C144.571 76.2897 143.758 76.6574 142.949 76.9686L142.999 77.1202L142.943 76.968C141.267 77.6057 140.187 77.8915 138.581 78.1198L137.857 78.2149C137.856 78.2151 137.852 78.2156 137.848 78.216C137.841 78.2169 137.83 78.2179 137.816 78.2195C137.788 78.2227 137.747 78.2277 137.696 78.2335C137.594 78.2452 137.451 78.2611 137.288 78.2796C137.215 78.2878 137.139 78.2969 137.06 78.3058C136.325 78.3677 135.575 78.3968 134.805 78.3968ZM142.234 73.2462C144.687 71.8031 146.918 69.8124 148.929 67.2745C150.939 64.7366 152.533 61.8253 153.71 58.5409C154.887 55.2566 155.476 51.7978 155.476 48.1651C155.476 44.9803 154.912 42.1436 153.784 39.6554C152.607 37.1673 150.939 35.2015 148.782 33.7584C146.575 32.3152 143.926 31.5937 140.837 31.5937C137.208 31.5937 134.118 32.4148 131.568 34.057C130.795 34.5469 130.108 35.0804 129.505 35.656L141.818 73.4923C141.957 73.4126 142.096 73.3307 142.234 73.2462Z" fill="white"/>
<path d="M151.356 117.586L143.319 94.2597L148.853 94.2597L153.71 107.583L158.171 93.8369C154.851 93.8339 151.914 93.7842 149.359 93.6864C149.114 93.6771 148.872 93.6699 148.634 93.6614L143.07 93.5372C142.96 93.5368 142.851 93.5348 142.744 93.5348C139.053 93.5348 135.889 93.5856 133.252 93.6864C130.568 93.7873 128.459 93.8375 126.925 93.8375C126.302 93.8375 125.583 93.9131 124.768 94.0643C123.953 94.2156 123.306 94.4175 122.251 94.6697L118.915 84.0798C119.251 83.7269 121.508 83.3235 122.323 83.3235C122.706 83.3235 122.946 83.4498 123.042 83.7019C123.473 85.6181 123.977 87.0552 124.552 88.0133C125.08 88.9713 125.846 89.6014 126.853 89.904C127.86 90.257 129.274 90.4335 131.095 90.4335L154.321 90.4335C156.142 90.4335 157.556 90.257 158.563 89.904C158.945 89.7892 159.292 89.6274 159.605 89.4182L171.66 52.2706C171.665 52.268 176 49.8831 176 51.9721C176 54.062 155.994 112.052 155.991 112.062C155.697 112.809 155.525 113.331 155.476 113.63C155.378 113.928 155.304 114.177 155.255 114.376C155.157 114.625 154.985 115.023 154.74 115.571C154.397 116.267 154.054 116.815 153.71 117.213C153.367 117.611 152.803 117.81 152.018 117.81L151.356 117.586Z" fill="white"/>
<path d="M137.992 78.7998C140.024 78.5481 141.201 78.2678 143.133 77.5337L146.28 87.2051L147.244 89.8463L141.798 89.8463L137.992 78.7998Z" fill="white"/>
<rect width="96" height="139.625" transform="translate(192)" fill="white"/>
<path fill-rule="evenodd" clip-rule="evenodd" d="M249.195 61.2282C249.198 61.2282 253.922 61.1659 256.846 61.8254C259.494 62.4225 262.011 63.6088 263.222 63.8437C264.058 64.0057 264.564 63.7681 265.379 63.6169C266.194 63.4656 266.384 63.2718 267.439 63.0197L272 77.2025C271.853 77.9489 271.264 78.3222 270.234 78.3222C269.842 78.3222 268.984 78.3154 268.616 78.2475C267.866 78.1091 267.88 77.5757 267.733 76.7546C267.586 75.9334 267.079 73.3839 266.851 72.5744C266.262 70.4843 264.496 67.1997 259.2 65.6323C253.903 64.0649 252.236 64.1394 249.195 64.1394C248.53 64.1394 247.867 64.1936 247.206 64.2992L262.069 107.434C262.51 108.579 262.903 109.599 263.246 110.495C263.638 111.39 263.957 112.162 264.202 112.809C264.398 113.306 264.815 113.754 265.453 114.152C266.139 114.501 266.826 114.799 267.513 115.048C268.248 115.247 268.812 115.347 269.205 115.347C269.401 115.347 269.499 115.819 269.499 116.765C269.499 116.864 269.474 116.989 269.425 117.138C269.425 117.238 269.254 117.661 269.205 117.81H252.726C252.53 117.611 252.432 116.914 252.432 116.317C252.481 115.67 252.604 115.347 252.8 115.347C253.389 115.347 254.124 115.222 255.007 114.973C255.89 114.725 256.405 114.401 256.552 114.003C256.601 113.804 256.625 113.605 256.625 113.406C256.674 113.207 256.699 113.008 256.699 112.809C256.699 112.162 256.625 111.415 256.478 110.569C256.331 109.674 256.159 108.977 255.963 108.479L255.887 108.245C255.332 108.715 254.353 109.167 252.947 109.599C251.378 110.097 249.514 110.495 247.356 110.793C245.248 111.092 243.139 111.241 241.03 111.241C237.156 111.241 233.772 110.32 230.878 108.479C227.985 106.588 225.753 104.1 224.184 101.015C222.615 97.8795 221.83 94.4954 221.83 90.8627C221.83 87.5784 222.541 84.1694 223.963 80.6362C225.434 77.0533 227.372 73.8185 229.775 70.9322C232.178 67.9962 235.12 65.6074 238.602 63.7662C239.429 63.3353 240.242 62.9676 241.051 62.6564L241.001 62.5048L241.057 62.657C242.733 62.0193 243.813 61.7335 245.419 61.5052L246.143 61.4101C246.144 61.4099 246.148 61.4094 246.152 61.409C246.159 61.4081 246.17 61.4071 246.184 61.4055C246.212 61.4023 246.253 61.3973 246.304 61.3915C246.406 61.3798 246.549 61.3639 246.712 61.3454C246.785 61.3371 246.861 61.3281 246.94 61.3192C247.675 61.2573 248.425 61.2282 249.195 61.2282ZM241.766 66.3788C239.313 67.8219 237.082 69.8126 235.071 72.3505C233.061 74.8884 231.467 77.7997 230.29 81.0841C229.113 84.3684 228.524 87.8272 228.524 91.4599C228.524 94.6447 229.088 97.4814 230.216 99.9696C231.393 102.458 233.061 104.423 235.218 105.867C237.425 107.31 240.074 108.031 243.163 108.031C246.792 108.031 249.882 107.21 252.432 105.568C253.205 105.078 253.892 104.545 254.495 103.969L242.182 66.1327C242.043 66.2124 241.904 66.2943 241.766 66.3788Z" fill="black"/>
<path d="M232.644 22.0389L240.681 45.3653H235.147L230.29 32.0415L225.829 45.7881C229.149 45.7911 232.086 45.8408 234.641 45.9385C234.886 45.9479 235.128 45.9551 235.366 45.9636L240.93 46.0878C241.04 46.0882 241.149 46.0902 241.256 46.0902C244.947 46.0902 248.111 46.0394 250.748 45.9385C253.432 45.8377 255.541 45.7875 257.075 45.7875C257.698 45.7875 258.417 45.7119 259.232 45.5607C260.047 45.4094 260.694 45.2075 261.749 44.9553L265.085 55.5452C264.749 55.8981 262.492 56.3015 261.677 56.3015C261.294 56.3015 261.054 56.1752 260.958 55.9231C260.527 54.0069 260.023 52.5698 259.448 51.6117C258.92 50.6537 258.154 50.0236 257.147 49.721C256.14 49.368 254.726 49.1915 252.905 49.1915H229.679C227.858 49.1915 226.444 49.368 225.437 49.721C225.055 49.8358 224.708 49.9976 224.395 50.2068L212.34 87.3544C212.335 87.357 208 89.7419 208 87.6529C208 85.563 228.006 27.5732 228.009 27.5628C228.303 26.8163 228.475 26.2938 228.524 25.9952C228.622 25.6966 228.696 25.4478 228.745 25.2487C228.843 24.9999 229.015 24.6018 229.26 24.0544C229.603 23.3577 229.946 22.8103 230.29 22.4122C230.633 22.0141 231.197 21.815 231.982 21.815L232.644 22.0389Z" fill="black"/>
<path d="M246.008 60.8252C243.976 61.0769 242.799 61.3571 240.867 62.0913L237.72 52.4199L236.756 49.7787H242.202L246.008 60.8252Z" fill="black"/>
<rect width="96" height="139.625" transform="translate(384 139.625) rotate(-180)" fill="black"/>
<path fill-rule="evenodd" clip-rule="evenodd" d="M326.805 78.3968C326.802 78.3968 322.078 78.4591 319.154 77.7996C316.506 77.2025 313.989 76.0162 312.778 75.7813C311.942 75.6193 311.436 75.8569 310.621 76.0081C309.806 76.1594 309.615 76.3532 308.561 76.6053L304 62.4225C304.147 61.6761 304.736 61.3028 305.766 61.3028C306.158 61.3028 307.016 61.3096 307.384 61.3775C308.134 61.5159 308.12 62.0493 308.267 62.8704C308.414 63.6916 308.921 66.2411 309.149 67.0506C309.738 69.1407 311.504 72.4253 316.8 73.9927C322.096 75.5601 323.764 75.4856 326.805 75.4856C327.47 75.4856 328.133 75.4314 328.794 75.3258L313.931 32.1908C313.49 31.0462 313.097 30.0261 312.754 29.1303C312.362 28.2346 312.043 27.4632 311.798 26.8163C311.602 26.3187 311.185 25.8708 310.547 25.4727C309.861 25.1243 309.174 24.8257 308.487 24.5769C307.752 24.3779 307.188 24.2783 306.795 24.2783C306.599 24.2783 306.501 23.8056 306.501 22.86C306.501 22.7605 306.526 22.6361 306.575 22.4868C306.575 22.3873 306.746 21.9643 306.795 21.815L323.274 21.815C323.47 22.0141 323.568 22.7108 323.568 23.3079C323.519 23.9549 323.396 24.2783 323.2 24.2783C322.611 24.2783 321.876 24.4027 320.993 24.6516C320.11 24.9004 319.595 25.2238 319.448 25.622C319.399 25.821 319.375 26.0201 319.375 26.2191C319.326 26.4182 319.301 26.6172 319.301 26.8163C319.301 27.4632 319.375 28.2097 319.522 29.0557C319.669 29.9514 319.841 30.6481 320.037 31.1458L320.113 31.3796C320.668 30.9099 321.647 30.4583 323.053 30.0261C324.622 29.5284 326.486 29.1303 328.644 28.8317C330.752 28.5332 332.861 28.3839 334.97 28.3839C338.844 28.3839 342.228 29.3045 345.122 31.1458C348.015 33.0368 350.247 35.5251 351.816 38.6104C353.385 41.7455 354.17 45.1296 354.17 48.7623C354.17 52.0466 353.459 55.4556 352.037 58.9888C350.566 62.5717 348.628 65.8065 346.225 68.6928C343.822 71.6288 340.88 74.0176 337.398 75.8588C336.571 76.2897 335.758 76.6574 334.949 76.9686L334.999 77.1202L334.943 76.968C333.267 77.6057 332.187 77.8915 330.581 78.1198L329.857 78.2149C329.856 78.2151 329.852 78.2156 329.848 78.216C329.841 78.2169 329.83 78.2179 329.816 78.2195C329.788 78.2227 329.747 78.2277 329.696 78.2335C329.594 78.2452 329.451 78.2611 329.288 78.2796C329.215 78.2878 329.139 78.2969 329.06 78.3058C328.325 78.3677 327.575 78.3968 326.805 78.3968ZM334.234 73.2462C336.687 71.8031 338.918 69.8124 340.929 67.2745C342.939 64.7366 344.533 61.8253 345.71 58.5409C346.887 55.2566 347.476 51.7978 347.476 48.1651C347.476 44.9803 346.912 42.1436 345.784 39.6554C344.607 37.1673 342.939 35.2015 340.782 33.7584C338.575 32.3152 335.926 31.5937 332.837 31.5937C329.208 31.5937 326.118 32.4148 323.568 34.057C322.795 34.5469 322.108 35.0804 321.505 35.656L333.818 73.4923C333.957 73.4126 334.096 73.3307 334.234 73.2462Z" fill="white"/>
<path d="M343.356 117.586L335.319 94.2597L340.853 94.2597L345.71 107.583L350.171 93.8369C346.851 93.8339 343.914 93.7842 341.359 93.6864C341.114 93.6771 340.872 93.6699 340.634 93.6614L335.07 93.5372C334.96 93.5368 334.851 93.5348 334.744 93.5348C331.053 93.5348 327.889 93.5856 325.252 93.6864C322.568 93.7873 320.459 93.8375 318.925 93.8375C318.302 93.8375 317.583 93.9131 316.768 94.0643C315.953 94.2156 315.306 94.4175 314.251 94.6697L310.915 84.0798C311.251 83.7269 313.508 83.3235 314.323 83.3235C314.706 83.3235 314.946 83.4498 315.042 83.7019C315.473 85.6181 315.977 87.0552 316.552 88.0133C317.08 88.9713 317.846 89.6014 318.853 89.904C319.86 90.257 321.274 90.4335 323.095 90.4335L346.321 90.4335C348.142 90.4335 349.556 90.257 350.563 89.904C350.945 89.7892 351.292 89.6274 351.605 89.4182L363.66 52.2706C363.665 52.268 368 49.8831 368 51.9721C368 54.062 347.994 112.052 347.991 112.062C347.697 112.809 347.525 113.331 347.476 113.63C347.378 113.928 347.304 114.177 347.255 114.376C347.157 114.625 346.985 115.023 346.74 115.571C346.397 116.267 346.054 116.815 345.71 117.213C345.367 117.611 344.803 117.81 344.018 117.81L343.356 117.586Z" fill="white"/>
<path d="M329.992 78.7998C332.024 78.5481 333.201 78.2678 335.133 77.5337L338.28 87.2051L339.244 89.8463L333.798 89.8463L329.992 78.7998Z" fill="white"/>
<rect width="96" height="139.625" transform="translate(384)" fill="white"/>
<path fill-rule="evenodd" clip-rule="evenodd" d="M441.195 61.2282C441.198 61.2282 445.922 61.1659 448.846 61.8254C451.494 62.4225 454.011 63.6088 455.222 63.8437C456.058 64.0057 456.564 63.7681 457.379 63.6169C458.194 63.4656 458.384 63.2718 459.439 63.0197L464 77.2025C463.853 77.9489 463.264 78.3222 462.234 78.3222C461.842 78.3222 460.984 78.3154 460.616 78.2475C459.866 78.1091 459.88 77.5757 459.733 76.7546C459.586 75.9334 459.079 73.3839 458.851 72.5744C458.262 70.4843 456.496 67.1997 451.2 65.6323C445.903 64.0649 444.236 64.1394 441.195 64.1394C440.53 64.1394 439.867 64.1936 439.206 64.2992L454.069 107.434C454.51 108.579 454.903 109.599 455.246 110.495C455.638 111.39 455.957 112.162 456.202 112.809C456.398 113.306 456.815 113.754 457.453 114.152C458.139 114.501 458.826 114.799 459.513 115.048C460.248 115.247 460.812 115.347 461.205 115.347C461.401 115.347 461.499 115.819 461.499 116.765C461.499 116.864 461.474 116.989 461.425 117.138C461.425 117.238 461.254 117.661 461.205 117.81H444.726C444.53 117.611 444.432 116.914 444.432 116.317C444.481 115.67 444.604 115.347 444.8 115.347C445.389 115.347 446.124 115.222 447.007 114.973C447.89 114.725 448.405 114.401 448.552 114.003C448.601 113.804 448.625 113.605 448.625 113.406C448.674 113.207 448.699 113.008 448.699 112.809C448.699 112.162 448.625 111.415 448.478 110.569C448.331 109.674 448.159 108.977 447.963 108.479L447.887 108.245C447.332 108.715 446.353 109.167 444.947 109.599C443.378 110.097 441.514 110.495 439.356 110.793C437.248 111.092 435.139 111.241 433.03 111.241C429.156 111.241 425.772 110.32 422.878 108.479C419.985 106.588 417.753 104.1 416.184 101.015C414.615 97.8795 413.83 94.4954 413.83 90.8627C413.83 87.5784 414.541 84.1694 415.963 80.6362C417.434 77.0533 419.372 73.8185 421.775 70.9322C424.178 67.9962 427.12 65.6074 430.602 63.7662C431.429 63.3353 432.242 62.9676 433.051 62.6564L433.001 62.5048L433.057 62.657C434.733 62.0193 435.813 61.7335 437.419 61.5052L438.143 61.4101C438.144 61.4099 438.148 61.4094 438.152 61.409C438.159 61.4081 438.17 61.4071 438.184 61.4055C438.212 61.4023 438.253 61.3973 438.304 61.3915C438.406 61.3798 438.549 61.3639 438.712 61.3454C438.785 61.3371 438.861 61.3281 438.94 61.3192C439.675 61.2573 440.425 61.2282 441.195 61.2282ZM433.766 66.3788C431.313 67.8219 429.082 69.8126 427.071 72.3505C425.061 74.8884 423.467 77.7997 422.29 81.0841C421.113 84.3684 420.524 87.8272 420.524 91.4599C420.524 94.6447 421.088 97.4814 422.216 99.9696C423.393 102.458 425.061 104.423 427.218 105.867C429.425 107.31 432.074 108.031 435.163 108.031C438.792 108.031 441.882 107.21 444.432 105.568C445.205 105.078 445.892 104.545 446.495 103.969L434.182 66.1327C434.043 66.2124 433.904 66.2943 433.766 66.3788Z" fill="black"/>
<path d="M424.644 22.0389L432.681 45.3653H427.147L422.29 32.0415L417.829 45.7881C421.149 45.7911 424.086 45.8408 426.641 45.9385C426.886 45.9479 427.128 45.9551 427.366 45.9636L432.93 46.0878C433.04 46.0882 433.149 46.0902 433.256 46.0902C436.947 46.0902 440.111 46.0394 442.748 45.9385C445.432 45.8377 447.541 45.7875 449.075 45.7875C449.698 45.7875 450.417 45.7119 451.232 45.5607C452.047 45.4094 452.694 45.2075 453.749 44.9553L457.085 55.5452C456.749 55.8981 454.492 56.3015 453.677 56.3015C453.294 56.3015 453.054 56.1752 452.958 55.9231C452.527 54.0069 452.023 52.5698 451.448 51.6117C450.92 50.6537 450.154 50.0236 449.147 49.721C448.14 49.368 446.726 49.1915 444.905 49.1915H421.679C419.858 49.1915 418.444 49.368 417.437 49.721C417.055 49.8358 416.708 49.9976 416.395 50.2068L404.34 87.3544C404.335 87.357 400 89.7419 400 87.6529C400 85.563 420.006 27.5732 420.009 27.5628C420.303 26.8163 420.475 26.2938 420.524 25.9952C420.622 25.6966 420.696 25.4478 420.745 25.2487C420.843 24.9999 421.015 24.6018 421.26 24.0544C421.603 23.3577 421.946 22.8103 422.29 22.4122C422.633 22.0141 423.197 21.815 423.982 21.815L424.644 22.0389Z" fill="black"/>
<path d="M438.008 60.8252C435.976 61.0769 434.799 61.3571 432.867 62.0913L429.72 52.4199L428.756 49.7787H434.202L438.008 60.8252Z" fill="black"/>
<rect width="96" height="139.625" transform="translate(576 139.625) rotate(-180)" fill="black"/>
<path fill-rule="evenodd" clip-rule="evenodd" d="M518.805 78.3968C518.802 78.3968 514.078 78.4591 511.154 77.7996C508.506 77.2025 505.989 76.0162 504.778 75.7813C503.942 75.6193 503.436 75.8569 502.621 76.0081C501.806 76.1594 501.615 76.3532 500.561 76.6053L496 62.4225C496.147 61.6761 496.736 61.3028 497.766 61.3028C498.158 61.3028 499.016 61.3096 499.384 61.3775C500.134 61.5159 500.12 62.0493 500.267 62.8704C500.414 63.6916 500.921 66.2411 501.149 67.0506C501.738 69.1407 503.504 72.4253 508.8 73.9927C514.096 75.5601 515.764 75.4856 518.805 75.4856C519.47 75.4856 520.133 75.4314 520.794 75.3258L505.931 32.1908C505.49 31.0462 505.097 30.0261 504.754 29.1303C504.362 28.2346 504.043 27.4632 503.798 26.8163C503.602 26.3187 503.185 25.8708 502.547 25.4727C501.861 25.1243 501.174 24.8257 500.487 24.5769C499.752 24.3779 499.188 24.2783 498.795 24.2783C498.599 24.2783 498.501 23.8056 498.501 22.86C498.501 22.7605 498.526 22.6361 498.575 22.4868C498.575 22.3873 498.746 21.9643 498.795 21.815L515.274 21.815C515.47 22.0141 515.568 22.7108 515.568 23.3079C515.519 23.9549 515.396 24.2783 515.2 24.2783C514.611 24.2783 513.876 24.4027 512.993 24.6516C512.11 24.9004 511.595 25.2238 511.448 25.622C511.399 25.821 511.375 26.0201 511.375 26.2191C511.326 26.4182 511.301 26.6172 511.301 26.8163C511.301 27.4632 511.375 28.2097 511.522 29.0557C511.669 29.9514 511.841 30.6481 512.037 31.1458L512.113 31.3796C512.668 30.9099 513.647 30.4583 515.053 30.0261C516.622 29.5284 518.486 29.1303 520.644 28.8317C522.752 28.5332 524.861 28.3839 526.97 28.3839C530.844 28.3839 534.228 29.3045 537.122 31.1458C540.015 33.0368 542.247 35.5251 543.816 38.6104C545.385 41.7455 546.17 45.1296 546.17 48.7623C546.17 52.0466 545.459 55.4556 544.037 58.9888C542.566 62.5717 540.628 65.8065 538.225 68.6928C535.822 71.6288 532.88 74.0176 529.398 75.8588C528.571 76.2897 527.758 76.6574 526.949 76.9686L526.999 77.1202L526.943 76.968C525.267 77.6057 524.187 77.8915 522.581 78.1198L521.857 78.2149C521.856 78.2151 521.852 78.2156 521.848 78.216C521.841 78.2169 521.83 78.2179 521.816 78.2195C521.788 78.2227 521.747 78.2277 521.696 78.2335C521.594 78.2452 521.451 78.2611 521.288 78.2796C521.215 78.2878 521.139 78.2969 521.06 78.3058C520.325 78.3677 519.575 78.3968 518.805 78.3968ZM526.234 73.2462C528.687 71.8031 530.918 69.8124 532.929 67.2745C534.939 64.7366 536.533 61.8253 537.71 58.5409C538.887 55.2566 539.476 51.7978 539.476 48.1651C539.476 44.9803 538.912 42.1436 537.784 39.6554C536.607 37.1673 534.939 35.2015 532.782 33.7584C530.575 32.3152 527.926 31.5937 524.837 31.5937C521.208 31.5937 518.118 32.4148 515.568 34.057C514.795 34.5469 514.108 35.0804 513.505 35.656L525.818 73.4923C525.957 73.4126 526.096 73.3307 526.234 73.2462Z" fill="white"/>
<path d="M535.356 117.586L527.319 94.2597L532.853 94.2597L537.71 107.583L542.171 93.8369C538.851 93.8339 535.914 93.7842 533.359 93.6864C533.114 93.6771 532.872 93.6699 532.634 93.6614L527.07 93.5372C526.96 93.5368 526.851 93.5348 526.744 93.5348C523.053 93.5348 519.889 93.5856 517.252 93.6864C514.568 93.7873 512.459 93.8375 510.925 93.8375C510.302 93.8375 509.583 93.9131 508.768 94.0643C507.953 94.2156 507.306 94.4175 506.251 94.6697L502.915 84.0798C503.251 83.7269 505.508 83.3235 506.323 83.3235C506.706 83.3235 506.946 83.4498 507.042 83.7019C507.473 85.6181 507.977 87.0552 508.552 88.0133C509.08 88.9713 509.846 89.6014 510.853 89.904C511.86 90.257 513.274 90.4335 515.095 90.4335L538.321 90.4335C540.142 90.4335 541.556 90.257 542.563 89.904C542.945 89.7892 543.292 89.6274 543.605 89.4182L555.66 52.2706C555.665 52.268 560 49.8831 560 51.9721C560 54.062 539.994 112.052 539.991 112.062C539.697 112.809 539.525 113.331 539.476 113.63C539.378 113.928 539.304 114.177 539.255 114.376C539.157 114.625 538.985 115.023 538.74 115.571C538.397 116.267 538.054 116.815 537.71 117.213C537.367 117.611 536.803 117.81 536.018 117.81L535.356 117.586Z" fill="white"/>
<path d="M521.992 78.7998C524.024 78.5481 525.201 78.2678 527.133 77.5337L530.28 87.2051L531.244 89.8463L525.798 89.8463L521.992 78.7998Z" fill="white"/>
<rect width="96" height="139.625" transform="translate(96 279.25) rotate(-180)" fill="black"/>
<path fill-rule="evenodd" clip-rule="evenodd" d="M38.8046 218.022C38.8021 218.022 34.0785 218.084 31.154 217.425C28.5057 216.827 25.9889 215.641 24.7776 215.406C23.942 215.244 23.4355 215.482 22.6207 215.633C21.8058 215.784 21.6155 215.978 20.5609 216.23L16 202.048C16.1471 201.301 16.7356 200.928 17.7655 200.928C18.1578 200.928 19.0161 200.935 19.3839 201.002C20.1339 201.141 20.1195 201.674 20.2667 202.495C20.4138 203.317 20.9215 205.866 21.1494 206.676C21.7379 208.766 23.5035 212.05 28.8 213.618C34.0965 215.185 35.764 215.111 38.8046 215.111C39.4696 215.111 40.1327 215.056 40.7942 214.951L25.931 171.816C25.4897 170.671 25.0973 169.651 24.754 168.755C24.3617 167.86 24.0429 167.088 23.7977 166.441C23.6015 165.944 23.1847 165.496 22.5471 165.098C21.8605 164.749 21.1739 164.451 20.4874 164.202C19.7517 164.003 19.1877 163.903 18.7954 163.903C18.5992 163.903 18.5011 163.431 18.5011 162.485C18.5011 162.386 18.5257 162.261 18.5747 162.112C18.5747 162.012 18.7464 161.589 18.7954 161.44L35.2736 161.44C35.4697 161.639 35.5678 162.336 35.5678 162.933C35.5188 163.58 35.3962 163.903 35.2 163.903C34.6115 163.903 33.8759 164.028 32.9931 164.277C32.1103 164.525 31.5954 164.849 31.4483 165.247C31.3992 165.446 31.3747 165.645 31.3747 165.844C31.3257 166.043 31.3011 166.242 31.3011 166.441C31.3011 167.088 31.3747 167.835 31.5218 168.681C31.669 169.576 31.8406 170.273 32.0368 170.771L32.1132 171.005C32.668 170.535 33.6474 170.083 35.0529 169.651C36.6222 169.153 38.4858 168.755 40.6437 168.457C42.7525 168.158 44.8613 168.009 46.9701 168.009C50.8444 168.009 54.2284 168.93 57.1218 170.771C60.0153 172.662 62.2468 175.15 63.8161 178.235C65.3854 181.37 66.1701 184.755 66.1701 188.387C66.1701 191.672 65.459 195.081 64.0368 198.614C62.5655 202.197 60.6283 205.432 58.2253 208.318C55.8222 211.254 52.8796 213.643 49.3977 215.484C48.5714 215.915 47.7583 216.282 46.9494 216.594L46.9988 216.745L46.9425 216.593C45.2666 217.231 44.1872 217.516 42.581 217.745L41.8575 217.84C41.8556 217.84 41.8519 217.841 41.8483 217.841C41.8409 217.842 41.83 217.843 41.8161 217.845C41.7879 217.848 41.747 217.853 41.696 217.859C41.5937 217.87 41.4505 217.886 41.2879 217.905C41.2154 217.913 41.1389 217.922 41.0603 217.931C40.3247 217.993 39.5748 218.022 38.8046 218.022ZM46.2345 212.871C48.6865 211.428 50.918 209.437 52.9287 206.9C54.9394 204.362 56.5333 201.45 57.7103 198.166C58.8873 194.882 59.4758 191.423 59.4759 187.79C59.4759 184.605 58.9118 181.769 57.7839 179.28C56.6069 176.792 54.9394 174.827 52.7816 173.383C50.5747 171.94 47.9264 171.219 44.8368 171.219C41.2077 171.219 38.118 172.04 35.5678 173.682C34.7953 174.172 34.1081 174.705 33.5046 175.281L45.8178 213.117C45.9567 213.038 46.0957 212.956 46.2345 212.871Z" fill="white"/>
<path d="M55.3563 257.211L47.319 233.885L52.8529 233.885L57.7103 247.208L62.1713 233.462C58.8513 233.459 55.914 233.409 53.3592 233.311C53.114 233.302 52.8722 233.295 52.6345 233.286L47.0701 233.162C46.9598 233.162 46.8508 233.16 46.7437 233.16C43.0527 233.16 39.8887 233.211 37.2523 233.311C34.5682 233.412 32.4592 233.462 30.9253 233.462C30.3021 233.462 29.5827 233.538 28.7678 233.689C27.9529 233.841 27.3057 234.043 26.2511 234.295L22.9149 223.705C23.2505 223.352 25.5079 222.949 26.323 222.948C26.7065 222.948 26.9461 223.075 27.0419 223.327C27.4734 225.243 27.9771 226.68 28.5523 227.638C29.0795 228.596 29.8464 229.226 30.8529 229.529C31.8595 229.882 33.2739 230.059 35.0954 230.059L58.3207 230.059C60.1421 230.058 61.556 229.882 62.5626 229.529C62.9446 229.414 63.2922 229.252 63.6052 229.043L75.6598 191.896C75.6647 191.893 80 189.508 80 191.597C80 193.687 59.9944 251.677 59.9908 251.687C59.6965 252.434 59.5249 252.956 59.4759 253.255C59.3778 253.553 59.3042 253.802 59.2552 254.001C59.1571 254.25 58.9854 254.648 58.7402 255.196C58.3969 255.892 58.0536 256.44 57.7103 256.838C57.367 257.236 56.8031 257.435 56.0184 257.435L55.3563 257.211Z" fill="white"/>
<path d="M41.9919 218.425C44.0239 218.173 45.2013 217.893 47.1333 217.159L50.2805 226.83L51.2437 229.471L45.7977 229.471L41.9919 218.425Z" fill="white"/>
<rect width="95" height="139.625" transform="translate(96 139.625)" fill="white"/>
<path fill-rule="evenodd" clip-rule="evenodd" d="M152.552 200.853C152.554 200.853 157.204 200.791 160.083 201.45C162.69 202.048 165.167 203.234 166.36 203.469C167.182 203.631 167.681 203.393 168.483 203.242C169.285 203.091 169.472 202.897 170.51 202.645L175 216.827C174.855 217.574 174.276 217.947 173.262 217.947C172.876 217.947 172.031 217.94 171.669 217.873C170.931 217.734 170.945 217.201 170.8 216.38C170.655 215.558 170.155 213.009 169.931 212.199C169.352 210.109 167.614 206.825 162.4 205.257C157.186 203.69 155.545 203.764 152.552 203.764C151.897 203.764 151.244 203.819 150.593 203.924L165.224 247.059C165.659 248.204 166.045 249.224 166.383 250.12C166.769 251.015 167.083 251.787 167.324 252.434C167.517 252.931 167.928 253.379 168.555 253.777C169.231 254.126 169.907 254.424 170.583 254.673C171.307 254.872 171.862 254.972 172.248 254.972C172.441 254.972 172.538 255.444 172.538 256.39C172.538 256.489 172.514 256.614 172.466 256.763C172.466 256.863 172.297 257.286 172.248 257.435H156.028C155.834 257.236 155.738 256.539 155.738 255.942C155.786 255.295 155.907 254.972 156.1 254.972C156.679 254.972 157.403 254.847 158.272 254.598C159.141 254.35 159.648 254.026 159.793 253.628C159.841 253.429 159.866 253.23 159.866 253.031C159.914 252.832 159.938 252.633 159.938 252.434C159.938 251.787 159.866 251.04 159.721 250.194C159.576 249.299 159.407 248.602 159.214 248.104L159.139 247.87C158.592 248.34 157.628 248.792 156.245 249.224C154.7 249.722 152.866 250.12 150.741 250.418C148.666 250.717 146.59 250.866 144.514 250.866C140.7 250.866 137.369 249.945 134.521 248.104C131.672 246.213 129.476 243.725 127.931 240.64C126.386 237.505 125.614 234.12 125.614 230.488C125.614 227.203 126.314 223.794 127.714 220.261C129.162 216.678 131.069 213.443 133.434 210.557C135.8 207.621 138.697 205.232 142.124 203.391C142.938 202.96 143.738 202.593 144.534 202.281L144.486 202.13L144.541 202.282C146.191 201.644 147.253 201.359 148.834 201.13L149.547 201.035C149.548 201.035 149.552 201.034 149.556 201.034C149.563 201.033 149.574 201.032 149.587 201.03C149.615 201.027 149.655 201.022 149.706 201.016C149.806 201.005 149.947 200.989 150.107 200.97C150.179 200.962 150.254 200.953 150.331 200.944C151.055 200.882 151.794 200.853 152.552 200.853ZM145.238 206.004C142.824 207.447 140.628 209.438 138.648 211.975C136.669 214.513 135.1 217.425 133.941 220.709C132.783 223.993 132.203 227.452 132.203 231.085C132.203 234.27 132.759 237.106 133.869 239.595C135.028 242.083 136.669 244.048 138.793 245.492C140.966 246.935 143.572 247.656 146.614 247.656C150.186 247.656 153.228 246.835 155.738 245.193C156.498 244.703 157.175 244.17 157.769 243.594L145.648 205.758C145.511 205.837 145.375 205.919 145.238 206.004Z" fill="black"/>
<path d="M136.259 161.664L144.17 184.99H138.723L133.941 171.667L129.55 185.413C132.818 185.416 135.71 185.466 138.225 185.564C138.466 185.573 138.704 185.58 138.938 185.589L144.415 185.713C144.524 185.713 144.631 185.715 144.737 185.715C148.37 185.715 151.485 185.664 154.08 185.564C156.722 185.463 158.798 185.413 160.308 185.413C160.921 185.413 161.63 185.337 162.432 185.186C163.234 185.034 163.871 184.832 164.909 184.58L168.193 195.17C167.863 195.523 165.641 195.926 164.838 195.927C164.461 195.927 164.225 195.8 164.131 195.548C163.706 193.632 163.21 192.195 162.644 191.237C162.125 190.279 161.37 189.649 160.379 189.346C159.388 188.993 157.996 188.816 156.203 188.816H133.341C131.548 188.817 130.156 188.993 129.165 189.346C128.789 189.461 128.447 189.623 128.139 189.832L116.272 226.979C116.268 226.982 112 229.367 112 227.278C112 225.188 131.693 167.198 131.697 167.188C131.986 166.441 132.155 165.919 132.203 165.62C132.3 165.322 132.372 165.073 132.421 164.874C132.517 164.625 132.686 164.227 132.928 163.679C133.266 162.983 133.603 162.435 133.941 162.037C134.279 161.639 134.834 161.44 135.607 161.44L136.259 161.664Z" fill="black"/>
<path d="M149.414 200.45C147.414 200.702 146.255 200.982 144.353 201.716L141.255 192.045L140.307 189.404H145.668L149.414 200.45Z" fill="black"/>
<rect width="96" height="139.625" transform="translate(288 279.25) rotate(-180)" fill="black"/>
<path fill-rule="evenodd" clip-rule="evenodd" d="M230.805 218.022C230.802 218.022 226.078 218.084 223.154 217.425C220.506 216.827 217.989 215.641 216.778 215.406C215.942 215.244 215.436 215.482 214.621 215.633C213.806 215.784 213.615 215.978 212.561 216.23L208 202.048C208.147 201.301 208.736 200.928 209.766 200.928C210.158 200.928 211.016 200.935 211.384 201.002C212.134 201.141 212.12 201.674 212.267 202.495C212.414 203.317 212.921 205.866 213.149 206.676C213.738 208.766 215.504 212.05 220.8 213.618C226.096 215.185 227.764 215.111 230.805 215.111C231.47 215.111 232.133 215.056 232.794 214.951L217.931 171.816C217.49 170.671 217.097 169.651 216.754 168.755C216.362 167.86 216.043 167.088 215.798 166.441C215.602 165.944 215.185 165.496 214.547 165.098C213.861 164.749 213.174 164.451 212.487 164.202C211.752 164.003 211.188 163.903 210.795 163.903C210.599 163.903 210.501 163.431 210.501 162.485C210.501 162.386 210.526 162.261 210.575 162.112C210.575 162.012 210.746 161.589 210.795 161.44L227.274 161.44C227.47 161.639 227.568 162.336 227.568 162.933C227.519 163.58 227.396 163.903 227.2 163.903C226.611 163.903 225.876 164.028 224.993 164.277C224.11 164.525 223.595 164.849 223.448 165.247C223.399 165.446 223.375 165.645 223.375 165.844C223.326 166.043 223.301 166.242 223.301 166.441C223.301 167.088 223.375 167.835 223.522 168.681C223.669 169.576 223.841 170.273 224.037 170.771L224.113 171.005C224.668 170.535 225.647 170.083 227.053 169.651C228.622 169.153 230.486 168.755 232.644 168.457C234.752 168.158 236.861 168.009 238.97 168.009C242.844 168.009 246.228 168.93 249.122 170.771C252.015 172.662 254.247 175.15 255.816 178.235C257.385 181.37 258.17 184.755 258.17 188.387C258.17 191.672 257.459 195.081 256.037 198.614C254.566 202.197 252.628 205.432 250.225 208.318C247.822 211.254 244.88 213.643 241.398 215.484C240.571 215.915 239.758 216.282 238.949 216.594L238.999 216.745L238.943 216.593C237.267 217.231 236.187 217.516 234.581 217.745L233.857 217.84C233.856 217.84 233.852 217.841 233.848 217.841C233.841 217.842 233.83 217.843 233.816 217.845C233.788 217.848 233.747 217.853 233.696 217.859C233.594 217.87 233.451 217.886 233.288 217.905C233.215 217.913 233.139 217.922 233.06 217.931C232.325 217.993 231.575 218.022 230.805 218.022ZM238.234 212.871C240.687 211.428 242.918 209.437 244.929 206.9C246.939 204.362 248.533 201.45 249.71 198.166C250.887 194.882 251.476 191.423 251.476 187.79C251.476 184.605 250.912 181.769 249.784 179.28C248.607 176.792 246.939 174.827 244.782 173.383C242.575 171.94 239.926 171.219 236.837 171.219C233.208 171.219 230.118 172.04 227.568 173.682C226.795 174.172 226.108 174.705 225.505 175.281L237.818 213.117C237.957 213.038 238.096 212.956 238.234 212.871Z" fill="white"/>
<path d="M247.356 257.211L239.319 233.885L244.853 233.885L249.71 247.208L254.171 233.462C250.851 233.459 247.914 233.409 245.359 233.311C245.114 233.302 244.872 233.295 244.634 233.286L239.07 233.162C238.96 233.162 238.851 233.16 238.744 233.16C235.053 233.16 231.889 233.211 229.252 233.311C226.568 233.412 224.459 233.462 222.925 233.462C222.302 233.462 221.583 233.538 220.768 233.689C219.953 233.841 219.306 234.043 218.251 234.295L214.915 223.705C215.251 223.352 217.508 222.949 218.323 222.948C218.706 222.948 218.946 223.075 219.042 223.327C219.473 225.243 219.977 226.68 220.552 227.638C221.08 228.596 221.846 229.226 222.853 229.529C223.86 229.882 225.274 230.059 227.095 230.059L250.321 230.059C252.142 230.058 253.556 229.882 254.563 229.529C254.945 229.414 255.292 229.252 255.605 229.043L267.66 191.896C267.665 191.893 272 189.508 272 191.597C272 193.687 251.994 251.677 251.991 251.687C251.697 252.434 251.525 252.956 251.476 253.255C251.378 253.553 251.304 253.802 251.255 254.001C251.157 254.25 250.985 254.648 250.74 255.196C250.397 255.892 250.054 256.44 249.71 256.838C249.367 257.236 248.803 257.435 248.018 257.435L247.356 257.211Z" fill="white"/>
<path d="M233.992 218.425C236.024 218.173 237.201 217.893 239.133 217.159L242.28 226.83L243.244 229.471L237.798 229.471L233.992 218.425Z" fill="white"/>
<rect width="95" height="139.625" transform="translate(288 139.625)" fill="white"/>
<path fill-rule="evenodd" clip-rule="evenodd" d="M344.552 200.853C344.554 200.853 349.204 200.791 352.083 201.45C354.69 202.048 357.167 203.234 358.36 203.469C359.182 203.631 359.681 203.393 360.483 203.242C361.285 203.091 361.472 202.897 362.51 202.645L367 216.827C366.855 217.574 366.276 217.947 365.262 217.947C364.876 217.947 364.031 217.94 363.669 217.873C362.931 217.734 362.945 217.201 362.8 216.38C362.655 215.558 362.155 213.009 361.931 212.199C361.352 210.109 359.614 206.825 354.4 205.257C349.186 203.69 347.545 203.764 344.552 203.764C343.897 203.764 343.244 203.819 342.593 203.924L357.224 247.059C357.659 248.204 358.045 249.224 358.383 250.12C358.769 251.015 359.083 251.787 359.324 252.434C359.517 252.931 359.928 253.379 360.555 253.777C361.231 254.126 361.907 254.424 362.583 254.673C363.307 254.872 363.862 254.972 364.248 254.972C364.441 254.972 364.538 255.444 364.538 256.39C364.538 256.489 364.514 256.614 364.466 256.763C364.466 256.863 364.297 257.286 364.248 257.435H348.028C347.834 257.236 347.738 256.539 347.738 255.942C347.786 255.295 347.907 254.972 348.1 254.972C348.679 254.972 349.403 254.847 350.272 254.598C351.141 254.35 351.648 254.026 351.793 253.628C351.841 253.429 351.866 253.23 351.866 253.031C351.914 252.832 351.938 252.633 351.938 252.434C351.938 251.787 351.866 251.04 351.721 250.194C351.576 249.299 351.407 248.602 351.214 248.104L351.139 247.87C350.592 248.34 349.628 248.792 348.245 249.224C346.7 249.722 344.866 250.12 342.741 250.418C340.666 250.717 338.59 250.866 336.514 250.866C332.7 250.866 329.369 249.945 326.521 248.104C323.672 246.213 321.476 243.725 319.931 240.64C318.386 237.505 317.614 234.12 317.614 230.488C317.614 227.203 318.314 223.794 319.714 220.261C321.162 216.678 323.069 213.443 325.434 210.557C327.8 207.621 330.697 205.232 334.124 203.391C334.938 202.96 335.738 202.593 336.534 202.281L336.486 202.13L336.541 202.282C338.191 201.644 339.253 201.359 340.834 201.13L341.547 201.035C341.548 201.035 341.552 201.034 341.556 201.034C341.563 201.033 341.574 201.032 341.587 201.03C341.615 201.027 341.655 201.022 341.706 201.016C341.806 201.005 341.947 200.989 342.107 200.97C342.179 200.962 342.254 200.953 342.331 200.944C343.055 200.882 343.794 200.853 344.552 200.853ZM337.238 206.004C334.824 207.447 332.628 209.438 330.648 211.975C328.669 214.513 327.1 217.425 325.941 220.709C324.783 223.993 324.203 227.452 324.203 231.085C324.203 234.27 324.759 237.106 325.869 239.595C327.028 242.083 328.669 244.048 330.793 245.492C332.966 246.935 335.572 247.656 338.614 247.656C342.186 247.656 345.228 246.835 347.738 245.193C348.498 244.703 349.175 244.17 349.769 243.594L337.648 205.758C337.511 205.837 337.375 205.919 337.238 206.004Z" fill="black"/>
<path d="M328.259 161.664L336.17 184.99H330.723L325.941 171.667L321.55 185.413C324.818 185.416 327.71 185.466 330.225 185.564C330.466 185.573 330.704 185.58 330.938 185.589L336.415 185.713C336.524 185.713 336.631 185.715 336.737 185.715C340.37 185.715 343.485 185.664 346.08 185.564C348.722 185.463 350.798 185.413 352.308 185.413C352.921 185.413 353.63 185.337 354.432 185.186C355.234 185.034 355.871 184.832 356.909 184.58L360.193 195.17C359.863 195.523 357.641 195.926 356.838 195.927C356.461 195.927 356.225 195.8 356.131 195.548C355.706 193.632 355.21 192.195 354.644 191.237C354.125 190.279 353.37 189.649 352.379 189.346C351.388 188.993 349.996 188.816 348.203 188.816H325.341C323.548 188.817 322.156 188.993 321.165 189.346C320.789 189.461 320.447 189.623 320.139 189.832L308.272 226.979C308.268 226.982 304 229.367 304 227.278C304 225.188 323.693 167.198 323.697 167.188C323.986 166.441 324.155 165.919 324.203 165.62C324.3 165.322 324.372 165.073 324.421 164.874C324.517 164.625 324.686 164.227 324.928 163.679C325.266 162.983 325.603 162.435 325.941 162.037C326.279 161.639 326.834 161.44 327.607 161.44L328.259 161.664Z" fill="black"/>
<path d="M341.414 200.45C339.414 200.702 338.255 200.982 336.353 201.716L333.255 192.045L332.307 189.404H337.668L341.414 200.45Z" fill="black"/>
<rect width="96" height="139.625" transform="translate(480 279.25) rotate(-180)" fill="black"/>
<path fill-rule="evenodd" clip-rule="evenodd" d="M422.805 218.022C422.802 218.022 418.078 218.084 415.154 217.425C412.506 216.827 409.989 215.641 408.778 215.406C407.942 215.244 407.436 215.482 406.621 215.633C405.806 215.784 405.615 215.978 404.561 216.23L400 202.048C400.147 201.301 400.736 200.928 401.766 200.928C402.158 200.928 403.016 200.935 403.384 201.002C404.134 201.141 404.12 201.674 404.267 202.495C404.414 203.317 404.921 205.866 405.149 206.676C405.738 208.766 407.504 212.05 412.8 213.618C418.096 215.185 419.764 215.111 422.805 215.111C423.47 215.111 424.133 215.056 424.794 214.951L409.931 171.816C409.49 170.671 409.097 169.651 408.754 168.755C408.362 167.86 408.043 167.088 407.798 166.441C407.602 165.944 407.185 165.496 406.547 165.098C405.861 164.749 405.174 164.451 404.487 164.202C403.752 164.003 403.188 163.903 402.795 163.903C402.599 163.903 402.501 163.431 402.501 162.485C402.501 162.386 402.526 162.261 402.575 162.112C402.575 162.012 402.746 161.589 402.795 161.44L419.274 161.44C419.47 161.639 419.568 162.336 419.568 162.933C419.519 163.58 419.396 163.903 419.2 163.903C418.611 163.903 417.876 164.028 416.993 164.277C416.11 164.525 415.595 164.849 415.448 165.247C415.399 165.446 415.375 165.645 415.375 165.844C415.326 166.043 415.301 166.242 415.301 166.441C415.301 167.088 415.375 167.835 415.522 168.681C415.669 169.576 415.841 170.273 416.037 170.771L416.113 171.005C416.668 170.535 417.647 170.083 419.053 169.651C420.622 169.153 422.486 168.755 424.644 168.457C426.752 168.158 428.861 168.009 430.97 168.009C434.844 168.009 438.228 168.93 441.122 170.771C444.015 172.662 446.247 175.15 447.816 178.235C449.385 181.37 450.17 184.755 450.17 188.387C450.17 191.672 449.459 195.081 448.037 198.614C446.566 202.197 444.628 205.432 442.225 208.318C439.822 211.254 436.88 213.643 433.398 215.484C432.571 215.915 431.758 216.282 430.949 216.594L430.999 216.745L430.943 216.593C429.267 217.231 428.187 217.516 426.581 217.745L425.857 217.84C425.856 217.84 425.852 217.841 425.848 217.841C425.841 217.842 425.83 217.843 425.816 217.845C425.788 217.848 425.747 217.853 425.696 217.859C425.594 217.87 425.451 217.886 425.288 217.905C425.215 217.913 425.139 217.922 425.06 217.931C424.325 217.993 423.575 218.022 422.805 218.022ZM430.234 212.871C432.687 211.428 434.918 209.437 436.929 206.9C438.939 204.362 440.533 201.45 441.71 198.166C442.887 194.882 443.476 191.423 443.476 187.79C443.476 184.605 442.912 181.769 441.784 179.28C440.607 176.792 438.939 174.827 436.782 173.383C434.575 171.94 431.926 171.219 428.837 171.219C425.208 171.219 422.118 172.04 419.568 173.682C418.795 174.172 418.108 174.705 417.505 175.281L429.818 213.117C429.957 213.038 430.096 212.956 430.234 212.871Z" fill="white"/>
<path d="M439.356 257.211L431.319 233.885L436.853 233.885L441.71 247.208L446.171 233.462C442.851 233.459 439.914 233.409 437.359 233.311C437.114 233.302 436.872 233.295 436.634 233.286L431.07 233.162C430.96 233.162 430.851 233.16 430.744 233.16C427.053 233.16 423.889 233.211 421.252 233.311C418.568 233.412 416.459 233.462 414.925 233.462C414.302 233.462 413.583 233.538 412.768 233.689C411.953 233.841 411.306 234.043 410.251 234.295L406.915 223.705C407.251 223.352 409.508 222.949 410.323 222.948C410.706 222.948 410.946 223.075 411.042 223.327C411.473 225.243 411.977 226.68 412.552 227.638C413.08 228.596 413.846 229.226 414.853 229.529C415.86 229.882 417.274 230.059 419.095 230.059L442.321 230.059C444.142 230.058 445.556 229.882 446.563 229.529C446.945 229.414 447.292 229.252 447.605 229.043L459.66 191.896C459.665 191.893 464 189.508 464 191.597C464 193.687 443.994 251.677 443.991 251.687C443.697 252.434 443.525 252.956 443.476 253.255C443.378 253.553 443.304 253.802 443.255 254.001C443.157 254.25 442.985 254.648 442.74 255.196C442.397 255.892 442.054 256.44 441.71 256.838C441.367 257.236 440.803 257.435 440.018 257.435L439.356 257.211Z" fill="white"/>
<path d="M425.992 218.425C428.024 218.173 429.201 217.893 431.133 217.159L434.28 226.83L435.244 229.471L429.798 229.471L425.992 218.425Z" fill="white"/>
<rect width="95" height="139.625" transform="translate(480 139.625)" fill="white"/>
<path fill-rule="evenodd" clip-rule="evenodd" d="M536.552 200.853C536.554 200.853 541.204 200.791 544.083 201.45C546.69 202.048 549.167 203.234 550.36 203.469C551.182 203.631 551.681 203.393 552.483 203.242C553.285 203.091 553.472 202.897 554.51 202.645L559 216.827C558.855 217.574 558.276 217.947 557.262 217.947C556.876 217.947 556.031 217.94 555.669 217.873C554.931 217.734 554.945 217.201 554.8 216.38C554.655 215.558 554.155 213.009 553.931 212.199C553.352 210.109 551.614 206.825 546.4 205.257C541.186 203.69 539.545 203.764 536.552 203.764C535.897 203.764 535.244 203.819 534.593 203.924L549.224 247.059C549.659 248.204 550.045 249.224 550.383 250.12C550.769 251.015 551.083 251.787 551.324 252.434C551.517 252.931 551.928 253.379 552.555 253.777C553.231 254.126 553.907 254.424 554.583 254.673C555.307 254.872 555.862 254.972 556.248 254.972C556.441 254.972 556.538 255.444 556.538 256.39C556.538 256.489 556.514 256.614 556.466 256.763C556.466 256.863 556.297 257.286 556.248 257.435H540.028C539.834 257.236 539.738 256.539 539.738 255.942C539.786 255.295 539.907 254.972 540.1 254.972C540.679 254.972 541.403 254.847 542.272 254.598C543.141 254.35 543.648 254.026 543.793 253.628C543.841 253.429 543.866 253.23 543.866 253.031C543.914 252.832 543.938 252.633 543.938 252.434C543.938 251.787 543.866 251.04 543.721 250.194C543.576 249.299 543.407 248.602 543.214 248.104L543.139 247.87C542.592 248.34 541.628 248.792 540.245 249.224C538.7 249.722 536.866 250.12 534.741 250.418C532.666 250.717 530.59 250.866 528.514 250.866C524.7 250.866 521.369 249.945 518.521 248.104C515.672 246.213 513.476 243.725 511.931 240.64C510.386 237.505 509.614 234.12 509.614 230.488C509.614 227.203 510.314 223.794 511.714 220.261C513.162 216.678 515.069 213.443 517.434 210.557C519.8 207.621 522.697 205.232 526.124 203.391C526.938 202.96 527.738 202.593 528.534 202.281L528.486 202.13L528.541 202.282C530.191 201.644 531.253 201.359 532.834 201.13L533.547 201.035C533.548 201.035 533.552 201.034 533.556 201.034C533.563 201.033 533.574 201.032 533.587 201.03C533.615 201.027 533.655 201.022 533.706 201.016C533.806 201.005 533.947 200.989 534.107 200.97C534.179 200.962 534.254 200.953 534.331 200.944C535.055 200.882 535.794 200.853 536.552 200.853ZM529.238 206.004C526.824 207.447 524.628 209.438 522.648 211.975C520.669 214.513 519.1 217.425 517.941 220.709C516.783 223.993 516.203 227.452 516.203 231.085C516.203 234.27 516.759 237.106 517.869 239.595C519.028 242.083 520.669 244.048 522.793 245.492C524.966 246.935 527.572 247.656 530.614 247.656C534.186 247.656 537.228 246.835 539.738 245.193C540.498 244.703 541.175 244.17 541.769 243.594L529.648 205.758C529.511 205.837 529.375 205.919 529.238 206.004Z" fill="black"/>
<path d="M520.259 161.664L528.17 184.99H522.723L517.941 171.667L513.55 185.413C516.818 185.416 519.71 185.466 522.225 185.564C522.466 185.573 522.704 185.58 522.938 185.589L528.415 185.713C528.524 185.713 528.631 185.715 528.737 185.715C532.37 185.715 535.485 185.664 538.08 185.564C540.722 185.463 542.798 185.413 544.308 185.413C544.921 185.413 545.63 185.337 546.432 185.186C547.234 185.034 547.871 184.832 548.909 184.58L552.193 195.17C551.863 195.523 549.641 195.926 548.838 195.927C548.461 195.927 548.225 195.8 548.131 195.548C547.706 193.632 547.21 192.195 546.644 191.237C546.125 190.279 545.37 189.649 544.379 189.346C543.388 188.993 541.996 188.816 540.203 188.816H517.341C515.548 188.817 514.156 188.993 513.165 189.346C512.789 189.461 512.447 189.623 512.139 189.832L500.272 226.979C500.268 226.982 496 229.367 496 227.278C496 225.188 515.693 167.198 515.697 167.188C515.986 166.441 516.155 165.919 516.203 165.62C516.3 165.322 516.372 165.073 516.421 164.874C516.517 164.625 516.686 164.227 516.928 163.679C517.266 162.983 517.603 162.435 517.941 162.037C518.279 161.639 518.834 161.44 519.607 161.44L520.259 161.664Z" fill="black"/>
<path d="M533.414 200.45C531.414 200.702 530.255 200.982 528.353 201.716L525.255 192.045L524.307 189.404H529.668L533.414 200.45Z" fill="black"/>
<rect width="96" height="139.625" transform="translate(0 279.25)" fill="white"/>
<path fill-rule="evenodd" clip-rule="evenodd" d="M57.1954 340.478C57.1979 340.478 61.9215 340.416 64.846 341.075C67.4943 341.673 70.0111 342.859 71.2224 343.094C72.058 343.256 72.5645 343.018 73.3793 342.867C74.1942 342.716 74.3845 342.522 75.4391 342.27L80 356.452C79.8529 357.199 79.2644 357.572 78.2345 357.572C77.8421 357.572 76.9839 357.565 76.6161 357.498C75.8661 357.359 75.8805 356.826 75.7333 356.005C75.5862 355.183 75.0785 352.634 74.8506 351.824C74.262 349.734 72.4965 346.45 67.2 344.882C61.9035 343.315 60.236 343.389 57.1954 343.389C56.5304 343.389 55.8673 343.444 55.2057 343.549L70.069 386.684C70.5103 387.829 70.9027 388.849 71.246 389.745C71.6383 390.64 71.9571 391.412 72.2023 392.059C72.3985 392.556 72.8153 393.004 73.4529 393.402C74.1395 393.751 74.8261 394.049 75.5126 394.298C76.2483 394.497 76.8123 394.597 77.2046 394.597C77.4008 394.597 77.4989 395.069 77.4989 396.015C77.4989 396.114 77.4743 396.239 77.4253 396.388C77.4253 396.488 77.2536 396.911 77.2046 397.06H60.7264C60.5303 396.861 60.4322 396.164 60.4322 395.567C60.4812 394.92 60.6038 394.597 60.8 394.597C61.3885 394.597 62.1241 394.472 63.0069 394.223C63.8897 393.975 64.4046 393.651 64.5517 393.253C64.6008 393.054 64.6253 392.855 64.6253 392.656C64.6743 392.457 64.6989 392.258 64.6989 392.059C64.6989 391.412 64.6253 390.665 64.4782 389.819C64.331 388.924 64.1594 388.227 63.9632 387.729L63.8868 387.495C63.332 387.965 62.3526 388.417 60.9471 388.849C59.3778 389.347 57.5142 389.745 55.3563 390.043C53.2475 390.342 51.1387 390.491 49.0299 390.491C45.1556 390.491 41.7716 389.57 38.8782 387.729C35.9847 385.838 33.7532 383.35 32.1839 380.265C30.6146 377.13 29.8299 373.745 29.8299 370.113C29.8299 366.828 30.541 363.419 31.9632 359.886C33.4345 356.303 35.3717 353.068 37.7747 350.182C40.1778 347.246 43.1204 344.857 46.6023 343.016C47.4286 342.585 48.2417 342.218 49.0506 341.906L49.0011 341.755L49.0575 341.907C50.7334 341.269 51.8128 340.984 53.419 340.755L54.1425 340.66C54.1444 340.66 54.1481 340.659 54.1517 340.659C54.1591 340.658 54.17 340.657 54.1839 340.655C54.2121 340.652 54.253 340.647 54.304 340.641C54.4063 340.63 54.5495 340.614 54.7121 340.595C54.7846 340.587 54.8611 340.578 54.9397 340.569C55.6753 340.507 56.4252 340.478 57.1954 340.478ZM49.7655 345.629C47.3135 347.072 45.082 349.063 43.0713 351.6C41.0606 354.138 39.4667 357.05 38.2897 360.334C37.1127 363.618 36.5242 367.077 36.5241 370.71C36.5241 373.895 37.0882 376.731 38.2161 379.22C39.3931 381.708 41.0606 383.673 43.2184 385.117C45.4253 386.56 48.0736 387.281 51.1632 387.281C54.7923 387.281 57.882 386.46 60.4322 384.818C61.2047 384.328 61.8919 383.795 62.4954 383.219L50.1822 345.383C50.0433 345.462 49.9043 345.544 49.7655 345.629Z" fill="black"/>
<path d="M40.6437 301.289L48.681 324.615H43.1471L38.2897 311.292L33.8287 325.038C37.1487 325.041 40.086 325.091 42.6408 325.189C42.886 325.198 43.1277 325.205 43.3655 325.214L48.9299 325.338C49.0402 325.338 49.1492 325.34 49.2563 325.34C52.9473 325.34 56.1113 325.289 58.7477 325.189C61.4318 325.088 63.5408 325.038 65.0747 325.038C65.6979 325.038 66.4173 324.962 67.2322 324.811C68.0471 324.659 68.6943 324.457 69.7489 324.205L73.0851 334.795C72.7495 335.148 70.4921 335.551 69.677 335.552C69.2935 335.552 69.0539 335.425 68.958 335.173C68.5266 333.257 68.0229 331.82 67.4477 330.862C66.9205 329.904 66.1536 329.274 65.1471 328.971C64.1405 328.618 62.7261 328.441 60.9046 328.441H37.6793C35.8579 328.442 34.444 328.618 33.4374 328.971C33.0554 329.086 32.7078 329.248 32.3948 329.457L20.3402 366.604C20.3354 366.607 16 368.992 16 366.903C16 364.813 36.0056 306.823 36.0092 306.813C36.3034 306.066 36.4751 305.544 36.5241 305.245C36.6222 304.947 36.6958 304.698 36.7448 304.499C36.8429 304.25 37.0146 303.852 37.2598 303.304C37.6031 302.608 37.9464 302.06 38.2897 301.662C38.6329 301.264 39.1969 301.065 39.9816 301.065L40.6437 301.289Z" fill="black"/>
<path d="M54.008 340.075C51.9761 340.327 50.7987 340.607 48.8667 341.341L45.7195 331.67L44.7563 329.029H50.2023L54.008 340.075Z" fill="black"/>
<rect width="96" height="139.625" transform="translate(192 418.875) rotate(-180)" fill="black"/>
<path fill-rule="evenodd" clip-rule="evenodd" d="M134.805 357.647C134.802 357.647 130.078 357.709 127.154 357.05C124.506 356.452 121.989 355.266 120.778 355.031C119.942 354.869 119.436 355.107 118.621 355.258C117.806 355.409 117.615 355.603 116.561 355.855L112 341.672C112.147 340.926 112.736 340.553 113.766 340.553C114.158 340.553 115.016 340.56 115.384 340.627C116.134 340.766 116.12 341.299 116.267 342.12C116.414 342.942 116.921 345.491 117.149 346.301C117.738 348.391 119.504 351.675 124.8 353.243C130.096 354.81 131.764 354.736 134.805 354.736C135.47 354.736 136.133 354.681 136.794 354.576L121.931 311.441C121.49 310.296 121.097 309.276 120.754 308.38C120.362 307.485 120.043 306.713 119.798 306.066C119.602 305.569 119.185 305.121 118.547 304.723C117.861 304.374 117.174 304.076 116.487 303.827C115.752 303.628 115.188 303.528 114.795 303.528C114.599 303.528 114.501 303.056 114.501 302.11C114.501 302.01 114.526 301.886 114.575 301.737C114.575 301.637 114.746 301.214 114.795 301.065L131.274 301.065C131.47 301.264 131.568 301.961 131.568 302.558C131.519 303.205 131.396 303.528 131.2 303.528C130.611 303.528 129.876 303.653 128.993 303.901C128.11 304.15 127.595 304.474 127.448 304.872C127.399 305.071 127.375 305.27 127.375 305.469C127.326 305.668 127.301 305.867 127.301 306.066C127.301 306.713 127.375 307.46 127.522 308.306C127.669 309.201 127.841 309.898 128.037 310.396L128.113 310.63C128.668 310.16 129.647 309.708 131.053 309.276C132.622 308.778 134.486 308.38 136.644 308.082C138.752 307.783 140.861 307.634 142.97 307.634C146.844 307.634 150.228 308.554 153.122 310.396C156.015 312.287 158.247 314.775 159.816 317.86C161.385 320.995 162.17 324.38 162.17 328.012C162.17 331.297 161.459 334.706 160.037 338.239C158.566 341.822 156.628 345.056 154.225 347.943C151.822 350.879 148.88 353.268 145.398 355.109C144.571 355.54 143.758 355.907 142.949 356.219L142.999 356.37L142.943 356.218C141.267 356.856 140.187 357.141 138.581 357.37L137.857 357.465C137.856 357.465 137.852 357.466 137.848 357.466C137.841 357.467 137.83 357.468 137.816 357.469C137.788 357.473 137.747 357.478 137.696 357.483C137.594 357.495 137.451 357.511 137.288 357.53C137.215 357.538 137.139 357.547 137.06 357.556C136.325 357.618 135.575 357.647 134.805 357.647ZM142.234 352.496C144.687 351.053 146.918 349.062 148.929 346.524C150.939 343.987 152.533 341.075 153.71 337.791C154.887 334.506 155.476 331.048 155.476 327.415C155.476 324.23 154.912 321.394 153.784 318.905C152.607 316.417 150.939 314.451 148.782 313.008C146.575 311.565 143.926 310.844 140.837 310.844C137.208 310.844 134.118 311.665 131.568 313.307C130.795 313.797 130.108 314.33 129.505 314.906L141.818 352.742C141.957 352.663 142.096 352.581 142.234 352.496Z" fill="white"/>
<path d="M151.356 396.836L143.319 373.51L148.853 373.51L153.71 386.833L158.171 373.087C154.851 373.084 151.914 373.034 149.359 372.936C149.114 372.927 148.872 372.92 148.634 372.911L143.07 372.787C142.96 372.787 142.851 372.785 142.744 372.785C139.053 372.785 135.889 372.836 133.252 372.936C130.568 373.037 128.459 373.087 126.925 373.087C126.302 373.087 125.583 373.163 124.768 373.314C123.953 373.466 123.306 373.667 122.251 373.92L118.915 363.33C119.251 362.977 121.508 362.573 122.323 362.573C122.706 362.573 122.946 362.7 123.042 362.952C123.473 364.868 123.977 366.305 124.552 367.263C125.08 368.221 125.846 368.851 126.853 369.154C127.86 369.507 129.274 369.683 131.095 369.683L154.321 369.683C156.142 369.683 157.556 369.507 158.563 369.154C158.945 369.039 159.292 368.877 159.605 368.668L171.66 331.521C171.665 331.518 176 329.133 176 331.222C176 333.312 155.994 391.302 155.991 391.312C155.697 392.059 155.525 392.581 155.476 392.88C155.378 393.178 155.304 393.427 155.255 393.626C155.157 393.875 154.985 394.273 154.74 394.821C154.397 395.517 154.054 396.065 153.71 396.463C153.367 396.861 152.803 397.06 152.018 397.06L151.356 396.836Z" fill="white"/>
<path d="M137.992 358.05C140.024 357.798 141.201 357.518 143.133 356.784L146.28 366.455L147.244 369.096L141.798 369.096L137.992 358.05Z" fill="white"/>
<rect width="96" height="139.625" transform="translate(192 279.25)" fill="white"/>
<path fill-rule="evenodd" clip-rule="evenodd" d="M249.195 340.478C249.198 340.478 253.922 340.416 256.846 341.075C259.494 341.673 262.011 342.859 263.222 343.094C264.058 343.256 264.564 343.018 265.379 342.867C266.194 342.716 266.384 342.522 267.439 342.27L272 356.452C271.853 357.199 271.264 357.572 270.234 357.572C269.842 357.572 268.984 357.565 268.616 357.498C267.866 357.359 267.88 356.826 267.733 356.005C267.586 355.183 267.079 352.634 266.851 351.824C266.262 349.734 264.496 346.45 259.2 344.882C253.903 343.315 252.236 343.389 249.195 343.389C248.53 343.389 247.867 343.444 247.206 343.549L262.069 386.684C262.51 387.829 262.903 388.849 263.246 389.745C263.638 390.64 263.957 391.412 264.202 392.059C264.398 392.556 264.815 393.004 265.453 393.402C266.139 393.751 266.826 394.049 267.513 394.298C268.248 394.497 268.812 394.597 269.205 394.597C269.401 394.597 269.499 395.069 269.499 396.015C269.499 396.114 269.474 396.239 269.425 396.388C269.425 396.488 269.254 396.911 269.205 397.06H252.726C252.53 396.861 252.432 396.164 252.432 395.567C252.481 394.92 252.604 394.597 252.8 394.597C253.389 394.597 254.124 394.472 255.007 394.223C255.89 393.975 256.405 393.651 256.552 393.253C256.601 393.054 256.625 392.855 256.625 392.656C256.674 392.457 256.699 392.258 256.699 392.059C256.699 391.412 256.625 390.665 256.478 389.819C256.331 388.924 256.159 388.227 255.963 387.729L255.887 387.495C255.332 387.965 254.353 388.417 252.947 388.849C251.378 389.347 249.514 389.745 247.356 390.043C245.248 390.342 243.139 390.491 241.03 390.491C237.156 390.491 233.772 389.57 230.878 387.729C227.985 385.838 225.753 383.35 224.184 380.265C222.615 377.13 221.83 373.745 221.83 370.113C221.83 366.828 222.541 363.419 223.963 359.886C225.434 356.303 227.372 353.068 229.775 350.182C232.178 347.246 235.12 344.857 238.602 343.016C239.429 342.585 240.242 342.218 241.051 341.906L241.001 341.755L241.057 341.907C242.733 341.269 243.813 340.984 245.419 340.755L246.143 340.66C246.144 340.66 246.148 340.659 246.152 340.659C246.159 340.658 246.17 340.657 246.184 340.655C246.212 340.652 246.253 340.647 246.304 340.641C246.406 340.63 246.549 340.614 246.712 340.595C246.785 340.587 246.861 340.578 246.94 340.569C247.675 340.507 248.425 340.478 249.195 340.478ZM241.766 345.629C239.313 347.072 237.082 349.063 235.071 351.6C233.061 354.138 231.467 357.05 230.29 360.334C229.113 363.618 228.524 367.077 228.524 370.71C228.524 373.895 229.088 376.731 230.216 379.22C231.393 381.708 233.061 383.673 235.218 385.117C237.425 386.56 240.074 387.281 243.163 387.281C246.792 387.281 249.882 386.46 252.432 384.818C253.205 384.328 253.892 383.795 254.495 383.219L242.182 345.383C242.043 345.462 241.904 345.544 241.766 345.629Z" fill="black"/>
<path d="M232.644 301.289L240.681 324.615H235.147L230.29 311.292L225.829 325.038C229.149 325.041 232.086 325.091 234.641 325.189C234.886 325.198 235.128 325.205 235.366 325.214L240.93 325.338C241.04 325.338 241.149 325.34 241.256 325.34C244.947 325.34 248.111 325.289 250.748 325.189C253.432 325.088 255.541 325.038 257.075 325.038C257.698 325.038 258.417 324.962 259.232 324.811C260.047 324.659 260.694 324.457 261.749 324.205L265.085 334.795C264.749 335.148 262.492 335.551 261.677 335.552C261.294 335.552 261.054 335.425 260.958 335.173C260.527 333.257 260.023 331.82 259.448 330.862C258.92 329.904 258.154 329.274 257.147 328.971C256.14 328.618 254.726 328.441 252.905 328.441H229.679C227.858 328.442 226.444 328.618 225.437 328.971C225.055 329.086 224.708 329.248 224.395 329.457L212.34 366.604C212.335 366.607 208 368.992 208 366.903C208 364.813 228.006 306.823 228.009 306.813C228.303 306.066 228.475 305.544 228.524 305.245C228.622 304.947 228.696 304.698 228.745 304.499C228.843 304.25 229.015 303.852 229.26 303.304C229.603 302.608 229.946 302.06 230.29 301.662C230.633 301.264 231.197 301.065 231.982 301.065L232.644 301.289Z" fill="black"/>
<path d="M246.008 340.075C243.976 340.327 242.799 340.607 240.867 341.341L237.72 331.67L236.756 329.029H242.202L246.008 340.075Z" fill="black"/>
<rect width="96" height="139.625" transform="translate(384 418.875) rotate(-180)" fill="black"/>
<path fill-rule="evenodd" clip-rule="evenodd" d="M326.805 357.647C326.802 357.647 322.078 357.709 319.154 357.05C316.506 356.452 313.989 355.266 312.778 355.031C311.942 354.869 311.436 355.107 310.621 355.258C309.806 355.409 309.615 355.603 308.561 355.855L304 341.672C304.147 340.926 304.736 340.553 305.766 340.553C306.158 340.553 307.016 340.56 307.384 340.627C308.134 340.766 308.12 341.299 308.267 342.12C308.414 342.942 308.921 345.491 309.149 346.301C309.738 348.391 311.504 351.675 316.8 353.243C322.096 354.81 323.764 354.736 326.805 354.736C327.47 354.736 328.133 354.681 328.794 354.576L313.931 311.441C313.49 310.296 313.097 309.276 312.754 308.38C312.362 307.485 312.043 306.713 311.798 306.066C311.602 305.569 311.185 305.121 310.547 304.723C309.861 304.374 309.174 304.076 308.487 303.827C307.752 303.628 307.188 303.528 306.795 303.528C306.599 303.528 306.501 303.056 306.501 302.11C306.501 302.01 306.526 301.886 306.575 301.737C306.575 301.637 306.746 301.214 306.795 301.065L323.274 301.065C323.47 301.264 323.568 301.961 323.568 302.558C323.519 303.205 323.396 303.528 323.2 303.528C322.611 303.528 321.876 303.653 320.993 303.901C320.11 304.15 319.595 304.474 319.448 304.872C319.399 305.071 319.375 305.27 319.375 305.469C319.326 305.668 319.301 305.867 319.301 306.066C319.301 306.713 319.375 307.46 319.522 308.306C319.669 309.201 319.841 309.898 320.037 310.396L320.113 310.63C320.668 310.16 321.647 309.708 323.053 309.276C324.622 308.778 326.486 308.38 328.644 308.082C330.752 307.783 332.861 307.634 334.97 307.634C338.844 307.634 342.228 308.554 345.122 310.396C348.015 312.287 350.247 314.775 351.816 317.86C353.385 320.995 354.17 324.38 354.17 328.012C354.17 331.297 353.459 334.706 352.037 338.239C350.566 341.822 348.628 345.056 346.225 347.943C343.822 350.879 340.88 353.268 337.398 355.109C336.571 355.54 335.758 355.907 334.949 356.219L334.999 356.37L334.943 356.218C333.267 356.856 332.187 357.141 330.581 357.37L329.857 357.465C329.856 357.465 329.852 357.466 329.848 357.466C329.841 357.467 329.83 357.468 329.816 357.469C329.788 357.473 329.747 357.478 329.696 357.483C329.594 357.495 329.451 357.511 329.288 357.53C329.215 357.538 329.139 357.547 329.06 357.556C328.325 357.618 327.575 357.647 326.805 357.647ZM334.234 352.496C336.687 351.053 338.918 349.062 340.929 346.524C342.939 343.987 344.533 341.075 345.71 337.791C346.887 334.506 347.476 331.048 347.476 327.415C347.476 324.23 346.912 321.394 345.784 318.905C344.607 316.417 342.939 314.451 340.782 313.008C338.575 311.565 335.926 310.844 332.837 310.844C329.208 310.844 326.118 311.665 323.568 313.307C322.795 313.797 322.108 314.33 321.505 314.906L333.818 352.742C333.957 352.663 334.096 352.581 334.234 352.496Z" fill="white"/>
<path d="M343.356 396.836L335.319 373.51L340.853 373.51L345.71 386.833L350.171 373.087C346.851 373.084 343.914 373.034 341.359 372.936C341.114 372.927 340.872 372.92 340.634 372.911L335.07 372.787C334.96 372.787 334.851 372.785 334.744 372.785C331.053 372.785 327.889 372.836 325.252 372.936C322.568 373.037 320.459 373.087 318.925 373.087C318.302 373.087 317.583 373.163 316.768 373.314C315.953 373.466 315.306 373.667 314.251 373.92L310.915 363.33C311.251 362.977 313.508 362.573 314.323 362.573C314.706 362.573 314.946 362.7 315.042 362.952C315.473 364.868 315.977 366.305 316.552 367.263C317.08 368.221 317.846 368.851 318.853 369.154C319.86 369.507 321.274 369.683 323.095 369.683L346.321 369.683C348.142 369.683 349.556 369.507 350.563 369.154C350.945 369.039 351.292 368.877 351.605 368.668L363.66 331.521C363.665 331.518 368 329.133 368 331.222C368 333.312 347.994 391.302 347.991 391.312C347.697 392.059 347.525 392.581 347.476 392.88C347.378 393.178 347.304 393.427 347.255 393.626C347.157 393.875 346.985 394.273 346.74 394.821C346.397 395.517 346.054 396.065 345.71 396.463C345.367 396.861 344.803 397.06 344.018 397.06L343.356 396.836Z" fill="white"/>
<path d="M329.992 358.05C332.024 357.798 333.201 357.518 335.133 356.784L338.28 366.455L339.244 369.096L333.798 369.096L329.992 358.05Z" fill="white"/>
<rect width="96" height="139.625" transform="translate(384 279.25)" fill="white"/>
<path fill-rule="evenodd" clip-rule="evenodd" d="M441.195 340.478C441.198 340.478 445.922 340.416 448.846 341.075C451.494 341.673 454.011 342.859 455.222 343.094C456.058 343.256 456.564 343.018 457.379 342.867C458.194 342.716 458.384 342.522 459.439 342.27L464 356.452C463.853 357.199 463.264 357.572 462.234 357.572C461.842 357.572 460.984 357.565 460.616 357.498C459.866 357.359 459.88 356.826 459.733 356.005C459.586 355.183 459.079 352.634 458.851 351.824C458.262 349.734 456.496 346.45 451.2 344.882C445.903 343.315 444.236 343.389 441.195 343.389C440.53 343.389 439.867 343.444 439.206 343.549L454.069 386.684C454.51 387.829 454.903 388.849 455.246 389.745C455.638 390.64 455.957 391.412 456.202 392.059C456.398 392.556 456.815 393.004 457.453 393.402C458.139 393.751 458.826 394.049 459.513 394.298C460.248 394.497 460.812 394.597 461.205 394.597C461.401 394.597 461.499 395.069 461.499 396.015C461.499 396.114 461.474 396.239 461.425 396.388C461.425 396.488 461.254 396.911 461.205 397.06H444.726C444.53 396.861 444.432 396.164 444.432 395.567C444.481 394.92 444.604 394.597 444.8 394.597C445.389 394.597 446.124 394.472 447.007 394.223C447.89 393.975 448.405 393.651 448.552 393.253C448.601 393.054 448.625 392.855 448.625 392.656C448.674 392.457 448.699 392.258 448.699 392.059C448.699 391.412 448.625 390.665 448.478 389.819C448.331 388.924 448.159 388.227 447.963 387.729L447.887 387.495C447.332 387.965 446.353 388.417 444.947 388.849C443.378 389.347 441.514 389.745 439.356 390.043C437.248 390.342 435.139 390.491 433.03 390.491C429.156 390.491 425.772 389.57 422.878 387.729C419.985 385.838 417.753 383.35 416.184 380.265C414.615 377.13 413.83 373.745 413.83 370.113C413.83 366.828 414.541 363.419 415.963 359.886C417.434 356.303 419.372 353.068 421.775 350.182C424.178 347.246 427.12 344.857 430.602 343.016C431.429 342.585 432.242 342.218 433.051 341.906L433.001 341.755L433.057 341.907C434.733 341.269 435.813 340.984 437.419 340.755L438.143 340.66C438.144 340.66 438.148 340.659 438.152 340.659C438.159 340.658 438.17 340.657 438.184 340.655C438.212 340.652 438.253 340.647 438.304 340.641C438.406 340.63 438.549 340.614 438.712 340.595C438.785 340.587 438.861 340.578 438.94 340.569C439.675 340.507 440.425 340.478 441.195 340.478ZM433.766 345.629C431.313 347.072 429.082 349.063 427.071 351.6C425.061 354.138 423.467 357.05 422.29 360.334C421.113 363.618 420.524 367.077 420.524 370.71C420.524 373.895 421.088 376.731 422.216 379.22C423.393 381.708 425.061 383.673 427.218 385.117C429.425 386.56 432.074 387.281 435.163 387.281C438.792 387.281 441.882 386.46 444.432 384.818C445.205 384.328 445.892 383.795 446.495 383.219L434.182 345.383C434.043 345.462 433.904 345.544 433.766 345.629Z" fill="black"/>
<path d="M424.644 301.289L432.681 324.615H427.147L422.29 311.292L417.829 325.038C421.149 325.041 424.086 325.091 426.641 325.189C426.886 325.198 427.128 325.205 427.366 325.214L432.93 325.338C433.04 325.338 433.149 325.34 433.256 325.34C436.947 325.34 440.111 325.289 442.748 325.189C445.432 325.088 447.541 325.038 449.075 325.038C449.698 325.038 450.417 324.962 451.232 324.811C452.047 324.659 452.694 324.457 453.749 324.205L457.085 334.795C456.749 335.148 454.492 335.551 453.677 335.552C453.294 335.552 453.054 335.425 452.958 335.173C452.527 333.257 452.023 331.82 451.448 330.862C450.92 329.904 450.154 329.274 449.147 328.971C448.14 328.618 446.726 328.441 444.905 328.441H421.679C419.858 328.442 418.444 328.618 417.437 328.971C417.055 329.086 416.708 329.248 416.395 329.457L404.34 366.604C404.335 366.607 400 368.992 400 366.903C400 364.813 420.006 306.823 420.009 306.813C420.303 306.066 420.475 305.544 420.524 305.245C420.622 304.947 420.696 304.698 420.745 304.499C420.843 304.25 421.015 303.852 421.26 303.304C421.603 302.608 421.946 302.06 422.29 301.662C422.633 301.264 423.197 301.065 423.982 301.065L424.644 301.289Z" fill="black"/>
<path d="M438.008 340.075C435.976 340.327 434.799 340.607 432.867 341.341L429.72 331.67L428.756 329.029H434.202L438.008 340.075Z" fill="black"/>
<rect width="96" height="139.625" transform="translate(576 418.875) rotate(-180)" fill="black"/>
<path fill-rule="evenodd" clip-rule="evenodd" d="M518.805 357.647C518.802 357.647 514.078 357.709 511.154 357.05C508.506 356.452 505.989 355.266 504.778 355.031C503.942 354.869 503.436 355.107 502.621 355.258C501.806 355.409 501.615 355.603 500.561 355.855L496 341.672C496.147 340.926 496.736 340.553 497.766 340.553C498.158 340.553 499.016 340.56 499.384 340.627C500.134 340.766 500.12 341.299 500.267 342.12C500.414 342.942 500.921 345.491 501.149 346.301C501.738 348.391 503.504 351.675 508.8 353.243C514.096 354.81 515.764 354.736 518.805 354.736C519.47 354.736 520.133 354.681 520.794 354.576L505.931 311.441C505.49 310.296 505.097 309.276 504.754 308.38C504.362 307.485 504.043 306.713 503.798 306.066C503.602 305.569 503.185 305.121 502.547 304.723C501.861 304.374 501.174 304.076 500.487 303.827C499.752 303.628 499.188 303.528 498.795 303.528C498.599 303.528 498.501 303.056 498.501 302.11C498.501 302.01 498.526 301.886 498.575 301.737C498.575 301.637 498.746 301.214 498.795 301.065L515.274 301.065C515.47 301.264 515.568 301.961 515.568 302.558C515.519 303.205 515.396 303.528 515.2 303.528C514.611 303.528 513.876 303.653 512.993 303.901C512.11 304.15 511.595 304.474 511.448 304.872C511.399 305.071 511.375 305.27 511.375 305.469C511.326 305.668 511.301 305.867 511.301 306.066C511.301 306.713 511.375 307.46 511.522 308.306C511.669 309.201 511.841 309.898 512.037 310.396L512.113 310.63C512.668 310.16 513.647 309.708 515.053 309.276C516.622 308.778 518.486 308.38 520.644 308.082C522.752 307.783 524.861 307.634 526.97 307.634C530.844 307.634 534.228 308.554 537.122 310.396C540.015 312.287 542.247 314.775 543.816 317.86C545.385 320.995 546.17 324.38 546.17 328.012C546.17 331.297 545.459 334.706 544.037 338.239C542.566 341.822 540.628 345.056 538.225 347.943C535.822 350.879 532.88 353.268 529.398 355.109C528.571 355.54 527.758 355.907 526.949 356.219L526.999 356.37L526.943 356.218C525.267 356.856 524.187 357.141 522.581 357.37L521.857 357.465C521.856 357.465 521.852 357.466 521.848 357.466C521.841 357.467 521.83 357.468 521.816 357.469C521.788 357.473 521.747 357.478 521.696 357.483C521.594 357.495 521.451 357.511 521.288 357.53C521.215 357.538 521.139 357.547 521.06 357.556C520.325 357.618 519.575 357.647 518.805 357.647ZM526.234 352.496C528.687 351.053 530.918 349.062 532.929 346.524C534.939 343.987 536.533 341.075 537.71 337.791C538.887 334.506 539.476 331.048 539.476 327.415C539.476 324.23 538.912 321.394 537.784 318.905C536.607 316.417 534.939 314.451 532.782 313.008C530.575 311.565 527.926 310.844 524.837 310.844C521.208 310.844 518.118 311.665 515.568 313.307C514.795 313.797 514.108 314.33 513.505 314.906L525.818 352.742C525.957 352.663 526.096 352.581 526.234 352.496Z" fill="white"/>
<path d="M535.356 396.836L527.319 373.51L532.853 373.51L537.71 386.833L542.171 373.087C538.851 373.084 535.914 373.034 533.359 372.936C533.114 372.927 532.872 372.92 532.634 372.911L527.07 372.787C526.96 372.787 526.851 372.785 526.744 372.785C523.053 372.785 519.889 372.836 517.252 372.936C514.568 373.037 512.459 373.087 510.925 373.087C510.302 373.087 509.583 373.163 508.768 373.314C507.953 373.466 507.306 373.667 506.251 373.92L502.915 363.33C503.251 362.977 505.508 362.573 506.323 362.573C506.706 362.573 506.946 362.7 507.042 362.952C507.473 364.868 507.977 366.305 508.552 367.263C509.08 368.221 509.846 368.851 510.853 369.154C511.86 369.507 513.274 369.683 515.095 369.683L538.321 369.683C540.142 369.683 541.556 369.507 542.563 369.154C542.945 369.039 543.292 368.877 543.605 368.668L555.66 331.521C555.665 331.518 560 329.133 560 331.222C560 333.312 539.994 391.302 539.991 391.312C539.697 392.059 539.525 392.581 539.476 392.88C539.378 393.178 539.304 393.427 539.255 393.626C539.157 393.875 538.985 394.273 538.74 394.821C538.397 395.517 538.054 396.065 537.71 396.463C537.367 396.861 536.803 397.06 536.018 397.06L535.356 396.836Z" fill="white"/>
<path d="M521.992 358.05C524.024 357.798 525.201 357.518 527.133 356.784L530.28 366.455L531.244 369.096L525.798 369.096L521.992 358.05Z" fill="white"/>
<rect width="96" height="139.625" transform="translate(96 558.5) rotate(-180)" fill="black"/>
<path fill-rule="evenodd" clip-rule="evenodd" d="M38.8046 497.272C38.8021 497.272 34.0785 497.334 31.154 496.675C28.5057 496.077 25.9889 494.891 24.7776 494.656C23.942 494.494 23.4355 494.732 22.6207 494.883C21.8058 495.034 21.6155 495.228 20.5609 495.48L16 481.297C16.1471 480.551 16.7356 480.178 17.7655 480.178C18.1578 480.178 19.0161 480.185 19.3839 480.252C20.1339 480.391 20.1195 480.924 20.2667 481.745C20.4138 482.567 20.9215 485.116 21.1494 485.926C21.7379 488.016 23.5035 491.3 28.8 492.868C34.0965 494.435 35.764 494.361 38.8046 494.361C39.4696 494.361 40.1327 494.306 40.7942 494.201L25.931 451.066C25.4897 449.921 25.0973 448.901 24.754 448.005C24.3617 447.11 24.0429 446.338 23.7977 445.691C23.6015 445.194 23.1847 444.746 22.5471 444.348C21.8605 443.999 21.1739 443.701 20.4874 443.452C19.7517 443.253 19.1877 443.153 18.7954 443.153C18.5992 443.153 18.5011 442.681 18.5011 441.735C18.5011 441.635 18.5257 441.511 18.5747 441.362C18.5747 441.262 18.7464 440.839 18.7954 440.69L35.2736 440.69C35.4697 440.889 35.5678 441.586 35.5678 442.183C35.5188 442.83 35.3962 443.153 35.2 443.153C34.6115 443.153 33.8759 443.278 32.9931 443.526C32.1103 443.775 31.5954 444.099 31.4483 444.497C31.3992 444.696 31.3747 444.895 31.3747 445.094C31.3257 445.293 31.3011 445.492 31.3011 445.691C31.3011 446.338 31.3747 447.085 31.5218 447.931C31.669 448.826 31.8406 449.523 32.0368 450.021L32.1132 450.255C32.668 449.785 33.6474 449.333 35.0529 448.901C36.6222 448.403 38.4858 448.005 40.6437 447.707C42.7525 447.408 44.8613 447.259 46.9701 447.259C50.8444 447.259 54.2284 448.179 57.1218 450.021C60.0153 451.912 62.2468 454.4 63.8161 457.485C65.3854 460.62 66.1701 464.005 66.1701 467.637C66.1701 470.922 65.459 474.331 64.0368 477.864C62.5655 481.447 60.6283 484.681 58.2253 487.568C55.8222 490.504 52.8796 492.893 49.3977 494.734C48.5714 495.165 47.7583 495.532 46.9494 495.844L46.9988 495.995L46.9425 495.843C45.2666 496.481 44.1872 496.766 42.581 496.995L41.8575 497.09C41.8556 497.09 41.8519 497.091 41.8483 497.091C41.8409 497.092 41.83 497.093 41.8161 497.094C41.7879 497.098 41.747 497.103 41.696 497.108C41.5937 497.12 41.4505 497.136 41.2879 497.155C41.2154 497.163 41.1389 497.172 41.0603 497.181C40.3247 497.243 39.5748 497.272 38.8046 497.272ZM46.2345 492.121C48.6865 490.678 50.918 488.687 52.9287 486.149C54.9394 483.612 56.5333 480.7 57.7103 477.416C58.8873 474.131 59.4758 470.673 59.4759 467.04C59.4759 463.855 58.9118 461.019 57.7839 458.53C56.6069 456.042 54.9394 454.076 52.7816 452.633C50.5747 451.19 47.9264 450.469 44.8368 450.469C41.2077 450.469 38.118 451.29 35.5678 452.932C34.7953 453.422 34.1081 453.955 33.5046 454.531L45.8178 492.367C45.9567 492.288 46.0957 492.206 46.2345 492.121Z" fill="white"/>
<path d="M55.3563 536.461L47.319 513.135L52.8529 513.135L57.7103 526.458L62.1713 512.712C58.8513 512.709 55.914 512.659 53.3592 512.561C53.114 512.552 52.8722 512.545 52.6345 512.536L47.0701 512.412C46.9598 512.412 46.8508 512.41 46.7437 512.41C43.0527 512.41 39.8887 512.461 37.2523 512.561C34.5682 512.662 32.4592 512.712 30.9253 512.712C30.3021 512.712 29.5827 512.788 28.7678 512.939C27.9529 513.091 27.3057 513.292 26.2511 513.545L22.9149 502.955C23.2505 502.602 25.5079 502.198 26.323 502.198C26.7065 502.198 26.9461 502.325 27.0419 502.577C27.4734 504.493 27.9771 505.93 28.5523 506.888C29.0795 507.846 29.8464 508.476 30.8529 508.779C31.8595 509.132 33.2739 509.308 35.0954 509.308L58.3207 509.308C60.1421 509.308 61.556 509.132 62.5626 508.779C62.9446 508.664 63.2922 508.502 63.6052 508.293L75.6598 471.146C75.6647 471.143 80 468.758 80 470.847C80 472.937 59.9944 530.927 59.9908 530.937C59.6965 531.684 59.5249 532.206 59.4759 532.505C59.3778 532.803 59.3042 533.052 59.2552 533.251C59.1571 533.5 58.9854 533.898 58.7402 534.446C58.3969 535.142 58.0536 535.69 57.7103 536.088C57.367 536.486 56.8031 536.685 56.0184 536.685L55.3563 536.461Z" fill="white"/>
<path d="M41.9919 497.675C44.0239 497.423 45.2013 497.143 47.1333 496.409L50.2805 506.08L51.2437 508.721L45.7977 508.721L41.9919 497.675Z" fill="white"/>
<rect width="95" height="139.625" transform="translate(96 418.875)" fill="white"/>
<path fill-rule="evenodd" clip-rule="evenodd" d="M152.552 480.103C152.554 480.103 157.204 480.041 160.083 480.7C162.69 481.297 165.167 482.484 166.36 482.719C167.182 482.881 167.681 482.643 168.483 482.492C169.285 482.341 169.472 482.147 170.51 481.895L175 496.077C174.855 496.824 174.276 497.197 173.262 497.197C172.876 497.197 172.031 497.19 171.669 497.122C170.931 496.984 170.945 496.451 170.8 495.63C170.655 494.808 170.155 492.259 169.931 491.449C169.352 489.359 167.614 486.075 162.4 484.507C157.186 482.94 155.545 483.014 152.552 483.014C151.897 483.014 151.244 483.069 150.593 483.174L165.224 526.309C165.659 527.454 166.045 528.474 166.383 529.37C166.769 530.265 167.083 531.037 167.324 531.684C167.517 532.181 167.928 532.629 168.555 533.027C169.231 533.376 169.907 533.674 170.583 533.923C171.307 534.122 171.862 534.222 172.248 534.222C172.441 534.222 172.538 534.694 172.538 535.64C172.538 535.739 172.514 535.864 172.466 536.013C172.466 536.113 172.297 536.536 172.248 536.685H156.028C155.834 536.486 155.738 535.789 155.738 535.192C155.786 534.545 155.907 534.222 156.1 534.222C156.679 534.222 157.403 534.097 158.272 533.848C159.141 533.6 159.648 533.276 159.793 532.878C159.841 532.679 159.866 532.48 159.866 532.281C159.914 532.082 159.938 531.883 159.938 531.684C159.938 531.037 159.866 530.29 159.721 529.444C159.576 528.548 159.407 527.852 159.214 527.354L159.139 527.12C158.592 527.59 157.628 528.042 156.245 528.474C154.7 528.971 152.866 529.37 150.741 529.668C148.666 529.967 146.59 530.116 144.514 530.116C140.7 530.116 137.369 529.195 134.521 527.354C131.672 525.463 129.476 522.975 127.931 519.89C126.386 516.754 125.614 513.37 125.614 509.738C125.614 506.453 126.314 503.044 127.714 499.511C129.162 495.928 131.069 492.693 133.434 489.807C135.8 486.871 138.697 484.482 142.124 482.641C142.938 482.21 143.738 481.843 144.534 481.531L144.486 481.38L144.541 481.532C146.191 480.894 147.253 480.608 148.834 480.38L149.547 480.285C149.548 480.285 149.552 480.284 149.556 480.284C149.563 480.283 149.574 480.282 149.587 480.28C149.615 480.277 149.655 480.272 149.706 480.266C149.806 480.255 149.947 480.239 150.107 480.22C150.179 480.212 150.254 480.203 150.331 480.194C151.055 480.132 151.794 480.103 152.552 480.103ZM145.238 485.254C142.824 486.697 140.628 488.688 138.648 491.225C136.669 493.763 135.1 496.675 133.941 499.959C132.783 503.243 132.203 506.702 132.203 510.335C132.203 513.52 132.759 516.356 133.869 518.844C135.028 521.333 136.669 523.298 138.793 524.742C140.966 526.185 143.572 526.906 146.614 526.906C150.186 526.906 153.228 526.085 155.738 524.443C156.498 523.953 157.175 523.42 157.769 522.844L145.648 485.008C145.511 485.087 145.375 485.169 145.238 485.254Z" fill="black"/>
<path d="M136.259 440.914L144.17 464.24H138.723L133.941 450.916L129.55 464.663C132.818 464.666 135.71 464.716 138.225 464.813C138.466 464.823 138.704 464.83 138.938 464.839L144.415 464.963C144.524 464.963 144.631 464.965 144.737 464.965C148.37 464.965 151.485 464.914 154.08 464.813C156.722 464.713 158.798 464.662 160.308 464.662C160.921 464.662 161.63 464.587 162.432 464.436C163.234 464.284 163.871 464.082 164.909 463.83L168.193 474.42C167.863 474.773 165.641 475.176 164.838 475.176C164.461 475.176 164.225 475.05 164.131 474.798C163.706 472.882 163.21 471.445 162.644 470.487C162.125 469.529 161.37 468.899 160.379 468.596C159.388 468.243 157.996 468.066 156.203 468.066H133.341C131.548 468.066 130.156 468.243 129.165 468.596C128.789 468.711 128.447 468.873 128.139 469.082L116.272 506.229C116.268 506.232 112 508.617 112 506.528C112 504.438 131.693 446.448 131.697 446.438C131.986 445.691 132.155 445.169 132.203 444.87C132.3 444.572 132.372 444.323 132.421 444.124C132.517 443.875 132.686 443.477 132.928 442.929C133.266 442.233 133.603 441.685 133.941 441.287C134.279 440.889 134.834 440.69 135.607 440.69L136.259 440.914Z" fill="black"/>
<path d="M149.414 479.7C147.414 479.952 146.255 480.232 144.353 480.966L141.255 471.295L140.307 468.654H145.668L149.414 479.7Z" fill="black"/>
<rect width="96" height="139.625" transform="translate(288 558.5) rotate(-180)" fill="black"/>
<path fill-rule="evenodd" clip-rule="evenodd" d="M230.805 497.272C230.802 497.272 226.078 497.334 223.154 496.675C220.506 496.077 217.989 494.891 216.778 494.656C215.942 494.494 215.436 494.732 214.621 494.883C213.806 495.034 213.615 495.228 212.561 495.48L208 481.297C208.147 480.551 208.736 480.178 209.766 480.178C210.158 480.178 211.016 480.185 211.384 480.252C212.134 480.391 212.12 480.924 212.267 481.745C212.414 482.567 212.921 485.116 213.149 485.926C213.738 488.016 215.504 491.3 220.8 492.868C226.096 494.435 227.764 494.361 230.805 494.361C231.47 494.361 232.133 494.306 232.794 494.201L217.931 451.066C217.49 449.921 217.097 448.901 216.754 448.005C216.362 447.11 216.043 446.338 215.798 445.691C215.602 445.194 215.185 444.746 214.547 444.348C213.861 443.999 213.174 443.701 212.487 443.452C211.752 443.253 211.188 443.153 210.795 443.153C210.599 443.153 210.501 442.681 210.501 441.735C210.501 441.635 210.526 441.511 210.575 441.362C210.575 441.262 210.746 440.839 210.795 440.69L227.274 440.69C227.47 440.889 227.568 441.586 227.568 442.183C227.519 442.83 227.396 443.153 227.2 443.153C226.611 443.153 225.876 443.278 224.993 443.526C224.11 443.775 223.595 444.099 223.448 444.497C223.399 444.696 223.375 444.895 223.375 445.094C223.326 445.293 223.301 445.492 223.301 445.691C223.301 446.338 223.375 447.085 223.522 447.931C223.669 448.826 223.841 449.523 224.037 450.021L224.113 450.255C224.668 449.785 225.647 449.333 227.053 448.901C228.622 448.403 230.486 448.005 232.644 447.707C234.752 447.408 236.861 447.259 238.97 447.259C242.844 447.259 246.228 448.179 249.122 450.021C252.015 451.912 254.247 454.4 255.816 457.485C257.385 460.62 258.17 464.005 258.17 467.637C258.17 470.922 257.459 474.331 256.037 477.864C254.566 481.447 252.628 484.681 250.225 487.568C247.822 490.504 244.88 492.893 241.398 494.734C240.571 495.165 239.758 495.532 238.949 495.844L238.999 495.995L238.943 495.843C237.267 496.481 236.187 496.766 234.581 496.995L233.857 497.09C233.856 497.09 233.852 497.091 233.848 497.091C233.841 497.092 233.83 497.093 233.816 497.094C233.788 497.098 233.747 497.103 233.696 497.108C233.594 497.12 233.451 497.136 233.288 497.155C233.215 497.163 233.139 497.172 233.06 497.181C232.325 497.243 231.575 497.272 230.805 497.272ZM238.234 492.121C240.687 490.678 242.918 488.687 244.929 486.149C246.939 483.612 248.533 480.7 249.71 477.416C250.887 474.131 251.476 470.673 251.476 467.04C251.476 463.855 250.912 461.019 249.784 458.53C248.607 456.042 246.939 454.076 244.782 452.633C242.575 451.19 239.926 450.469 236.837 450.469C233.208 450.469 230.118 451.29 227.568 452.932C226.795 453.422 226.108 453.955 225.505 454.531L237.818 492.367C237.957 492.288 238.096 492.206 238.234 492.121Z" fill="white"/>
<path d="M247.356 536.461L239.319 513.135L244.853 513.135L249.71 526.458L254.171 512.712C250.851 512.709 247.914 512.659 245.359 512.561C245.114 512.552 244.872 512.545 244.634 512.536L239.07 512.412C238.96 512.412 238.851 512.41 238.744 512.41C235.053 512.41 231.889 512.461 229.252 512.561C226.568 512.662 224.459 512.712 222.925 512.712C222.302 512.712 221.583 512.788 220.768 512.939C219.953 513.091 219.306 513.292 218.251 513.545L214.915 502.955C215.251 502.602 217.508 502.198 218.323 502.198C218.706 502.198 218.946 502.325 219.042 502.577C219.473 504.493 219.977 505.93 220.552 506.888C221.08 507.846 221.846 508.476 222.853 508.779C223.86 509.132 225.274 509.308 227.095 509.308L250.321 509.308C252.142 509.308 253.556 509.132 254.563 508.779C254.945 508.664 255.292 508.502 255.605 508.293L267.66 471.146C267.665 471.143 272 468.758 272 470.847C272 472.937 251.994 530.927 251.991 530.937C251.697 531.684 251.525 532.206 251.476 532.505C251.378 532.803 251.304 533.052 251.255 533.251C251.157 533.5 250.985 533.898 250.74 534.446C250.397 535.142 250.054 535.69 249.71 536.088C249.367 536.486 248.803 536.685 248.018 536.685L247.356 536.461Z" fill="white"/>
<path d="M233.992 497.675C236.024 497.423 237.201 497.143 239.133 496.409L242.28 506.08L243.244 508.721L237.798 508.721L233.992 497.675Z" fill="white"/>
<rect width="95" height="139.625" transform="translate(288 418.875)" fill="white"/>
<path fill-rule="evenodd" clip-rule="evenodd" d="M344.552 480.103C344.554 480.103 349.204 480.041 352.083 480.7C354.69 481.297 357.167 482.484 358.36 482.719C359.182 482.881 359.681 482.643 360.483 482.492C361.285 482.341 361.472 482.147 362.51 481.895L367 496.077C366.855 496.824 366.276 497.197 365.262 497.197C364.876 497.197 364.031 497.19 363.669 497.122C362.931 496.984 362.945 496.451 362.8 495.63C362.655 494.808 362.155 492.259 361.931 491.449C361.352 489.359 359.614 486.075 354.4 484.507C349.186 482.94 347.545 483.014 344.552 483.014C343.897 483.014 343.244 483.069 342.593 483.174L357.224 526.309C357.659 527.454 358.045 528.474 358.383 529.37C358.769 530.265 359.083 531.037 359.324 531.684C359.517 532.181 359.928 532.629 360.555 533.027C361.231 533.376 361.907 533.674 362.583 533.923C363.307 534.122 363.862 534.222 364.248 534.222C364.441 534.222 364.538 534.694 364.538 535.64C364.538 535.739 364.514 535.864 364.466 536.013C364.466 536.113 364.297 536.536 364.248 536.685H348.028C347.834 536.486 347.738 535.789 347.738 535.192C347.786 534.545 347.907 534.222 348.1 534.222C348.679 534.222 349.403 534.097 350.272 533.848C351.141 533.6 351.648 533.276 351.793 532.878C351.841 532.679 351.866 532.48 351.866 532.281C351.914 532.082 351.938 531.883 351.938 531.684C351.938 531.037 351.866 530.29 351.721 529.444C351.576 528.548 351.407 527.852 351.214 527.354L351.139 527.12C350.592 527.59 349.628 528.042 348.245 528.474C346.7 528.971 344.866 529.37 342.741 529.668C340.666 529.967 338.59 530.116 336.514 530.116C332.7 530.116 329.369 529.195 326.521 527.354C323.672 525.463 321.476 522.975 319.931 519.89C318.386 516.754 317.614 513.37 317.614 509.738C317.614 506.453 318.314 503.044 319.714 499.511C321.162 495.928 323.069 492.693 325.434 489.807C327.8 486.871 330.697 484.482 334.124 482.641C334.938 482.21 335.738 481.843 336.534 481.531L336.486 481.38L336.541 481.532C338.191 480.894 339.253 480.608 340.834 480.38L341.547 480.285C341.548 480.285 341.552 480.284 341.556 480.284C341.563 480.283 341.574 480.282 341.587 480.28C341.615 480.277 341.655 480.272 341.706 480.266C341.806 480.255 341.947 480.239 342.107 480.22C342.179 480.212 342.254 480.203 342.331 480.194C343.055 480.132 343.794 480.103 344.552 480.103ZM337.238 485.254C334.824 486.697 332.628 488.688 330.648 491.225C328.669 493.763 327.1 496.675 325.941 499.959C324.783 503.243 324.203 506.702 324.203 510.335C324.203 513.52 324.759 516.356 325.869 518.844C327.028 521.333 328.669 523.298 330.793 524.742C332.966 526.185 335.572 526.906 338.614 526.906C342.186 526.906 345.228 526.085 347.738 524.443C348.498 523.953 349.175 523.42 349.769 522.844L337.648 485.008C337.511 485.087 337.375 485.169 337.238 485.254Z" fill="black"/>
<path d="M328.259 440.914L336.17 464.24H330.723L325.941 450.916L321.55 464.663C324.818 464.666 327.71 464.716 330.225 464.813C330.466 464.823 330.704 464.83 330.938 464.839L336.415 464.963C336.524 464.963 336.631 464.965 336.737 464.965C340.37 464.965 343.485 464.914 346.08 464.813C348.722 464.713 350.798 464.662 352.308 464.662C352.921 464.662 353.63 464.587 354.432 464.436C355.234 464.284 355.871 464.082 356.909 463.83L360.193 474.42C359.863 474.773 357.641 475.176 356.838 475.176C356.461 475.176 356.225 475.05 356.131 474.798C355.706 472.882 355.21 471.445 354.644 470.487C354.125 469.529 353.37 468.899 352.379 468.596C351.388 468.243 349.996 468.066 348.203 468.066H325.341C323.548 468.066 322.156 468.243 321.165 468.596C320.789 468.711 320.447 468.873 320.139 469.082L308.272 506.229C308.268 506.232 304 508.617 304 506.528C304 504.438 323.693 446.448 323.697 446.438C323.986 445.691 324.155 445.169 324.203 444.87C324.3 444.572 324.372 444.323 324.421 444.124C324.517 443.875 324.686 443.477 324.928 442.929C325.266 442.233 325.603 441.685 325.941 441.287C326.279 440.889 326.834 440.69 327.607 440.69L328.259 440.914Z" fill="black"/>
<path d="M341.414 479.7C339.414 479.952 338.255 480.232 336.353 480.966L333.255 471.295L332.307 468.654H337.668L341.414 479.7Z" fill="black"/>
<rect width="96" height="139.625" transform="translate(480 558.5) rotate(-180)" fill="black"/>
<path fill-rule="evenodd" clip-rule="evenodd" d="M422.805 497.272C422.802 497.272 418.078 497.334 415.154 496.675C412.506 496.077 409.989 494.891 408.778 494.656C407.942 494.494 407.436 494.732 406.621 494.883C405.806 495.034 405.615 495.228 404.561 495.48L400 481.297C400.147 480.551 400.736 480.178 401.766 480.178C402.158 480.178 403.016 480.185 403.384 480.252C404.134 480.391 404.12 480.924 404.267 481.745C404.414 482.567 404.921 485.116 405.149 485.926C405.738 488.016 407.504 491.3 412.8 492.868C418.096 494.435 419.764 494.361 422.805 494.361C423.47 494.361 424.133 494.306 424.794 494.201L409.931 451.066C409.49 449.921 409.097 448.901 408.754 448.005C408.362 447.11 408.043 446.338 407.798 445.691C407.602 445.194 407.185 444.746 406.547 444.348C405.861 443.999 405.174 443.701 404.487 443.452C403.752 443.253 403.188 443.153 402.795 443.153C402.599 443.153 402.501 442.681 402.501 441.735C402.501 441.635 402.526 441.511 402.575 441.362C402.575 441.262 402.746 440.839 402.795 440.69L419.274 440.69C419.47 440.889 419.568 441.586 419.568 442.183C419.519 442.83 419.396 443.153 419.2 443.153C418.611 443.153 417.876 443.278 416.993 443.526C416.11 443.775 415.595 444.099 415.448 444.497C415.399 444.696 415.375 444.895 415.375 445.094C415.326 445.293 415.301 445.492 415.301 445.691C415.301 446.338 415.375 447.085 415.522 447.931C415.669 448.826 415.841 449.523 416.037 450.021L416.113 450.255C416.668 449.785 417.647 449.333 419.053 448.901C420.622 448.403 422.486 448.005 424.644 447.707C426.752 447.408 428.861 447.259 430.97 447.259C434.844 447.259 438.228 448.179 441.122 450.021C444.015 451.912 446.247 454.4 447.816 457.485C449.385 460.62 450.17 464.005 450.17 467.637C450.17 470.922 449.459 474.331 448.037 477.864C446.566 481.447 444.628 484.681 442.225 487.568C439.822 490.504 436.88 492.893 433.398 494.734C432.571 495.165 431.758 495.532 430.949 495.844L430.999 495.995L430.943 495.843C429.267 496.481 428.187 496.766 426.581 496.995L425.857 497.09C425.856 497.09 425.852 497.091 425.848 497.091C425.841 497.092 425.83 497.093 425.816 497.094C425.788 497.098 425.747 497.103 425.696 497.108C425.594 497.12 425.451 497.136 425.288 497.155C425.215 497.163 425.139 497.172 425.06 497.181C424.325 497.243 423.575 497.272 422.805 497.272ZM430.234 492.121C432.687 490.678 434.918 488.687 436.929 486.149C438.939 483.612 440.533 480.7 441.71 477.416C442.887 474.131 443.476 470.673 443.476 467.04C443.476 463.855 442.912 461.019 441.784 458.53C440.607 456.042 438.939 454.076 436.782 452.633C434.575 451.19 431.926 450.469 428.837 450.469C425.208 450.469 422.118 451.29 419.568 452.932C418.795 453.422 418.108 453.955 417.505 454.531L429.818 492.367C429.957 492.288 430.096 492.206 430.234 492.121Z" fill="white"/>
<path d="M439.356 536.461L431.319 513.135L436.853 513.135L441.71 526.458L446.171 512.712C442.851 512.709 439.914 512.659 437.359 512.561C437.114 512.552 436.872 512.545 436.634 512.536L431.07 512.412C430.96 512.412 430.851 512.41 430.744 512.41C427.053 512.41 423.889 512.461 421.252 512.561C418.568 512.662 416.459 512.712 414.925 512.712C414.302 512.712 413.583 512.788 412.768 512.939C411.953 513.091 411.306 513.292 410.251 513.545L406.915 502.955C407.251 502.602 409.508 502.198 410.323 502.198C410.706 502.198 410.946 502.325 411.042 502.577C411.473 504.493 411.977 505.93 412.552 506.888C413.08 507.846 413.846 508.476 414.853 508.779C415.86 509.132 417.274 509.308 419.095 509.308L442.321 509.308C444.142 509.308 445.556 509.132 446.563 508.779C446.945 508.664 447.292 508.502 447.605 508.293L459.66 471.146C459.665 471.143 464 468.758 464 470.847C464 472.937 443.994 530.927 443.991 530.937C443.697 531.684 443.525 532.206 443.476 532.505C443.378 532.803 443.304 533.052 443.255 533.251C443.157 533.5 442.985 533.898 442.74 534.446C442.397 535.142 442.054 535.69 441.71 536.088C441.367 536.486 440.803 536.685 440.018 536.685L439.356 536.461Z" fill="white"/>
<path d="M425.992 497.675C428.024 497.423 429.201 497.143 431.133 496.409L434.28 506.08L435.244 508.721L429.798 508.721L425.992 497.675Z" fill="white"/>
<rect width="95" height="139.625" transform="translate(480 418.875)" fill="white"/>
<path fill-rule="evenodd" clip-rule="evenodd" d="M536.552 480.103C536.554 480.103 541.204 480.041 544.083 480.7C546.69 481.297 549.167 482.484 550.36 482.719C551.182 482.881 551.681 482.643 552.483 482.492C553.285 482.341 553.472 482.147 554.51 481.895L559 496.077C558.855 496.824 558.276 497.197 557.262 497.197C556.876 497.197 556.031 497.19 555.669 497.122C554.931 496.984 554.945 496.451 554.8 495.63C554.655 494.808 554.155 492.259 553.931 491.449C553.352 489.359 551.614 486.075 546.4 484.507C541.186 482.94 539.545 483.014 536.552 483.014C535.897 483.014 535.244 483.069 534.593 483.174L549.224 526.309C549.659 527.454 550.045 528.474 550.383 529.37C550.769 530.265 551.083 531.037 551.324 531.684C551.517 532.181 551.928 532.629 552.555 533.027C553.231 533.376 553.907 533.674 554.583 533.923C555.307 534.122 555.862 534.222 556.248 534.222C556.441 534.222 556.538 534.694 556.538 535.64C556.538 535.739 556.514 535.864 556.466 536.013C556.466 536.113 556.297 536.536 556.248 536.685H540.028C539.834 536.486 539.738 535.789 539.738 535.192C539.786 534.545 539.907 534.222 540.1 534.222C540.679 534.222 541.403 534.097 542.272 533.848C543.141 533.6 543.648 533.276 543.793 532.878C543.841 532.679 543.866 532.48 543.866 532.281C543.914 532.082 543.938 531.883 543.938 531.684C543.938 531.037 543.866 530.29 543.721 529.444C543.576 528.548 543.407 527.852 543.214 527.354L543.139 527.12C542.592 527.59 541.628 528.042 540.245 528.474C538.7 528.971 536.866 529.37 534.741 529.668C532.666 529.967 530.59 530.116 528.514 530.116C524.7 530.116 521.369 529.195 518.521 527.354C515.672 525.463 513.476 522.975 511.931 519.89C510.386 516.754 509.614 513.37 509.614 509.738C509.614 506.453 510.314 503.044 511.714 499.511C513.162 495.928 515.069 492.693 517.434 489.807C519.8 486.871 522.697 484.482 526.124 482.641C526.938 482.21 527.738 481.843 528.534 481.531L528.486 481.38L528.541 481.532C530.191 480.894 531.253 480.608 532.834 480.38L533.547 480.285C533.548 480.285 533.552 480.284 533.556 480.284C533.563 480.283 533.574 480.282 533.587 480.28C533.615 480.277 533.655 480.272 533.706 480.266C533.806 480.255 533.947 480.239 534.107 480.22C534.179 480.212 534.254 480.203 534.331 480.194C535.055 480.132 535.794 480.103 536.552 480.103ZM529.238 485.254C526.824 486.697 524.628 488.688 522.648 491.225C520.669 493.763 519.1 496.675 517.941 499.959C516.783 503.243 516.203 506.702 516.203 510.335C516.203 513.52 516.759 516.356 517.869 518.844C519.028 521.333 520.669 523.298 522.793 524.742C524.966 526.185 527.572 526.906 530.614 526.906C534.186 526.906 537.228 526.085 539.738 524.443C540.498 523.953 541.175 523.42 541.769 522.844L529.648 485.008C529.511 485.087 529.375 485.169 529.238 485.254Z" fill="black"/>
<path d="M520.259 440.914L528.17 464.24H522.723L517.941 450.916L513.55 464.663C516.818 464.666 519.71 464.716 522.225 464.813C522.466 464.823 522.704 464.83 522.938 464.839L528.415 464.963C528.524 464.963 528.631 464.965 528.737 464.965C532.37 464.965 535.485 464.914 538.08 464.813C540.722 464.713 542.798 464.662 544.308 464.662C544.921 464.662 545.63 464.587 546.432 464.436C547.234 464.284 547.871 464.082 548.909 463.83L552.193 474.42C551.863 474.773 549.641 475.176 548.838 475.176C548.461 475.176 548.225 475.05 548.131 474.798C547.706 472.882 547.21 471.445 546.644 470.487C546.125 469.529 545.37 468.899 544.379 468.596C543.388 468.243 541.996 468.066 540.203 468.066H517.341C515.548 468.066 514.156 468.243 513.165 468.596C512.789 468.711 512.447 468.873 512.139 469.082L500.272 506.229C500.268 506.232 496 508.617 496 506.528C496 504.438 515.693 446.448 515.697 446.438C515.986 445.691 516.155 445.169 516.203 444.87C516.3 444.572 516.372 444.323 516.421 444.124C516.517 443.875 516.686 443.477 516.928 442.929C517.266 442.233 517.603 441.685 517.941 441.287C518.279 440.889 518.834 440.69 519.607 440.69L520.259 440.914Z" fill="black"/>
<path d="M533.414 479.7C531.414 479.952 530.255 480.232 528.353 480.966L525.255 471.295L524.307 468.654H529.668L533.414 479.7Z" fill="black"/>
</g>
<defs>
<clipPath id="clip0_215_2959">
<rect width="576" height="558.5" fill="white"/>
</clipPath>
</defs>
</svg>
